<svg width="1920" height="1080" viewBox="0 0 1920 1080" fill="none" xmlns="http://www.w3.org/2000/svg">
<path d="M0 0H1920V1080H0V0Z" fill="#242424"/>
<path d="M586.8 530.625C583.3 529.208 580.383 527.208 578.05 524.625C575.8 522.042 573.967 519 572.55 515.5C573.383 513.25 574.717 511.375 576.55 509.875C578.383 508.292 580.425 506.958 582.675 505.875C585.008 504.792 587.467 503.917 590.05 503.25C592.633 502.583 595.133 502 597.55 501.5C598.05 501.667 598.3 501.667 598.3 501.5C598.3 501.333 598.508 501.417 598.925 501.75C601.925 500.833 605.383 499.958 609.3 499.125C613.217 498.208 617.383 497.875 621.8 498.125C622.383 497.792 623.092 497.625 623.925 497.625C624.758 497.542 625.633 497.5 626.55 497.5C627.467 497.5 628.342 497.5 629.175 497.5C630.008 497.417 630.717 497.25 631.3 497C631.8 497.583 632.55 497.958 633.55 498.125C634.55 498.208 635.592 498.625 636.675 499.375C637.008 499.458 637.008 499.333 636.675 499C636.342 498.583 636.383 498.292 636.8 498.125C637.883 498.125 638.842 498.375 639.675 498.875C640.508 499.375 641.258 499.958 641.925 500.625C642.675 501.208 643.342 501.75 643.925 502.25C644.592 502.75 645.3 503 646.05 503C646.8 503.917 647.675 504.792 648.675 505.625C649.758 506.375 650.758 507.167 651.675 508C652.675 508.833 653.467 509.75 654.05 510.75C654.717 511.75 655.05 512.875 655.05 514.125C654.967 514.625 655.133 514.917 655.55 515C655.967 515.083 656.258 515.333 656.425 515.75C656.508 518.833 656.008 521.5 654.925 523.75C653.925 526 652.633 528.083 651.05 530C649.467 531.833 647.758 533.583 645.925 535.25C644.175 536.917 642.55 538.708 641.05 540.625C642.05 541.875 643.175 543.042 644.425 544.125C645.758 545.125 647.092 546.125 648.425 547.125C649.758 548.125 651.008 549.208 652.175 550.375C653.425 551.458 654.467 552.708 655.3 554.125C655.55 554.625 656.092 554.958 656.925 555.125C657.175 556.125 657.508 557.167 657.925 558.25C658.425 559.25 658.883 560.25 659.3 561.25C659.717 562.167 659.967 563 660.05 563.75C660.133 564.5 659.925 565.125 659.425 565.625C660.008 565.958 660.342 566.5 660.425 567.25C660.508 567.917 660.508 568.458 660.425 568.875C658.592 571.125 657.342 572.708 656.675 573.625C656.008 574.542 655.508 575.208 655.175 575.625C654.842 576.042 654.508 576.417 654.175 576.75C653.842 577.083 653.092 577.75 651.925 578.75C647.508 581.417 642.883 583.833 638.05 586C633.3 588.083 628.342 589.5 623.175 590.25C622.758 590.833 622.133 591.292 621.3 591.625C620.55 592.042 619.675 592.375 618.675 592.625C617.675 592.875 616.592 593.083 615.425 593.25C614.342 593.417 613.342 593.583 612.425 593.75C612.008 593.583 611.758 593.292 611.675 592.875C611.675 592.542 611.467 592.292 611.05 592.125C610.967 593.125 610.508 593.625 609.675 593.625C608.925 593.708 607.967 593.542 606.8 593.125C605.633 592.708 604.425 592.125 603.175 591.375C601.925 590.625 600.842 589.917 599.925 589.25C599.508 590 598.967 590.792 598.3 591.625C597.717 592.458 597.092 593.042 596.425 593.375C595.258 593.208 594.383 593.083 593.8 593C593.3 592.917 592.8 593.125 592.3 593.625C591.633 593.292 591.133 592.917 590.8 592.5C590.467 592.167 590.133 591.792 589.8 591.375C589.467 591.042 589.092 590.75 588.675 590.5C588.258 590.167 587.633 589.875 586.8 589.625C586.967 589.208 586.842 588.583 586.425 587.75C586.008 586.833 585.425 586.292 584.675 586.125C585.092 585.458 584.925 584.625 584.175 583.625C583.425 582.542 582.842 581.333 582.425 580C582.508 579.417 582.55 578.833 582.55 578.25C582.633 577.583 582.717 577 582.8 576.5C582.967 575.917 583.175 575.417 583.425 575C583.675 574.583 584.092 574.292 584.675 574.125C584.592 573.042 584.258 572 583.675 571C584.425 570.417 584.925 569.708 585.175 568.875C585.425 567.958 585.633 567.042 585.8 566.125C586.05 565.208 586.342 564.333 586.675 563.5C587.008 562.583 587.55 561.833 588.3 561.25C588.133 561 587.967 560.792 587.8 560.625C587.633 560.458 587.55 560.167 587.55 559.75C588.8 557.667 589.675 555.917 590.175 554.5C590.675 553 591.05 551.583 591.3 550.25C591.633 548.833 591.967 547.333 592.3 545.75C592.633 544.167 593.3 542.167 594.3 539.75C594.217 538.25 594.383 536.917 594.8 535.75C595.217 534.583 595.633 533.458 596.05 532.375C596.55 531.208 596.925 530 597.175 528.75C597.425 527.5 597.383 526.042 597.05 524.375C595.633 524.542 594.592 525.042 593.925 525.875C593.342 526.708 592.967 527.833 592.8 529.25C592.05 529.917 591.092 530.25 589.925 530.25C588.758 530.167 587.717 530.292 586.8 530.625ZM641.8 554.75C638.633 553 635.717 551.958 633.05 551.625C630.467 551.292 627.967 551.333 625.55 551.75C623.217 552.083 620.967 552.583 618.8 553.25C616.633 553.917 614.467 554.417 612.3 554.75C611.217 557.583 610.092 560.708 608.925 564.125C607.758 567.542 606.633 570.875 605.55 574.125C608.55 573.708 611.3 573.083 613.8 572.25C616.3 571.417 618.717 570.5 621.05 569.5C623.383 568.417 625.675 567.375 627.925 566.375C630.175 565.292 632.508 564.292 634.925 563.375C635.175 562.375 635.717 561.583 636.55 561C637.383 560.417 638.217 559.875 639.05 559.375C639.883 558.792 640.592 558.167 641.175 557.5C641.758 556.833 641.967 555.917 641.8 554.75ZM633.05 515.625C627.883 515.458 622.8 515.917 617.8 517C612.8 518.083 608.592 519.667 605.175 521.75C606.842 523.167 608.55 524.417 610.3 525.5C612.133 526.583 613.508 528.042 614.425 529.875C618.425 528.292 621.925 526.292 624.925 523.875C627.925 521.375 630.633 518.625 633.05 515.625ZM661.4 580.25C660.983 580.333 660.608 580.042 660.275 579.375C659.942 578.625 659.567 577.917 659.15 577.25H660.525C659.942 575.417 659.775 573.75 660.025 572.25C660.358 570.667 660.733 569.167 661.15 567.75C661.567 566.25 661.9 564.833 662.15 563.5C662.483 562.083 662.358 560.625 661.775 559.125C662.192 559.375 662.483 559.292 662.65 558.875C662.9 558.375 663.067 557.792 663.15 557.125C663.317 556.375 663.358 555.625 663.275 554.875C663.275 554.042 663.233 553.375 663.15 552.875C664.233 550.292 665.067 547.625 665.65 544.875C666.317 542.125 666.9 539.417 667.4 536.75C667.9 534 668.442 531.375 669.025 528.875C669.692 526.292 670.525 523.875 671.525 521.625C672.692 521.458 673.9 521.625 675.15 522.125C676.483 522.542 677.358 523.083 677.775 523.75C680.358 521.75 682.65 519.333 684.65 516.5C686.65 513.667 688.65 510.917 690.65 508.25C692.733 505.5 695.067 503.083 697.65 501C700.233 498.917 703.442 497.667 707.275 497.25C709.275 498.667 711.525 500.208 714.025 501.875C716.525 503.458 718.567 505.458 720.15 507.875C720.817 508.292 721.442 508.75 722.025 509.25C722.692 509.667 723.358 510.083 724.025 510.5V512.375C725.192 513.458 726.15 514.75 726.9 516.25C727.733 517.667 728.442 519.208 729.025 520.875C729.692 522.458 730.317 524.083 730.9 525.75C731.483 527.417 732.15 528.958 732.9 530.375C732.733 530.875 732.65 531.333 732.65 531.75C732.733 532.083 732.817 532.458 732.9 532.875C733.067 533.208 733.192 533.625 733.275 534.125C733.358 534.542 733.4 535.083 733.4 535.75C733.067 540.167 731.608 543.75 729.025 546.5C726.525 549.167 723.442 551.375 719.775 553.125C716.192 554.792 712.358 556.25 708.275 557.5C704.192 558.667 700.483 559.958 697.15 561.375C697.15 561.708 697.317 561.875 697.65 561.875C698.067 561.875 698.192 562.125 698.025 562.625C700.525 564.125 702.442 565.333 703.775 566.25C705.192 567.167 706.483 567.958 707.65 568.625C708.9 569.208 710.233 569.708 711.65 570.125C713.15 570.542 715.192 571.042 717.775 571.625C720.358 572.208 722.358 572.708 723.775 573.125C725.275 573.458 726.608 573.75 727.775 574C728.942 574.167 730.192 574.333 731.525 574.5C732.858 574.667 734.65 574.875 736.9 575.125C737.817 576.042 738.567 577.125 739.15 578.375C739.733 579.625 740.15 580.875 740.4 582.125C740.65 583.375 740.692 584.583 740.525 585.75C740.442 586.833 740.108 587.708 739.525 588.375C739.608 588.708 739.817 588.875 740.15 588.875C740.567 588.792 740.983 588.792 741.4 588.875C740.817 589.292 740.317 589.792 739.9 590.375C739.483 590.958 739.067 591.542 738.65 592.125C738.233 592.708 737.733 593.25 737.15 593.75C736.65 594.25 735.983 594.542 735.15 594.625C732.15 595.792 728.317 595.833 723.65 594.75C718.983 593.667 713.025 591.75 705.775 589C702.192 587.667 699.275 586.458 697.025 585.375C694.775 584.292 692.817 583.25 691.15 582.25C689.483 581.167 687.942 580.042 686.525 578.875C685.108 577.625 683.483 576.167 681.65 574.5C681.4 574.583 681.233 574.75 681.15 575C681.15 575.25 681.025 575.417 680.775 575.5C680.358 578.833 679.692 581.542 678.775 583.625C677.942 585.708 676.692 587.833 675.025 590C673.692 589.75 672.775 589.875 672.275 590.375C671.858 590.875 671.317 591.333 670.65 591.75C669.817 591.917 669.192 591.875 668.775 591.625C668.358 591.458 667.983 591.25 667.65 591C667.317 590.75 666.942 590.5 666.525 590.25C666.108 590 665.442 589.917 664.525 590C664.275 589.25 664.025 588.542 663.775 587.875C663.525 587.125 662.858 586.792 661.775 586.875C662.025 586.125 662.108 585.5 662.025 585C661.942 584.417 661.817 583.917 661.65 583.5C661.483 583 661.317 582.5 661.15 582C661.067 581.5 661.15 580.917 661.4 580.25ZM703.15 523.125C702.067 524.708 700.858 526.167 699.525 527.5C698.192 528.75 696.858 530.083 695.525 531.5C694.275 532.833 693.15 534.333 692.15 536C691.15 537.583 690.442 539.5 690.025 541.75C693.525 541.333 697.192 540.375 701.025 538.875C704.858 537.292 708.483 535.792 711.9 534.375C711.483 531.292 710.4 528.833 708.65 527C706.9 525.083 705.067 523.792 703.15 523.125ZM740.75 529.125C740.583 528.042 740.375 527.375 740.125 527.125C740.708 525.625 741.125 524.167 741.375 522.75C741.708 521.25 741.958 519.833 742.125 518.5C742.292 517.333 742.458 516.25 742.625 515.25C742.875 514.25 743.167 513.292 743.5 512.375C744.917 512.042 745.958 511.458 746.625 510.625C747.375 509.708 747.958 508.917 748.375 508.25C749.875 508.167 750.833 508.375 751.25 508.875C751.75 509.375 752.292 510.208 752.875 511.375C753.292 512.292 753.875 513.292 754.625 514.375C755.375 515.375 756.5 516.167 758 516.75C758.25 517.667 758.542 518.542 758.875 519.375C759.208 520.208 759.583 521.083 760 522C760.75 523.75 761.458 525.583 762.125 527.5C762.792 529.333 763.167 531.083 763.25 532.75C762.25 534.667 761.458 536.875 760.875 539.375C760.375 541.875 760.042 544.417 759.875 547C759.792 549.5 759.875 551.917 760.125 554.25C760.375 556.583 760.792 558.542 761.375 560.125L762.125 562.125L764.875 561.875C767.875 561.125 770.583 560.292 773 559.375C775.417 558.375 777.667 557.208 779.75 555.875C781.833 554.542 783.833 553.042 785.75 551.375C787.667 549.625 789.667 547.583 791.75 545.25C793.75 542.917 795.542 540.292 797.125 537.375C798.708 534.375 800 531.292 801 528.125C802.083 524.958 802.917 521.792 803.5 518.625C804.083 515.458 804.458 512.5 804.625 509.75C806.208 509 807.083 507.792 807.25 506.125L806.875 504.5C806.625 504.083 806.5 503.708 806.5 503.375C806.583 502.958 806.708 502.583 806.875 502.25C807.542 500.333 808.958 498.917 811.125 498C812.625 499 814 500.083 815.25 501.25C816.583 502.417 817.792 503.583 818.875 504.75C819.042 507 819.375 508.958 819.875 510.625C820.375 512.208 820.917 513.75 821.5 515.25C822.083 516.667 822.583 518.042 823 519.375C823.5 520.708 823.833 522.333 824 524.25C823.167 526.75 822.542 529.125 822.125 531.375C821.792 533.542 821.458 535.833 821.125 538.25L820.875 539.625C819.375 542.208 817.875 544.875 816.375 547.625C814.958 550.292 813.792 552.625 812.875 554.625C812.375 555.125 811.917 555.708 811.5 556.375C811.167 557.042 810.833 557.708 810.5 558.375C810.333 558.625 810.083 559.042 809.75 559.625C809.5 560.208 809.25 560.625 809 560.875L806 559.75L805.25 563.625L803.25 564.125L801.75 565.875C799.833 569.208 797.792 572 795.625 574.25C793.542 576.5 791.167 578.5 788.5 580.25C785.917 582 782.958 583.667 779.625 585.25C776.375 586.75 772.625 588.375 768.375 590.125C766.708 589.875 765.25 589.75 764 589.75C762.833 589.667 761.667 589.583 760.5 589.5C759.333 589.5 758.208 589.458 757.125 589.375C756.042 589.292 754.792 589.167 753.375 589C753.042 588.25 752.583 587.708 752 587.375C751.417 587.042 750.875 586.875 750.375 586.875C748.708 586.042 747.458 584.875 746.625 583.375C745.792 581.875 744.917 580.208 744 578.375C743.583 577.375 743.125 576.375 742.625 575.375C742.208 574.375 741.667 573.417 741 572.5L743.5 571.75L740.25 568C740 567.75 739.708 567.5 739.375 567.25C739.125 567 738.875 566.708 738.625 566.375V564C738.292 557.167 738.125 550.875 738.125 545.125C738.208 539.292 739 534.167 740.5 529.75L740.75 529.125ZM836.975 579.25C836.142 579.917 835.642 580.792 835.475 581.875C835.308 582.875 835.1 583.875 834.85 584.875C834.6 585.875 834.142 586.75 833.475 587.5C832.892 588.167 831.808 588.458 830.225 588.375C829.892 588.792 829.808 589.042 829.975 589.125C830.225 589.208 830.433 589.583 830.6 590.25C829.433 590.083 828.6 590.167 828.1 590.5C827.6 590.833 826.975 591.083 826.225 591.25C824.308 590.667 822.683 589.625 821.35 588.125C820.1 586.542 818.975 584.833 817.975 583C817.058 581.167 816.225 579.292 815.475 577.375C814.808 575.458 814.1 573.792 813.35 572.375C813.35 572.042 813.517 571.917 813.85 572C814.1 572 814.35 572 814.6 572C814.183 571.167 813.892 570.25 813.725 569.25C813.475 568.167 813.058 567.292 812.475 566.625C814.892 561.458 817.475 556.083 820.225 550.5C822.975 544.833 825.725 539.125 828.475 533.375C831.308 527.542 834.1 521.708 836.85 515.875C839.683 509.958 842.392 504.167 844.975 498.5C847.308 499.333 849.558 500.333 851.725 501.5C853.975 502.583 856.017 503.875 857.85 505.375C859.683 506.875 861.225 508.625 862.475 510.625C863.808 512.542 864.683 514.75 865.1 517.25C864.933 517.75 864.725 517.917 864.475 517.75C864.225 517.583 864.017 517.667 863.85 518C864.267 518.5 864.475 518.875 864.475 519.125C864.558 519.292 864.558 519.5 864.475 519.75C864.392 519.917 864.35 520.167 864.35 520.5C864.35 520.833 864.558 521.292 864.975 521.875C864.558 521.792 864.267 521.875 864.1 522.125C863.933 522.292 863.642 522.292 863.225 522.125C863.642 523.292 863.767 524.208 863.6 524.875C863.433 525.542 863.183 526.167 862.85 526.75C862.517 527.25 862.225 527.833 861.975 528.5C861.808 529.083 861.892 529.917 862.225 531C861.892 531 861.642 531.083 861.475 531.25C861.392 531.333 861.308 531.458 861.225 531.625C861.142 531.792 861.017 531.958 860.85 532.125C860.767 532.208 860.558 532.208 860.225 532.125C860.475 534.292 860.558 536.5 860.475 538.75C860.392 540.917 860.308 543.167 860.225 545.5C860.142 547.75 860.142 550.083 860.225 552.5C860.308 554.917 860.642 557.417 861.225 560C864.808 557.917 867.683 555.208 869.85 551.875C872.1 548.542 873.85 544.833 875.1 540.75C876.433 536.667 877.433 532.292 878.1 527.625C878.85 522.958 879.6 518.208 880.35 513.375C881.267 512.458 881.975 511.333 882.475 510C883.058 508.667 883.517 507.292 883.85 505.875C884.267 504.458 884.642 503.042 884.975 501.625C885.392 500.125 885.933 498.792 886.6 497.625C888.1 497.792 889.35 498.25 890.35 499C891.433 499.667 892.433 500.458 893.35 501.375C894.267 502.208 895.225 503 896.225 503.75C897.225 504.5 898.475 505 899.975 505.25C901.142 506.917 902.225 508.542 903.225 510.125C904.225 511.625 904.892 513.333 905.225 515.25C904.725 516.083 904.35 517 904.1 518C903.85 519 903.558 520 903.225 521C902.975 522 902.6 522.917 902.1 523.75C901.6 524.583 900.892 525.292 899.975 525.875C899.725 528.375 899.35 530.708 898.85 532.875C898.35 535.042 897.892 537.167 897.475 539.25C897.058 541.333 896.683 543.5 896.35 545.75C896.017 548 895.892 550.458 895.975 553.125C895.225 555.542 894.392 558.042 893.475 560.625C892.558 563.125 891.892 565.458 891.475 567.625C889.892 568.875 888.642 570.417 887.725 572.25C886.808 574.083 885.85 575.917 884.85 577.75C884.433 578.083 884.183 578.167 884.1 578C884.017 577.75 883.642 577.583 882.975 577.5C883.058 578.25 882.892 578.75 882.475 579C882.142 579.167 882.183 579.75 882.6 580.75C881.183 581.417 879.933 582.292 878.85 583.375C877.767 584.458 876.558 585.458 875.225 586.375C873.975 587.292 872.475 587.917 870.725 588.25C869.058 588.5 866.85 588.125 864.1 587.125C860.017 584.125 856.35 580.667 853.1 576.75C849.85 572.833 847.267 568.208 845.35 562.875C844.517 563.125 843.892 563.667 843.475 564.5C843.058 565.333 842.683 566.208 842.35 567.125C842.017 568.042 841.683 568.875 841.35 569.625C841.017 570.375 840.517 570.75 839.85 570.75C839.683 571.5 839.35 572.208 838.85 572.875C838.433 573.458 838.017 574.083 837.6 574.75C837.183 575.333 836.85 576 836.6 576.75C836.433 577.5 836.558 578.333 836.975 579.25ZM925.7 591.5C922.033 592 918.7 591.833 915.7 591C912.7 590.167 909.992 588.875 907.575 587.125C905.242 585.375 903.2 583.292 901.45 580.875C899.783 578.458 898.408 575.875 897.325 573.125C896.575 567.458 896.783 562.333 897.95 557.75C899.117 553.083 900.825 548.792 903.075 544.875C905.325 540.958 907.867 537.292 910.7 533.875C913.617 530.458 916.408 527.167 919.075 524C919.658 524.25 920.117 524.25 920.45 524C920.867 523.75 921.2 523.417 921.45 523C921.783 522.583 922.117 522.167 922.45 521.75C922.867 521.333 923.325 521.042 923.825 520.875C924.158 520.125 924.575 519.5 925.075 519C925.658 518.5 926.242 518.042 926.825 517.625C927.492 517.125 928.075 516.625 928.575 516.125C929.158 515.625 929.658 515 930.075 514.25C930.908 514.083 931.617 513.792 932.2 513.375C932.867 512.958 933.45 512.5 933.95 512C934.533 511.5 935.117 511.042 935.7 510.625C936.283 510.208 936.992 509.875 937.825 509.625V508C939.658 507.167 940.992 506.25 941.825 505.25C942.658 504.25 943.658 502.958 944.825 501.375C945.742 501.292 946.45 501.25 946.95 501.25C947.533 501.25 948.408 501.167 949.575 501C950.325 499.583 951.033 498.542 951.7 497.875C952.367 497.208 953.325 496.458 954.575 495.625C955.825 496.292 957.158 496.708 958.575 496.875C959.992 496.958 961.283 497.583 962.45 498.75C962.533 499.75 962.825 500.542 963.325 501.125C963.825 501.625 964.367 502.125 964.95 502.625C965.533 503.042 966.117 503.5 966.7 504C967.283 504.5 967.658 505.208 967.825 506.125C968.242 506.125 968.492 506.042 968.575 505.875C968.742 505.708 969.033 505.667 969.45 505.75C969.617 506.417 969.783 506.958 969.95 507.375C970.117 507.792 970.283 508.167 970.45 508.5C970.7 508.833 970.908 509.208 971.075 509.625C971.325 510.042 971.533 510.542 971.7 511.125C971.283 512.125 970.908 513.208 970.575 514.375C970.242 515.458 969.575 516.208 968.575 516.625C968.575 517.292 968.825 517.667 969.325 517.75C969.825 517.75 970.117 518.042 970.2 518.625C970.283 519.375 970.158 520 969.825 520.5C972.158 524.417 974.283 528.542 976.2 532.875C978.117 537.125 980.283 541.208 982.7 545.125C982.533 546.292 982.575 547.458 982.825 548.625C983.158 549.708 983.533 550.792 983.95 551.875C984.45 552.958 984.908 554.042 985.325 555.125C985.742 556.208 986.033 557.292 986.2 558.375C986.367 559.792 986.367 561.333 986.2 563C986.033 564.583 985.7 566.125 985.2 567.625C984.7 569.125 984.033 570.542 983.2 571.875C982.367 573.125 981.408 574.083 980.325 574.75C978.992 576.417 977.325 577.792 975.325 578.875C973.325 579.875 971.492 581.083 969.825 582.5C968.658 583.167 967.408 583.667 966.075 584C964.742 584.25 963.367 584.542 961.95 584.875C960.867 585.542 959.575 586.208 958.075 586.875C956.575 587.458 955.033 588 953.45 588.5C951.867 589 950.283 589.417 948.7 589.75C947.117 590 945.7 590.042 944.45 589.875C941.45 590.958 938.533 591.708 935.7 592.125C932.867 592.542 929.533 592.333 925.7 591.5ZM927.325 546C926.492 547.917 925.492 549.667 924.325 551.25C923.242 552.75 922.158 554.292 921.075 555.875C919.992 557.458 919.033 559.167 918.2 561C917.45 562.75 917.033 564.833 916.95 567.25C918.617 568.667 920.575 569.542 922.825 569.875C925.158 570.125 927.533 570.167 929.95 570C932.367 569.75 934.783 569.417 937.2 569C939.617 568.583 941.783 568.375 943.7 568.375C943.7 567.625 944.033 567.25 944.7 567.25C948.2 566.917 951.45 565.958 954.45 564.375C957.45 562.708 960.575 561.042 963.825 559.375C964.242 558.375 964.783 557.5 965.45 556.75C966.117 556 966.492 554.917 966.575 553.5C966.158 552.75 965.867 552.125 965.7 551.625C965.617 551.125 965.575 550.375 965.575 549.375C963.408 546.375 961.533 543.125 959.95 539.625C958.367 536.042 956.533 532.667 954.45 529.5C954.283 529.917 953.95 530.333 953.45 530.75C952.95 531.167 952.408 531.083 951.825 530.5C951.575 531.333 951.2 531.917 950.7 532.25C950.2 532.5 949.617 532.625 948.95 532.625C948.367 532.625 947.742 532.5 947.075 532.25C946.492 532 945.95 531.667 945.45 531.25C942.533 533.583 939.617 535.833 936.7 538C933.867 540.167 931.283 542.708 928.95 545.625C928.533 545.875 928.283 545.958 928.2 545.875C928.117 545.792 927.825 545.833 927.325 546ZM1027.02 534.625C1027.27 533.375 1027.44 532.375 1027.52 531.625C1027.61 530.792 1027.32 529.917 1026.65 529C1026.98 527.667 1027.23 526.625 1027.4 525.875C1027.65 525.125 1027.69 524.083 1027.52 522.75C1028.27 520.583 1029.4 518.75 1030.9 517.25C1032.48 515.75 1034.19 514.5 1036.02 513.5C1037.86 512.417 1039.77 511.542 1041.77 510.875C1043.77 510.125 1045.65 509.5 1047.4 509C1047.4 508.667 1047.23 508.5 1046.9 508.5C1046.57 508.5 1046.48 508.292 1046.65 507.875C1051.15 507.042 1055.65 505.833 1060.15 504.25C1064.73 502.667 1069.4 501.25 1074.15 500C1078.9 498.75 1083.77 498 1088.77 497.75C1093.77 497.417 1099.02 498.042 1104.52 499.625C1104.86 500.625 1105.32 501.583 1105.9 502.5C1106.48 503.417 1107.07 504.333 1107.65 505.25C1108.32 506.083 1108.9 506.917 1109.4 507.75C1109.9 508.583 1110.19 509.458 1110.27 510.375C1111.27 511.292 1112.07 512.292 1112.65 513.375C1113.32 514.375 1113.44 515.75 1113.02 517.5C1112.11 518.167 1111.15 518.833 1110.15 519.5C1109.15 520.167 1108.11 520.792 1107.02 521.375C1103.27 520.458 1099.52 520.125 1095.77 520.375C1092.02 520.625 1088.65 520.917 1085.65 521.25C1084.73 520.25 1083.65 519.792 1082.4 519.875C1081.15 519.875 1079.82 520.083 1078.4 520.5C1077.07 520.833 1075.73 521.208 1074.4 521.625C1073.07 521.958 1071.82 522.042 1070.65 521.875C1069.73 522.708 1068.52 523.292 1067.02 523.625C1065.52 523.875 1063.94 524.083 1062.27 524.25C1062.19 524.667 1062.27 524.958 1062.52 525.125C1062.77 525.292 1062.82 525.625 1062.65 526.125C1063.23 526.875 1064.02 527.417 1065.02 527.75C1066.02 528 1067.02 528.25 1068.02 528.5C1069.11 528.75 1070.07 529.125 1070.9 529.625C1071.73 530.042 1072.27 530.75 1072.52 531.75C1074.02 531.833 1075.32 532.25 1076.4 533C1077.48 533.667 1078.4 534.5 1079.15 535.5C1079.9 536.5 1080.44 537.583 1080.77 538.75C1081.11 539.833 1081.23 540.833 1081.15 541.75C1081.48 542.583 1081.82 542.917 1082.15 542.75C1082.57 542.583 1083.02 542.792 1083.52 543.375C1083.86 544.625 1084.61 545.958 1085.77 547.375C1087.02 548.708 1087.98 550.167 1088.65 551.75C1088.82 554.25 1088.94 556.5 1089.02 558.5C1089.19 560.5 1088.86 562.458 1088.02 564.375C1086.61 568.042 1084.57 571.333 1081.9 574.25C1079.23 577.167 1076.19 579.75 1072.77 582C1069.44 584.167 1065.9 586.083 1062.15 587.75C1058.4 589.333 1054.69 590.667 1051.02 591.75C1050.69 591.667 1050.27 591.667 1049.77 591.75C1049.36 591.833 1049.27 591.583 1049.52 591C1048.77 591.667 1047.9 592.083 1046.9 592.25C1045.98 592.417 1044.94 592.458 1043.77 592.375C1042.69 592.375 1041.57 592.333 1040.4 592.25C1039.32 592.167 1038.23 592.208 1037.15 592.375C1036.48 591.708 1035.86 591.042 1035.27 590.375C1034.77 589.708 1034.36 588.917 1034.02 588C1033.61 587.917 1033.4 587.667 1033.4 587.25C1033.48 586.75 1033.32 586.5 1032.9 586.5C1032.9 586.167 1032.94 585.917 1033.02 585.75C1033.11 585.583 1033.19 585.417 1033.27 585.25C1033.61 585 1033.73 584.833 1033.65 584.75C1033.65 584.583 1033.52 584.458 1033.27 584.375C1033.11 584.208 1032.9 584.042 1032.65 583.875C1032.48 583.708 1032.44 583.5 1032.52 583.25C1032.94 582.5 1033.07 581.625 1032.9 580.625C1032.82 579.542 1032.73 578.458 1032.65 577.375C1032.57 576.292 1032.65 575.292 1032.9 574.375C1033.15 573.375 1033.86 572.542 1035.02 571.875C1038.44 572.208 1041.65 572.042 1044.65 571.375C1047.73 570.708 1050.61 569.792 1053.27 568.625C1056.02 567.458 1058.61 566.208 1061.02 564.875C1063.52 563.458 1065.94 562.167 1068.27 561C1068.52 560.167 1068.9 559.458 1069.4 558.875C1069.98 558.292 1070.57 557.75 1071.15 557.25C1071.73 556.667 1072.27 556.083 1072.77 555.5C1073.27 554.833 1073.65 554.042 1073.9 553.125C1073.98 552.792 1073.98 552.542 1073.9 552.375C1073.82 552.208 1073.69 552.083 1073.52 552C1073.36 551.833 1073.19 551.667 1073.02 551.5C1072.86 551.333 1072.77 551.083 1072.77 550.75C1072.52 550.667 1072.27 550.583 1072.02 550.5C1071.86 550.417 1071.69 550.375 1071.52 550.375C1069.36 549.292 1067.07 548.375 1064.65 547.625C1062.23 546.875 1060.19 546.042 1058.52 545.125C1057.52 545.792 1056.52 545.958 1055.52 545.625C1054.52 545.292 1053.32 544.958 1051.9 544.625C1048.4 544.458 1045.07 544.125 1041.9 543.625C1038.82 543.125 1035.82 542.25 1032.9 541C1032.73 540.5 1032.52 540.083 1032.27 539.75C1032.02 539.333 1031.44 539.208 1030.52 539.375C1029.94 538.542 1029.32 537.792 1028.65 537.125C1028.07 536.375 1027.52 535.542 1027.02 534.625ZM1094.62 586.75C1094.38 586.833 1094.21 586.75 1094.12 586.5C1094.04 586.25 1094 586 1094 585.75C1094.08 585.5 1094.21 585.292 1094.38 585.125C1094.62 584.958 1094.92 584.958 1095.25 585.125C1094.17 583.792 1093.46 582.583 1093.12 581.5C1092.88 580.417 1092.33 579.083 1091.5 577.5C1091.75 577.25 1091.92 576.917 1092 576.5C1092.08 576 1092.21 575.542 1092.38 575.125C1092.46 574.708 1092.58 574.417 1092.75 574.25C1093 574 1093.29 574.042 1093.62 574.375C1093.46 573.458 1093.46 572.708 1093.62 572.125C1093.79 571.542 1093.96 571 1094.12 570.5C1094.38 570 1094.54 569.5 1094.62 569C1094.71 568.5 1094.58 567.917 1094.25 567.25C1095.83 565.083 1096.88 562.75 1097.38 560.25C1097.88 557.667 1098.17 555.333 1098.25 553.25C1099 552.5 1099.62 551.5 1100.12 550.25C1100.71 549 1101.12 547.708 1101.38 546.375C1101.62 545.042 1101.75 543.75 1101.75 542.5C1101.75 541.167 1101.58 540.125 1101.25 539.375C1101.33 539.042 1101.5 538.875 1101.75 538.875C1102.08 538.792 1102.46 538.792 1102.88 538.875C1103.46 535.542 1103.83 531.833 1104 527.75C1104.25 523.667 1104.67 519.75 1105.25 516C1105.92 512.167 1106.96 508.833 1108.38 506C1109.79 503.083 1112.04 501.208 1115.12 500.375C1115.71 502.458 1116.46 504.292 1117.38 505.875C1118.38 507.458 1119.42 509 1120.5 510.5C1121.67 512 1122.83 513.5 1124 515C1125.17 516.5 1126.25 518.167 1127.25 520C1127.17 521.917 1126.96 524.125 1126.62 526.625C1126.38 529.125 1126 531.667 1125.5 534.25C1125.08 536.833 1124.62 539.333 1124.12 541.75C1123.71 544.167 1123.29 546.208 1122.88 547.875C1122.96 548.292 1123.25 548.583 1123.75 548.75C1124.25 548.833 1124.33 549.292 1124 550.125C1126.42 549.542 1128.92 549 1131.5 548.5C1134.17 547.917 1136.75 547.375 1139.25 546.875C1141.83 546.292 1144.33 545.625 1146.75 544.875C1149.25 544.125 1151.58 543.208 1153.75 542.125C1154.25 538.125 1154.88 534.167 1155.62 530.25C1156.38 526.333 1156.46 522.375 1155.88 518.375C1156.38 517.958 1156.79 517.458 1157.12 516.875C1157.46 516.292 1157.96 515.917 1158.62 515.75C1158.12 513.833 1157.92 511.833 1158 509.75C1158.08 507.583 1158.42 505.583 1159 503.75C1159.67 501.917 1160.62 500.333 1161.88 499C1163.12 497.583 1164.67 496.667 1166.5 496.25C1167.58 497.833 1168.54 499.542 1169.38 501.375C1170.21 503.208 1171.04 505.083 1171.88 507C1172.71 508.833 1173.58 510.583 1174.5 512.25C1175.5 513.917 1176.75 515.333 1178.25 516.5C1178.5 519.417 1178.71 522.417 1178.88 525.5C1179.04 528.5 1179.17 531.625 1179.25 534.875C1178.5 538.625 1177.62 542.292 1176.62 545.875C1175.71 549.375 1175.04 553.125 1174.62 557.125C1173.96 557.875 1173.42 558.792 1173 559.875C1172.58 560.875 1172.17 561.917 1171.75 563C1171.42 564 1171 565 1170.5 566C1170 567 1169.38 567.833 1168.62 568.5C1168.96 569.667 1169 570.792 1168.75 571.875C1168.58 572.875 1168.88 574.083 1169.62 575.5C1169.79 578.083 1169.46 580.25 1168.62 582C1167.88 583.667 1166.79 585.125 1165.38 586.375C1164.04 587.542 1162.46 588.5 1160.62 589.25C1158.88 589.917 1157.12 590.542 1155.38 591.125C1154.54 590.625 1153.75 590.125 1153 589.625C1152.33 589.042 1151.5 588.625 1150.5 588.375L1151.12 587.25C1149.46 585.583 1148 583.833 1146.75 582C1145.58 580.083 1145.04 577.917 1145.12 575.5C1145.12 575.417 1145.21 574.875 1145.38 573.875C1145.54 572.792 1145.71 571.667 1145.88 570.5C1146.12 569.333 1146.33 568.25 1146.5 567.25C1146.75 566.167 1146.88 565.583 1146.88 565.5C1144.54 565.75 1142.12 566.292 1139.62 567.125C1137.12 567.958 1134.67 568.917 1132.25 570C1129.92 571 1127.71 572.083 1125.62 573.25C1123.62 574.333 1122 575.25 1120.75 576C1120.75 576.25 1120.54 576.958 1120.12 578.125C1119.71 579.292 1119.21 580.542 1118.62 581.875C1118.04 583.125 1117.38 584.25 1116.62 585.25C1115.96 586.25 1115.25 586.708 1114.5 586.625C1114.67 587.042 1114.83 587.375 1115 587.625C1115.17 587.792 1115.17 588.167 1115 588.75C1113.58 589.167 1112.29 589.708 1111.12 590.375C1110.04 591.042 1108.92 591.583 1107.75 592C1106.58 592.5 1105.29 592.708 1103.88 592.625C1102.54 592.625 1100.92 592.125 1099 591.125C1099 590.542 1098.75 590.042 1098.25 589.625C1097.75 589.125 1097.21 588.708 1096.62 588.375C1096.12 588.042 1095.67 587.75 1095.25 587.5C1094.83 587.25 1094.62 587 1094.62 586.75ZM1205.47 591.5C1201.81 592 1198.47 591.833 1195.47 591C1192.47 590.167 1189.77 588.875 1187.35 587.125C1185.02 585.375 1182.97 583.292 1181.22 580.875C1179.56 578.458 1178.18 575.875 1177.1 573.125C1176.35 567.458 1176.56 562.333 1177.72 557.75C1178.89 553.083 1180.6 548.792 1182.85 544.875C1185.1 540.958 1187.64 537.292 1190.47 533.875C1193.39 530.458 1196.18 527.167 1198.85 524C1199.43 524.25 1199.89 524.25 1200.22 524C1200.64 523.75 1200.97 523.417 1201.22 523C1201.56 522.583 1201.89 522.167 1202.22 521.75C1202.64 521.333 1203.1 521.042 1203.6 520.875C1203.93 520.125 1204.35 519.5 1204.85 519C1205.43 518.5 1206.02 518.042 1206.6 517.625C1207.27 517.125 1207.85 516.625 1208.35 516.125C1208.93 515.625 1209.43 515 1209.85 514.25C1210.68 514.083 1211.39 513.792 1211.97 513.375C1212.64 512.958 1213.22 512.5 1213.72 512C1214.31 511.5 1214.89 511.042 1215.47 510.625C1216.06 510.208 1216.77 509.875 1217.6 509.625V508C1219.43 507.167 1220.77 506.25 1221.6 505.25C1222.43 504.25 1223.43 502.958 1224.6 501.375C1225.52 501.292 1226.22 501.25 1226.72 501.25C1227.31 501.25 1228.18 501.167 1229.35 501C1230.1 499.583 1230.81 498.542 1231.47 497.875C1232.14 497.208 1233.1 496.458 1234.35 495.625C1235.6 496.292 1236.93 496.708 1238.35 496.875C1239.77 496.958 1241.06 497.583 1242.22 498.75C1242.31 499.75 1242.6 500.542 1243.1 501.125C1243.6 501.625 1244.14 502.125 1244.72 502.625C1245.31 503.042 1245.89 503.5 1246.47 504C1247.06 504.5 1247.43 505.208 1247.6 506.125C1248.02 506.125 1248.27 506.042 1248.35 505.875C1248.52 505.708 1248.81 505.667 1249.22 505.75C1249.39 506.417 1249.56 506.958 1249.72 507.375C1249.89 507.792 1250.06 508.167 1250.22 508.5C1250.47 508.833 1250.68 509.208 1250.85 509.625C1251.1 510.042 1251.31 510.542 1251.47 511.125C1251.06 512.125 1250.68 513.208 1250.35 514.375C1250.02 515.458 1249.35 516.208 1248.35 516.625C1248.35 517.292 1248.6 517.667 1249.1 517.75C1249.6 517.75 1249.89 518.042 1249.97 518.625C1250.06 519.375 1249.93 520 1249.6 520.5C1251.93 524.417 1254.06 528.542 1255.97 532.875C1257.89 537.125 1260.06 541.208 1262.47 545.125C1262.31 546.292 1262.35 547.458 1262.6 548.625C1262.93 549.708 1263.31 550.792 1263.72 551.875C1264.22 552.958 1264.68 554.042 1265.1 555.125C1265.52 556.208 1265.81 557.292 1265.97 558.375C1266.14 559.792 1266.14 561.333 1265.97 563C1265.81 564.583 1265.47 566.125 1264.97 567.625C1264.47 569.125 1263.81 570.542 1262.97 571.875C1262.14 573.125 1261.18 574.083 1260.1 574.75C1258.77 576.417 1257.1 577.792 1255.1 578.875C1253.1 579.875 1251.27 581.083 1249.6 582.5C1248.43 583.167 1247.18 583.667 1245.85 584C1244.52 584.25 1243.14 584.542 1241.72 584.875C1240.64 585.542 1239.35 586.208 1237.85 586.875C1236.35 587.458 1234.81 588 1233.22 588.5C1231.64 589 1230.06 589.417 1228.47 589.75C1226.89 590 1225.47 590.042 1224.22 589.875C1221.22 590.958 1218.31 591.708 1215.47 592.125C1212.64 592.542 1209.31 592.333 1205.47 591.5ZM1207.1 546C1206.27 547.917 1205.27 549.667 1204.1 551.25C1203.02 552.75 1201.93 554.292 1200.85 555.875C1199.77 557.458 1198.81 559.167 1197.97 561C1197.22 562.75 1196.81 564.833 1196.72 567.25C1198.39 568.667 1200.35 569.542 1202.6 569.875C1204.93 570.125 1207.31 570.167 1209.72 570C1212.14 569.75 1214.56 569.417 1216.97 569C1219.39 568.583 1221.56 568.375 1223.47 568.375C1223.47 567.625 1223.81 567.25 1224.47 567.25C1227.97 566.917 1231.22 565.958 1234.22 564.375C1237.22 562.708 1240.35 561.042 1243.6 559.375C1244.02 558.375 1244.56 557.5 1245.22 556.75C1245.89 556 1246.27 554.917 1246.35 553.5C1245.93 552.75 1245.64 552.125 1245.47 551.625C1245.39 551.125 1245.35 550.375 1245.35 549.375C1243.18 546.375 1241.31 543.125 1239.72 539.625C1238.14 536.042 1236.31 532.667 1234.22 529.5C1234.06 529.917 1233.72 530.333 1233.22 530.75C1232.72 531.167 1232.18 531.083 1231.6 530.5C1231.35 531.333 1230.97 531.917 1230.47 532.25C1229.97 532.5 1229.39 532.625 1228.72 532.625C1228.14 532.625 1227.52 532.5 1226.85 532.25C1226.27 532 1225.72 531.667 1225.22 531.25C1222.31 533.583 1219.39 535.833 1216.47 538C1213.64 540.167 1211.06 542.708 1208.72 545.625C1208.31 545.875 1208.06 545.958 1207.97 545.875C1207.89 545.792 1207.6 545.833 1207.1 546ZM1267.33 555.75C1267.41 555.417 1267.58 555.292 1267.83 555.375C1268.16 555.375 1268.45 555.333 1268.7 555.25C1268.03 554.583 1267.62 553.708 1267.45 552.625C1267.28 551.458 1266.87 550.5 1266.2 549.75C1266.37 549.333 1266.49 548.917 1266.58 548.5C1266.74 548.083 1267.12 547.917 1267.7 548C1267.45 546.167 1267.49 544.458 1267.83 542.875C1268.16 541.292 1268.66 539.792 1269.33 538.375C1270.08 536.958 1270.91 535.583 1271.83 534.25C1272.83 532.833 1273.78 531.417 1274.7 530C1275.45 529.833 1275.91 529.917 1276.08 530.25C1276.24 530.5 1276.53 530.417 1276.95 530C1278.28 529.083 1279.2 528.083 1279.7 527C1280.2 525.833 1280.45 524.583 1280.45 523.25C1281.2 521.083 1282.03 518.958 1282.95 516.875C1283.95 514.708 1285.08 512.708 1286.33 510.875C1287.58 509.042 1288.91 507.458 1290.33 506.125C1291.74 504.708 1293.28 503.625 1294.95 502.875C1296.12 501.875 1297.58 500.958 1299.33 500.125C1301.16 499.292 1303.08 498.667 1305.08 498.25C1307.16 497.75 1309.28 497.5 1311.45 497.5C1313.62 497.417 1315.62 497.625 1317.45 498.125C1317.87 498.292 1318.12 498.208 1318.2 497.875C1318.28 497.458 1318.49 497.25 1318.83 497.25C1322.99 497.75 1326.7 498.583 1329.95 499.75C1333.28 500.917 1336.12 502.542 1338.45 504.625C1340.03 507.125 1341.53 509.833 1342.95 512.75C1344.37 515.583 1345.45 518.583 1346.2 521.75C1347.03 524.833 1347.41 528.042 1347.33 531.375C1347.24 534.708 1346.53 538.042 1345.2 541.375C1342.28 545.042 1338.74 548 1334.58 550.25C1330.41 552.417 1325.91 554.25 1321.08 555.75C1316.33 557.167 1311.37 558.333 1306.2 559.25C1301.12 560.167 1296.16 561.167 1291.33 562.25C1291.41 564.5 1291.41 566.917 1291.33 569.5C1291.24 572 1290.95 574.542 1290.45 577.125C1290.03 579.625 1289.37 582.083 1288.45 584.5C1287.62 586.917 1286.45 589.167 1284.95 591.25C1283.28 591.167 1281.53 591.333 1279.7 591.75C1277.95 592.167 1276.37 592.583 1274.95 593C1274.28 592.583 1273.62 592.167 1272.95 591.75C1272.37 591.417 1271.62 591.208 1270.7 591.125C1270.95 590.125 1270.7 589.083 1269.95 588C1269.28 586.917 1268.58 585.875 1267.83 584.875C1267.16 583.792 1266.7 582.75 1266.45 581.75C1266.28 580.667 1266.78 579.708 1267.95 578.875C1267.28 578.292 1266.95 577.375 1266.95 576.125C1267.28 576.458 1267.7 576.625 1268.2 576.625C1268.03 575.125 1268.2 573.333 1268.7 571.25C1269.28 569.167 1269.74 567.125 1270.08 565.125C1270.49 563.042 1270.58 561.167 1270.33 559.5C1270.08 557.75 1269.08 556.5 1267.33 555.75ZM1299.83 526.5C1299.49 527.417 1299.2 528.25 1298.95 529C1298.78 529.667 1298.58 530.292 1298.33 530.875C1298.08 531.458 1297.78 532.042 1297.45 532.625C1297.2 533.208 1296.91 533.875 1296.58 534.625C1296.74 535.125 1297.08 535.5 1297.58 535.75C1298.08 536 1298.41 536.375 1298.58 536.875C1299.74 536.292 1300.91 535.875 1302.08 535.625C1303.24 535.292 1304.41 535.042 1305.58 534.875C1306.74 534.708 1307.91 534.5 1309.08 534.25C1310.24 534 1311.45 533.583 1312.7 533C1313.95 532.417 1315.24 531.958 1316.58 531.625C1317.99 531.208 1319.37 530.792 1320.7 530.375C1322.03 529.958 1323.33 529.5 1324.58 529C1325.83 528.417 1326.91 527.667 1327.83 526.75C1326.66 525.667 1324.91 524.708 1322.58 523.875C1320.24 523.042 1317.7 522.542 1314.95 522.375C1312.28 522.125 1309.58 522.292 1306.83 522.875C1304.16 523.458 1301.83 524.667 1299.83 526.5Z" fill="white"/>
</svg>
