<svg width="1920" height="1080" viewBox="0 0 1920 1080" fill="none" xmlns="http://www.w3.org/2000/svg">
<path d="M0 0H1920V1080H0V0Z" fill="#242424"/>
<path d="M747 530.125C744.583 528.292 742.583 526 741 523.25C739.5 520.5 738.292 517.583 737.375 514.5C736.542 511.417 735.958 508.25 735.625 505C735.375 501.667 735.292 498.5 735.375 495.5C736.125 493.25 737.042 491.208 738.125 489.375C739.208 487.458 740.417 485.667 741.75 484C743.083 482.25 744.458 480.625 745.875 479.125C747.375 477.542 748.833 475.958 750.25 474.375C750.75 474.375 751.208 474.5 751.625 474.75C751.958 473.833 752.458 473.042 753.125 472.375C753.792 471.708 754.5 471.125 755.25 470.625C756 470.042 756.75 469.5 757.5 469C758.25 468.417 758.875 467.75 759.375 467C761.458 466.5 763.292 465.792 764.875 464.875C766.542 463.958 768.125 462.958 769.625 461.875C771.125 460.792 772.667 459.792 774.25 458.875C775.833 457.958 777.667 457.25 779.75 456.75C780.5 455.917 781.417 455.208 782.5 454.625C783.667 454.042 784.792 453.5 785.875 453C787.042 452.5 788.125 451.958 789.125 451.375C790.208 450.792 791.083 450 791.75 449C792.25 449.667 792.958 449.917 793.875 449.75C794.792 449.5 795.625 449.25 796.375 449C796.875 448.917 797.292 449 797.625 449.25C797.958 449.5 798.25 449.792 798.5 450.125C798.833 450.375 799.083 450.542 799.25 450.625C799.5 450.708 799.75 450.458 800 449.875C800.667 449.958 800.833 450.25 800.5 450.75C800.25 451.25 800.083 451.583 800 451.75C800.833 451.583 801.5 451.75 802 452.25C802.583 452.667 803.458 452.958 804.625 453.125C805.042 453.542 805.167 453.875 805 454.125C804.833 454.375 804.708 454.792 804.625 455.375C807.625 456.292 809.542 457.75 810.375 459.75C811.208 461.667 811.292 463.708 810.625 465.875C809.958 467.958 808.708 469.917 806.875 471.75C805.125 473.5 803.167 474.667 801 475.25C798.417 475.917 796 476.583 793.75 477.25C791.583 477.917 789.458 478.667 787.375 479.5C785.375 480.333 783.458 481.333 781.625 482.5C779.875 483.583 778.333 484.875 777 486.375C774.667 487.042 772.542 487.958 770.625 489.125C768.792 490.292 767.042 491.583 765.375 493C763.792 494.417 762.25 495.917 760.75 497.5C759.25 499 757.75 500.5 756.25 502C756.25 503.417 756 504.5 755.5 505.25C755 506 754.458 506.75 753.875 507.5C754.042 509.083 754.375 510.458 754.875 511.625C755.458 512.708 756.042 513.833 756.625 515C763.292 517 770.333 518.25 777.75 518.75C785.25 519.167 792.667 519.417 800 519.5C800.75 520.5 801.583 521.458 802.5 522.375C803.5 523.208 804.375 524.083 805.125 525C805.958 525.917 806.583 527 807 528.25C807.5 529.417 807.625 530.833 807.375 532.5C805.958 533.917 804.417 535.292 802.75 536.625C801.083 537.875 799.417 539.125 797.75 540.375C797 540.458 796.083 540.458 795 540.375C794 540.292 792.917 540.25 791.75 540.25C790.667 540.25 789.542 540.333 788.375 540.5C787.292 540.583 786.25 540.833 785.25 541.25C780 541.083 774.625 540.458 769.125 539.375C763.625 538.208 758.542 536.833 753.875 535.25C752.958 534.167 752 533.167 751 532.25C750 531.25 748.667 530.542 747 530.125ZM837.35 541.5C833.683 542 830.35 541.833 827.35 541C824.35 540.167 821.642 538.875 819.225 537.125C816.892 535.375 814.85 533.292 813.1 530.875C811.433 528.458 810.058 525.875 808.975 523.125C808.225 517.458 808.433 512.333 809.6 507.75C810.767 503.083 812.475 498.792 814.725 494.875C816.975 490.958 819.517 487.292 822.35 483.875C825.267 480.458 828.058 477.167 830.725 474C831.308 474.25 831.767 474.25 832.1 474C832.517 473.75 832.85 473.417 833.1 473C833.433 472.583 833.767 472.167 834.1 471.75C834.517 471.333 834.975 471.042 835.475 470.875C835.808 470.125 836.225 469.5 836.725 469C837.308 468.5 837.892 468.042 838.475 467.625C839.142 467.125 839.725 466.625 840.225 466.125C840.808 465.625 841.308 465 841.725 464.25C842.558 464.083 843.267 463.792 843.85 463.375C844.517 462.958 845.1 462.5 845.6 462C846.183 461.5 846.767 461.042 847.35 460.625C847.933 460.208 848.642 459.875 849.475 459.625V458C851.308 457.167 852.642 456.25 853.475 455.25C854.308 454.25 855.308 452.958 856.475 451.375C857.392 451.292 858.1 451.25 858.6 451.25C859.183 451.25 860.058 451.167 861.225 451C861.975 449.583 862.683 448.542 863.35 447.875C864.017 447.208 864.975 446.458 866.225 445.625C867.475 446.292 868.808 446.708 870.225 446.875C871.642 446.958 872.933 447.583 874.1 448.75C874.183 449.75 874.475 450.542 874.975 451.125C875.475 451.625 876.017 452.125 876.6 452.625C877.183 453.042 877.767 453.5 878.35 454C878.933 454.5 879.308 455.208 879.475 456.125C879.892 456.125 880.142 456.042 880.225 455.875C880.392 455.708 880.683 455.667 881.1 455.75C881.267 456.417 881.433 456.958 881.6 457.375C881.767 457.792 881.933 458.167 882.1 458.5C882.35 458.833 882.558 459.208 882.725 459.625C882.975 460.042 883.183 460.542 883.35 461.125C882.933 462.125 882.558 463.208 882.225 464.375C881.892 465.458 881.225 466.208 880.225 466.625C880.225 467.292 880.475 467.667 880.975 467.75C881.475 467.75 881.767 468.042 881.85 468.625C881.933 469.375 881.808 470 881.475 470.5C883.808 474.417 885.933 478.542 887.85 482.875C889.767 487.125 891.933 491.208 894.35 495.125C894.183 496.292 894.225 497.458 894.475 498.625C894.808 499.708 895.183 500.792 895.6 501.875C896.1 502.958 896.558 504.042 896.975 505.125C897.392 506.208 897.683 507.292 897.85 508.375C898.017 509.792 898.017 511.333 897.85 513C897.683 514.583 897.35 516.125 896.85 517.625C896.35 519.125 895.683 520.542 894.85 521.875C894.017 523.125 893.058 524.083 891.975 524.75C890.642 526.417 888.975 527.792 886.975 528.875C884.975 529.875 883.142 531.083 881.475 532.5C880.308 533.167 879.058 533.667 877.725 534C876.392 534.25 875.017 534.542 873.6 534.875C872.517 535.542 871.225 536.208 869.725 536.875C868.225 537.458 866.683 538 865.1 538.5C863.517 539 861.933 539.417 860.35 539.75C858.767 540 857.35 540.042 856.1 539.875C853.1 540.958 850.183 541.708 847.35 542.125C844.517 542.542 841.183 542.333 837.35 541.5ZM838.975 496C838.142 497.917 837.142 499.667 835.975 501.25C834.892 502.75 833.808 504.292 832.725 505.875C831.642 507.458 830.683 509.167 829.85 511C829.1 512.75 828.683 514.833 828.6 517.25C830.267 518.667 832.225 519.542 834.475 519.875C836.808 520.125 839.183 520.167 841.6 520C844.017 519.75 846.433 519.417 848.85 519C851.267 518.583 853.433 518.375 855.35 518.375C855.35 517.625 855.683 517.25 856.35 517.25C859.85 516.917 863.1 515.958 866.1 514.375C869.1 512.708 872.225 511.042 875.475 509.375C875.892 508.375 876.433 507.5 877.1 506.75C877.767 506 878.142 504.917 878.225 503.5C877.808 502.75 877.517 502.125 877.35 501.625C877.267 501.125 877.225 500.375 877.225 499.375C875.058 496.375 873.183 493.125 871.6 489.625C870.017 486.042 868.183 482.667 866.1 479.5C865.933 479.917 865.6 480.333 865.1 480.75C864.6 481.167 864.058 481.083 863.475 480.5C863.225 481.333 862.85 481.917 862.35 482.25C861.85 482.5 861.267 482.625 860.6 482.625C860.017 482.625 859.392 482.5 858.725 482.25C858.142 482 857.6 481.667 857.1 481.25C854.183 483.583 851.267 485.833 848.35 488C845.517 490.167 842.933 492.708 840.6 495.625C840.183 495.875 839.933 495.958 839.85 495.875C839.767 495.792 839.475 495.833 838.975 496ZM901.575 515.625C899.075 514.208 897.158 512.208 895.825 509.625C894.492 507.042 893.742 504.583 893.575 502.25C893.825 500.25 894.367 498.708 895.2 497.625C895.95 496.458 896.867 495.542 897.95 494.875C899.033 494.125 900.158 493.583 901.325 493.25C902.492 492.833 903.617 492.5 904.7 492.25L906.575 492.875C906.992 493.292 907.408 493.667 907.825 494C908.325 494.333 908.783 494.667 909.2 495C910.033 494.667 910.533 494.167 910.7 493.5C910.95 492.833 911.2 492.167 911.45 491.5C911.7 490.583 911.992 489.667 912.325 488.75C912.658 487.833 913.075 486.917 913.575 486C913.492 485.25 913.533 484.583 913.7 484C913.867 483.417 914.033 482.917 914.2 482.5C913.7 482.083 913.325 481.875 913.075 481.875C912.908 481.792 912.575 481.667 912.075 481.5C911.825 481.5 911.575 481.5 911.325 481.5C911.075 481.417 910.783 481.333 910.45 481.25C909.2 480.333 908.367 479.583 907.95 479C907.617 478.333 907.242 477.667 906.825 477C906.408 476.333 906.033 475.75 905.7 475.25C905.367 474.75 904.992 474.292 904.575 473.875L903.075 472.875L903.825 471.375C903.992 471.208 904.075 471 904.075 470.75C904.075 470.417 903.908 469.958 903.575 469.375C903.325 468.292 903.283 467.5 903.45 467L903.7 465.5C904.533 464.417 904.992 463.792 905.075 463.625L906.325 462.375C908.242 461.875 910.2 461.333 912.2 460.75C914.2 460.083 916.158 459.417 918.075 458.75C919.992 458.083 921.95 457.417 923.95 456.75C925.95 456.083 927.95 455.5 929.95 455C930.617 454.417 931.325 454.083 932.075 454C932.908 453.833 933.658 453.708 934.325 453.625C934.908 453.625 935.45 453.583 935.95 453.5C936.45 453.417 936.825 453.208 937.075 452.875C938.492 452.375 939.867 451.958 941.2 451.625C943.7 450.958 946.992 450.167 951.075 449.25C955.158 448.333 959.742 447.667 964.825 447.25L967.45 447.125C967.95 447.208 968.45 447.25 968.95 447.25C969.45 447.167 969.95 447.125 970.45 447.125C974.783 447.125 977.658 448.458 979.075 451.125C979.908 451.542 980.658 452.083 981.325 452.75C981.992 453.333 982.617 453.917 983.2 454.5C983.617 454.917 983.992 455.292 984.325 455.625C984.658 455.875 984.95 456.083 985.2 456.25L986.2 457.25C987.117 459.25 987.283 461.208 986.7 463.125C986.2 464.125 985.658 464.708 985.075 464.875C984.492 465.042 983.908 465.208 983.325 465.375L981.7 466.25C980.617 466.167 979.783 466.125 979.2 466.125C978.7 466.125 978.117 466.125 977.45 466.125C974.95 466.125 972.033 466.292 968.7 466.625C965.45 466.875 962.117 467.292 958.7 467.875C955.283 468.375 951.95 469.042 948.7 469.875C945.45 470.625 942.617 471.458 940.2 472.375C939.533 472.875 938.658 473.333 937.575 473.75C937.325 473.833 936.95 474.042 936.45 474.375C936.533 475.042 936.533 475.708 936.45 476.375C936.367 476.958 936.242 477.542 936.075 478.125C935.992 478.542 935.908 479 935.825 479.5C935.825 479.917 935.783 480.375 935.7 480.875C933.95 482.958 933.117 485.417 933.2 488.25L932.575 489.5C932.242 489.833 931.95 490.333 931.7 491C931.533 491.583 931.533 492.208 931.7 492.875L932.2 494.375C933.867 494.208 935.492 494.042 937.075 493.875C938.742 493.625 940.492 493.375 942.325 493.125C944.658 492.708 946.992 492.375 949.325 492.125C951.742 491.792 954.242 491.625 956.825 491.625H961.7L960.575 492.75L961.95 492.875L961.2 494.875C961.783 495.125 962.2 495.333 962.45 495.5C962.783 495.583 963.075 495.708 963.325 495.875L964.2 497.125C964.617 497.375 964.992 497.792 965.325 498.375C965.658 498.875 965.867 499.583 965.95 500.5L965.575 501.75L959.7 509.25L958.95 510.25L957.7 509.875C956.117 509.792 954.617 509.958 953.2 510.375C952.533 510.542 951.825 510.75 951.075 511C950.325 511.167 949.575 511.25 948.825 511.25C946.825 511.583 945.158 511.875 943.825 512.125C942.492 512.292 941.158 512.458 939.825 512.625C937.992 512.958 936.2 513.292 934.45 513.625C932.783 513.875 931.2 514.292 929.7 514.875C928.783 514.958 928.242 515 928.075 515C927.908 514.917 927.742 514.875 927.575 514.875C926.742 514.875 925.908 515 925.075 515.25C924.242 515.5 923.45 515.75 922.7 516C922.2 516.417 921.867 516.875 921.7 517.375C921.533 517.792 921.367 518.25 921.2 518.75C921.033 519.333 920.783 519.917 920.45 520.5C920.2 521 919.867 521.542 919.45 522.125L919.575 524.375C918.825 524.542 918.45 524.667 918.45 524.75C918.45 524.75 918.408 524.75 918.325 524.75C918.325 525.417 918.2 526.042 917.95 526.625C917.783 527.208 917.617 527.75 917.45 528.25C917.283 528.583 917.158 528.875 917.075 529.125C916.992 529.375 916.95 529.625 916.95 529.875C917.783 531.375 917.992 533.083 917.575 535C917.242 536.583 916.617 538 915.7 539.25C914.783 540.417 913.7 541.333 912.45 542C911.117 542.167 910.117 542.125 909.45 541.875C908.867 541.625 908.242 541.375 907.575 541.125C907.158 540.958 906.742 540.833 906.325 540.75C905.908 540.583 905.492 540.458 905.075 540.375L903.575 539.125C903.325 538.625 903.033 538.167 902.7 537.75C902.367 537.25 902.033 536.75 901.7 536.25C901.283 535.667 900.867 535.083 900.45 534.5C900.033 533.917 899.658 533.25 899.325 532.5C898.742 529.583 898.617 527.167 898.95 525.25C899.367 523.25 899.908 521.292 900.575 519.375C900.742 518.708 900.908 518.083 901.075 517.5C901.242 516.917 901.408 516.292 901.575 515.625ZM968.8 515.625C966.3 514.208 964.383 512.208 963.05 509.625C961.717 507.042 960.967 504.583 960.8 502.25C961.05 500.25 961.592 498.708 962.425 497.625C963.175 496.458 964.092 495.542 965.175 494.875C966.258 494.125 967.383 493.583 968.55 493.25C969.717 492.833 970.842 492.5 971.925 492.25L973.8 492.875C974.217 493.292 974.633 493.667 975.05 494C975.55 494.333 976.008 494.667 976.425 495C977.258 494.667 977.758 494.167 977.925 493.5C978.175 492.833 978.425 492.167 978.675 491.5C978.925 490.583 979.217 489.667 979.55 488.75C979.883 487.833 980.3 486.917 980.8 486C980.717 485.25 980.758 484.583 980.925 484C981.092 483.417 981.258 482.917 981.425 482.5C980.925 482.083 980.55 481.875 980.3 481.875C980.133 481.792 979.8 481.667 979.3 481.5C979.05 481.5 978.8 481.5 978.55 481.5C978.3 481.417 978.008 481.333 977.675 481.25C976.425 480.333 975.592 479.583 975.175 479C974.842 478.333 974.467 477.667 974.05 477C973.633 476.333 973.258 475.75 972.925 475.25C972.592 474.75 972.217 474.292 971.8 473.875L970.3 472.875L971.05 471.375C971.217 471.208 971.3 471 971.3 470.75C971.3 470.417 971.133 469.958 970.8 469.375C970.55 468.292 970.508 467.5 970.675 467L970.925 465.5C971.758 464.417 972.217 463.792 972.3 463.625L973.55 462.375C975.467 461.875 977.425 461.333 979.425 460.75C981.425 460.083 983.383 459.417 985.3 458.75C987.217 458.083 989.175 457.417 991.175 456.75C993.175 456.083 995.175 455.5 997.175 455C997.842 454.417 998.55 454.083 999.3 454C1000.13 453.833 1000.88 453.708 1001.55 453.625C1002.13 453.625 1002.67 453.583 1003.17 453.5C1003.67 453.417 1004.05 453.208 1004.3 452.875C1005.72 452.375 1007.09 451.958 1008.42 451.625C1010.92 450.958 1014.22 450.167 1018.3 449.25C1022.38 448.333 1026.97 447.667 1032.05 447.25L1034.67 447.125C1035.17 447.208 1035.67 447.25 1036.17 447.25C1036.67 447.167 1037.17 447.125 1037.67 447.125C1042.01 447.125 1044.88 448.458 1046.3 451.125C1047.13 451.542 1047.88 452.083 1048.55 452.75C1049.22 453.333 1049.84 453.917 1050.42 454.5C1050.84 454.917 1051.22 455.292 1051.55 455.625C1051.88 455.875 1052.17 456.083 1052.42 456.25L1053.42 457.25C1054.34 459.25 1054.51 461.208 1053.92 463.125C1053.42 464.125 1052.88 464.708 1052.3 464.875C1051.72 465.042 1051.13 465.208 1050.55 465.375L1048.92 466.25C1047.84 466.167 1047.01 466.125 1046.42 466.125C1045.92 466.125 1045.34 466.125 1044.67 466.125C1042.17 466.125 1039.26 466.292 1035.92 466.625C1032.67 466.875 1029.34 467.292 1025.92 467.875C1022.51 468.375 1019.17 469.042 1015.92 469.875C1012.67 470.625 1009.84 471.458 1007.42 472.375C1006.76 472.875 1005.88 473.333 1004.8 473.75C1004.55 473.833 1004.17 474.042 1003.67 474.375C1003.76 475.042 1003.76 475.708 1003.67 476.375C1003.59 476.958 1003.47 477.542 1003.3 478.125C1003.22 478.542 1003.13 479 1003.05 479.5C1003.05 479.917 1003.01 480.375 1002.92 480.875C1001.17 482.958 1000.34 485.417 1000.42 488.25L999.8 489.5C999.467 489.833 999.175 490.333 998.925 491C998.758 491.583 998.758 492.208 998.925 492.875L999.425 494.375C1001.09 494.208 1002.72 494.042 1004.3 493.875C1005.97 493.625 1007.72 493.375 1009.55 493.125C1011.88 492.708 1014.22 492.375 1016.55 492.125C1018.97 491.792 1021.47 491.625 1024.05 491.625H1028.92L1027.8 492.75L1029.17 492.875L1028.42 494.875C1029.01 495.125 1029.42 495.333 1029.67 495.5C1030.01 495.583 1030.3 495.708 1030.55 495.875L1031.42 497.125C1031.84 497.375 1032.22 497.792 1032.55 498.375C1032.88 498.875 1033.09 499.583 1033.17 500.5L1032.8 501.75L1026.92 509.25L1026.17 510.25L1024.92 509.875C1023.34 509.792 1021.84 509.958 1020.42 510.375C1019.76 510.542 1019.05 510.75 1018.3 511C1017.55 511.167 1016.8 511.25 1016.05 511.25C1014.05 511.583 1012.38 511.875 1011.05 512.125C1009.72 512.292 1008.38 512.458 1007.05 512.625C1005.22 512.958 1003.42 513.292 1001.67 513.625C1000.01 513.875 998.425 514.292 996.925 514.875C996.008 514.958 995.467 515 995.3 515C995.133 514.917 994.967 514.875 994.8 514.875C993.967 514.875 993.133 515 992.3 515.25C991.467 515.5 990.675 515.75 989.925 516C989.425 516.417 989.092 516.875 988.925 517.375C988.758 517.792 988.592 518.25 988.425 518.75C988.258 519.333 988.008 519.917 987.675 520.5C987.425 521 987.092 521.542 986.675 522.125L986.8 524.375C986.05 524.542 985.675 524.667 985.675 524.75C985.675 524.75 985.633 524.75 985.55 524.75C985.55 525.417 985.425 526.042 985.175 526.625C985.008 527.208 984.842 527.75 984.675 528.25C984.508 528.583 984.383 528.875 984.3 529.125C984.217 529.375 984.175 529.625 984.175 529.875C985.008 531.375 985.217 533.083 984.8 535C984.467 536.583 983.842 538 982.925 539.25C982.008 540.417 980.925 541.333 979.675 542C978.342 542.167 977.342 542.125 976.675 541.875C976.092 541.625 975.467 541.375 974.8 541.125C974.383 540.958 973.967 540.833 973.55 540.75C973.133 540.583 972.717 540.458 972.3 540.375L970.8 539.125C970.55 538.625 970.258 538.167 969.925 537.75C969.592 537.25 969.258 536.75 968.925 536.25C968.508 535.667 968.092 535.083 967.675 534.5C967.258 533.917 966.883 533.25 966.55 532.5C965.967 529.583 965.842 527.167 966.175 525.25C966.592 523.25 967.133 521.292 967.8 519.375C967.967 518.708 968.133 518.083 968.3 517.5C968.467 516.917 968.633 516.292 968.8 515.625ZM1037.52 536.75C1036.86 536.083 1036.36 535.292 1036.02 534.375C1035.77 533.458 1035.11 532.708 1034.02 532.125C1033.86 530.875 1033.61 529.458 1033.27 527.875C1033.02 526.208 1032.73 524.542 1032.4 522.875C1032.15 521.125 1031.94 519.417 1031.77 517.75C1031.69 516 1031.77 514.417 1032.02 513C1032.19 512.25 1032.44 511.542 1032.77 510.875C1033.19 510.208 1033.57 509.583 1033.9 509C1034.32 508.333 1034.61 507.667 1034.77 507C1035.02 506.333 1035.07 505.667 1034.9 505C1035.4 504.917 1035.69 504.667 1035.77 504.25C1035.94 503.75 1036.36 503.583 1037.02 503.75C1037.61 501.917 1038.23 500.208 1038.9 498.625C1039.57 497.042 1040.27 495.5 1041.02 494C1041.77 492.5 1042.52 491 1043.27 489.5C1044.11 487.917 1044.86 486.167 1045.52 484.25C1044.11 482.917 1043.07 481.5 1042.4 480C1041.82 478.417 1041.36 476.833 1041.02 475.25C1040.69 473.667 1040.44 472.083 1040.27 470.5C1040.11 468.833 1039.77 467.167 1039.27 465.5C1040.27 464 1041.48 462.792 1042.9 461.875C1044.32 460.875 1045.86 460.083 1047.52 459.5C1049.27 458.833 1051.15 458.333 1053.15 458C1055.15 457.583 1057.27 457.125 1059.52 456.625C1063.52 455.375 1067.11 454.417 1070.27 453.75C1073.44 453 1076.52 452.417 1079.52 452C1082.52 451.5 1085.65 451.083 1088.9 450.75C1092.15 450.333 1095.9 449.75 1100.15 449C1100.23 449.25 1100.36 449.375 1100.52 449.375C1100.77 449.375 1101.07 449.375 1101.4 449.375C1101.65 449.958 1102.11 450.25 1102.77 450.25C1102.77 450 1102.73 449.792 1102.65 449.625C1102.65 449.375 1102.65 449.167 1102.65 449C1102.82 449 1103.02 449.042 1103.27 449.125C1103.61 449.208 1103.86 449.292 1104.02 449.375C1104.27 449.458 1104.48 449.458 1104.65 449.375C1104.82 449.208 1104.86 448.917 1104.77 448.5C1105.77 450.25 1107.07 451.708 1108.65 452.875C1110.23 453.958 1111.98 454.917 1113.9 455.75C1113.98 456.5 1113.98 457.042 1113.9 457.375C1113.9 457.708 1113.86 458.042 1113.77 458.375C1113.69 458.625 1113.65 458.958 1113.65 459.375C1113.65 459.708 1113.73 460.208 1113.9 460.875C1112.57 463.125 1111.02 464.875 1109.27 466.125C1107.61 467.375 1105.82 468.333 1103.9 469C1101.98 469.667 1099.94 470.167 1097.77 470.5C1095.69 470.833 1093.52 471.208 1091.27 471.625C1089.11 471.958 1086.9 472.458 1084.65 473.125C1082.4 473.792 1080.19 474.792 1078.02 476.125C1077.36 475.875 1076.73 475.792 1076.15 475.875C1075.65 475.875 1075.11 475.958 1074.52 476.125C1073.94 476.292 1073.27 476.458 1072.52 476.625C1071.86 476.792 1071.02 476.792 1070.02 476.625C1069.36 477.208 1068.57 477.625 1067.65 477.875C1066.82 478.125 1065.94 478.375 1065.02 478.625C1065.44 479.542 1065.61 480.458 1065.52 481.375C1065.52 482.292 1065.65 483.083 1065.9 483.75C1069.4 484.083 1073.27 484.083 1077.52 483.75C1081.77 483.333 1085.94 483.042 1090.02 482.875C1090.11 483.292 1090.07 483.583 1089.9 483.75C1089.73 483.917 1089.65 484.208 1089.65 484.625C1090.4 485.125 1091.11 485.75 1091.77 486.5C1092.44 487.25 1093.11 488 1093.77 488.75C1094.52 489.417 1095.27 490 1096.02 490.5C1096.77 490.917 1097.65 491.083 1098.65 491C1099.07 491.833 1099.36 492.708 1099.52 493.625C1099.69 494.542 1099.57 495.5 1099.15 496.5C1097.48 497.583 1095.86 498.708 1094.27 499.875C1092.69 500.958 1091.02 501.958 1089.27 502.875C1087.61 503.792 1085.77 504.542 1083.77 505.125C1081.77 505.708 1079.61 505.958 1077.27 505.875C1076.86 505.875 1076.48 505.875 1076.15 505.875C1075.9 505.875 1075.57 505.708 1075.15 505.375C1074.32 505.792 1073.19 505.958 1071.77 505.875C1070.44 505.708 1069.32 505.833 1068.4 506.25C1067.23 505.833 1065.86 505.625 1064.27 505.625C1062.77 505.625 1061.44 505.417 1060.27 505C1058.77 507.167 1057.36 509.458 1056.02 511.875C1054.69 514.208 1053.52 516.708 1052.52 519.375C1055.94 519.875 1058.77 520.083 1061.02 520C1063.27 519.917 1065.4 519.75 1067.4 519.5C1069.4 519.25 1071.44 519 1073.52 518.75C1075.69 518.5 1078.32 518.417 1081.4 518.5C1083.48 517.5 1085.86 516.833 1088.52 516.5C1091.27 516.083 1093.82 515.5 1096.15 514.75C1096.98 515 1097.69 515.5 1098.27 516.25C1098.86 516.917 1099.4 517.625 1099.9 518.375C1100.48 519.042 1101.07 519.625 1101.65 520.125C1102.23 520.625 1102.98 520.792 1103.9 520.625C1104.32 521.042 1104.57 521.542 1104.65 522.125C1104.82 522.708 1104.94 523.25 1105.02 523.75C1105.19 524.25 1105.4 524.667 1105.65 525C1105.9 525.25 1106.36 525.333 1107.02 525.25C1105.44 528.5 1103.65 531 1101.65 532.75C1099.73 534.5 1097.52 535.875 1095.02 536.875C1092.61 537.792 1089.86 538.5 1086.77 539C1083.77 539.417 1080.4 539.958 1076.65 540.625C1075.73 540.792 1074.94 540.792 1074.27 540.625C1073.69 540.375 1073.07 540.25 1072.4 540.25C1070.07 540.667 1067.27 541.083 1064.02 541.5C1060.86 541.917 1057.65 542.083 1054.4 542C1051.15 541.917 1048.02 541.5 1045.02 540.75C1042.02 540 1039.52 538.667 1037.52 536.75ZM1111.38 536.75C1110.71 536.083 1110.21 535.292 1109.88 534.375C1109.62 533.458 1108.96 532.708 1107.88 532.125C1107.71 530.875 1107.46 529.458 1107.12 527.875C1106.88 526.208 1106.58 524.542 1106.25 522.875C1106 521.125 1105.79 519.417 1105.62 517.75C1105.54 516 1105.62 514.417 1105.88 513C1106.04 512.25 1106.29 511.542 1106.62 510.875C1107.04 510.208 1107.42 509.583 1107.75 509C1108.17 508.333 1108.46 507.667 1108.62 507C1108.88 506.333 1108.92 505.667 1108.75 505C1109.25 504.917 1109.54 504.667 1109.62 504.25C1109.79 503.75 1110.21 503.583 1110.88 503.75C1111.46 501.917 1112.08 500.208 1112.75 498.625C1113.42 497.042 1114.12 495.5 1114.88 494C1115.62 492.5 1116.38 491 1117.12 489.5C1117.96 487.917 1118.71 486.167 1119.38 484.25C1117.96 482.917 1116.92 481.5 1116.25 480C1115.67 478.417 1115.21 476.833 1114.88 475.25C1114.54 473.667 1114.29 472.083 1114.12 470.5C1113.96 468.833 1113.62 467.167 1113.12 465.5C1114.12 464 1115.33 462.792 1116.75 461.875C1118.17 460.875 1119.71 460.083 1121.38 459.5C1123.12 458.833 1125 458.333 1127 458C1129 457.583 1131.12 457.125 1133.38 456.625C1137.38 455.375 1140.96 454.417 1144.12 453.75C1147.29 453 1150.38 452.417 1153.38 452C1156.38 451.5 1159.5 451.083 1162.75 450.75C1166 450.333 1169.75 449.75 1174 449C1174.08 449.25 1174.21 449.375 1174.38 449.375C1174.62 449.375 1174.92 449.375 1175.25 449.375C1175.5 449.958 1175.96 450.25 1176.62 450.25C1176.62 450 1176.58 449.792 1176.5 449.625C1176.5 449.375 1176.5 449.167 1176.5 449C1176.67 449 1176.88 449.042 1177.12 449.125C1177.46 449.208 1177.71 449.292 1177.88 449.375C1178.12 449.458 1178.33 449.458 1178.5 449.375C1178.67 449.208 1178.71 448.917 1178.62 448.5C1179.62 450.25 1180.92 451.708 1182.5 452.875C1184.08 453.958 1185.83 454.917 1187.75 455.75C1187.83 456.5 1187.83 457.042 1187.75 457.375C1187.75 457.708 1187.71 458.042 1187.62 458.375C1187.54 458.625 1187.5 458.958 1187.5 459.375C1187.5 459.708 1187.58 460.208 1187.75 460.875C1186.42 463.125 1184.88 464.875 1183.12 466.125C1181.46 467.375 1179.67 468.333 1177.75 469C1175.83 469.667 1173.79 470.167 1171.62 470.5C1169.54 470.833 1167.38 471.208 1165.12 471.625C1162.96 471.958 1160.75 472.458 1158.5 473.125C1156.25 473.792 1154.04 474.792 1151.88 476.125C1151.21 475.875 1150.58 475.792 1150 475.875C1149.5 475.875 1148.96 475.958 1148.38 476.125C1147.79 476.292 1147.12 476.458 1146.38 476.625C1145.71 476.792 1144.88 476.792 1143.88 476.625C1143.21 477.208 1142.42 477.625 1141.5 477.875C1140.67 478.125 1139.79 478.375 1138.88 478.625C1139.29 479.542 1139.46 480.458 1139.38 481.375C1139.38 482.292 1139.5 483.083 1139.75 483.75C1143.25 484.083 1147.12 484.083 1151.38 483.75C1155.62 483.333 1159.79 483.042 1163.88 482.875C1163.96 483.292 1163.92 483.583 1163.75 483.75C1163.58 483.917 1163.5 484.208 1163.5 484.625C1164.25 485.125 1164.96 485.75 1165.62 486.5C1166.29 487.25 1166.96 488 1167.62 488.75C1168.38 489.417 1169.12 490 1169.88 490.5C1170.62 490.917 1171.5 491.083 1172.5 491C1172.92 491.833 1173.21 492.708 1173.38 493.625C1173.54 494.542 1173.42 495.5 1173 496.5C1171.33 497.583 1169.71 498.708 1168.12 499.875C1166.54 500.958 1164.88 501.958 1163.12 502.875C1161.46 503.792 1159.62 504.542 1157.62 505.125C1155.62 505.708 1153.46 505.958 1151.12 505.875C1150.71 505.875 1150.33 505.875 1150 505.875C1149.75 505.875 1149.42 505.708 1149 505.375C1148.17 505.792 1147.04 505.958 1145.62 505.875C1144.29 505.708 1143.17 505.833 1142.25 506.25C1141.08 505.833 1139.71 505.625 1138.12 505.625C1136.62 505.625 1135.29 505.417 1134.12 505C1132.62 507.167 1131.21 509.458 1129.88 511.875C1128.54 514.208 1127.38 516.708 1126.38 519.375C1129.79 519.875 1132.62 520.083 1134.88 520C1137.12 519.917 1139.25 519.75 1141.25 519.5C1143.25 519.25 1145.29 519 1147.38 518.75C1149.54 518.5 1152.17 518.417 1155.25 518.5C1157.33 517.5 1159.71 516.833 1162.38 516.5C1165.12 516.083 1167.67 515.5 1170 514.75C1170.83 515 1171.54 515.5 1172.12 516.25C1172.71 516.917 1173.25 517.625 1173.75 518.375C1174.33 519.042 1174.92 519.625 1175.5 520.125C1176.08 520.625 1176.83 520.792 1177.75 520.625C1178.17 521.042 1178.42 521.542 1178.5 522.125C1178.67 522.708 1178.79 523.25 1178.88 523.75C1179.04 524.25 1179.25 524.667 1179.5 525C1179.75 525.25 1180.21 525.333 1180.88 525.25C1179.29 528.5 1177.5 531 1175.5 532.75C1173.58 534.5 1171.38 535.875 1168.88 536.875C1166.46 537.792 1163.71 538.5 1160.62 539C1157.62 539.417 1154.25 539.958 1150.5 540.625C1149.58 540.792 1148.79 540.792 1148.12 540.625C1147.54 540.375 1146.92 540.25 1146.25 540.25C1143.92 540.667 1141.12 541.083 1137.88 541.5C1134.71 541.917 1131.5 542.083 1128.25 542C1125 541.917 1121.88 541.5 1118.88 540.75C1115.88 540 1113.38 538.667 1111.38 536.75ZM695.4 642.375C692.983 641.792 691.108 640.833 689.775 639.5C688.525 638.083 687.567 636.458 686.9 634.625C686.317 632.708 685.9 630.625 685.65 628.375C685.483 626.125 685.275 623.792 685.025 621.375C685.358 620.292 685.775 619.375 686.275 618.625C686.858 617.875 687.108 616.833 687.025 615.5C687.942 612.833 688.775 610.25 689.525 607.75C690.275 605.25 690.775 602.667 691.025 600C691.525 599.25 692.025 598.75 692.525 598.5C693.192 593.75 693.275 588.875 692.775 583.875C692.275 578.875 691.442 574.25 690.275 570C690.358 569.083 690.483 568.417 690.65 568C690.817 567.5 690.817 567.083 690.65 566.75C690.483 566 690.733 565.625 691.4 565.625C692.067 565.625 692.733 565.625 693.4 565.625C693.4 564.125 693.108 562.667 692.525 561.25C692.025 559.75 691.525 558.042 691.025 556.125C691.692 554.625 692.15 553.167 692.4 551.75C692.65 550.333 693.108 549.042 693.775 547.875C696.442 548.708 699.067 549.667 701.65 550.75C704.233 551.833 706.775 552.917 709.275 554C711.775 555 714.233 556 716.65 557C719.067 557.917 721.442 558.667 723.775 559.25C727.358 561.833 731.025 564.417 734.775 567C738.608 569.5 742.067 572.292 745.15 575.375C748.317 578.375 750.942 581.833 753.025 585.75C755.108 589.667 756.317 594.292 756.65 599.625C756.483 600.125 756.358 600.542 756.275 600.875C756.192 601.208 756.108 601.542 756.025 601.875C755.942 602.208 755.9 602.583 755.9 603C755.9 603.417 755.9 604 755.9 604.75C752.9 610 749.108 614.417 744.525 618C739.942 621.583 734.942 624.75 729.525 627.5C724.108 630.25 718.442 632.792 712.525 635.125C706.692 637.375 700.983 639.792 695.4 642.375ZM707.65 571.5C706.9 571.5 706.358 571.667 706.025 572C707.025 575.75 707.775 579.292 708.275 582.625C708.775 585.958 709.025 589.292 709.025 592.625C709.108 595.958 708.942 599.375 708.525 602.875C708.108 606.375 707.525 610.167 706.775 614.25C707.858 614.167 708.817 613.958 709.65 613.625C710.483 613.292 711.317 612.917 712.15 612.5C713.067 612.083 713.983 611.708 714.9 611.375C715.9 611.042 717.025 610.833 718.275 610.75C718.608 610.083 719.025 609.583 719.525 609.25C720.108 608.833 720.608 608.417 721.025 608C723.108 607.167 725.192 606.292 727.275 605.375C729.358 604.458 731.275 603.417 733.025 602.25C734.775 601.083 736.358 599.75 737.775 598.25C739.192 596.75 740.358 594.958 741.275 592.875C740.608 591.625 739.775 590.583 738.775 589.75C737.858 588.833 736.858 587.958 735.775 587.125C734.775 586.208 733.775 585.292 732.775 584.375C731.858 583.375 731.108 582.25 730.525 581C729.192 580.833 728.025 580.5 727.025 580C726.025 579.417 725.067 578.875 724.15 578.375C723.233 577.792 722.233 577.25 721.15 576.75C720.15 576.25 718.942 575.958 717.525 575.875C715.358 574.708 713.4 573.917 711.65 573.5C709.9 573 708.567 572.333 707.65 571.5ZM757.875 636.75C757.208 636.083 756.708 635.292 756.375 634.375C756.125 633.458 755.458 632.708 754.375 632.125C754.208 630.875 753.958 629.458 753.625 627.875C753.375 626.208 753.083 624.542 752.75 622.875C752.5 621.125 752.292 619.417 752.125 617.75C752.042 616 752.125 614.417 752.375 613C752.542 612.25 752.792 611.542 753.125 610.875C753.542 610.208 753.917 609.583 754.25 609C754.667 608.333 754.958 607.667 755.125 607C755.375 606.333 755.417 605.667 755.25 605C755.75 604.917 756.042 604.667 756.125 604.25C756.292 603.75 756.708 603.583 757.375 603.75C757.958 601.917 758.583 600.208 759.25 598.625C759.917 597.042 760.625 595.5 761.375 594C762.125 592.5 762.875 591 763.625 589.5C764.458 587.917 765.208 586.167 765.875 584.25C764.458 582.917 763.417 581.5 762.75 580C762.167 578.417 761.708 576.833 761.375 575.25C761.042 573.667 760.792 572.083 760.625 570.5C760.458 568.833 760.125 567.167 759.625 565.5C760.625 564 761.833 562.792 763.25 561.875C764.667 560.875 766.208 560.083 767.875 559.5C769.625 558.833 771.5 558.333 773.5 558C775.5 557.583 777.625 557.125 779.875 556.625C783.875 555.375 787.458 554.417 790.625 553.75C793.792 553 796.875 552.417 799.875 552C802.875 551.5 806 551.083 809.25 550.75C812.5 550.333 816.25 549.75 820.5 549C820.583 549.25 820.708 549.375 820.875 549.375C821.125 549.375 821.417 549.375 821.75 549.375C822 549.958 822.458 550.25 823.125 550.25C823.125 550 823.083 549.792 823 549.625C823 549.375 823 549.167 823 549C823.167 549 823.375 549.042 823.625 549.125C823.958 549.208 824.208 549.292 824.375 549.375C824.625 549.458 824.833 549.458 825 549.375C825.167 549.208 825.208 548.917 825.125 548.5C826.125 550.25 827.417 551.708 829 552.875C830.583 553.958 832.333 554.917 834.25 555.75C834.333 556.5 834.333 557.042 834.25 557.375C834.25 557.708 834.208 558.042 834.125 558.375C834.042 558.625 834 558.958 834 559.375C834 559.708 834.083 560.208 834.25 560.875C832.917 563.125 831.375 564.875 829.625 566.125C827.958 567.375 826.167 568.333 824.25 569C822.333 569.667 820.292 570.167 818.125 570.5C816.042 570.833 813.875 571.208 811.625 571.625C809.458 571.958 807.25 572.458 805 573.125C802.75 573.792 800.542 574.792 798.375 576.125C797.708 575.875 797.083 575.792 796.5 575.875C796 575.875 795.458 575.958 794.875 576.125C794.292 576.292 793.625 576.458 792.875 576.625C792.208 576.792 791.375 576.792 790.375 576.625C789.708 577.208 788.917 577.625 788 577.875C787.167 578.125 786.292 578.375 785.375 578.625C785.792 579.542 785.958 580.458 785.875 581.375C785.875 582.292 786 583.083 786.25 583.75C789.75 584.083 793.625 584.083 797.875 583.75C802.125 583.333 806.292 583.042 810.375 582.875C810.458 583.292 810.417 583.583 810.25 583.75C810.083 583.917 810 584.208 810 584.625C810.75 585.125 811.458 585.75 812.125 586.5C812.792 587.25 813.458 588 814.125 588.75C814.875 589.417 815.625 590 816.375 590.5C817.125 590.917 818 591.083 819 591C819.417 591.833 819.708 592.708 819.875 593.625C820.042 594.542 819.917 595.5 819.5 596.5C817.833 597.583 816.208 598.708 814.625 599.875C813.042 600.958 811.375 601.958 809.625 602.875C807.958 603.792 806.125 604.542 804.125 605.125C802.125 605.708 799.958 605.958 797.625 605.875C797.208 605.875 796.833 605.875 796.5 605.875C796.25 605.875 795.917 605.708 795.5 605.375C794.667 605.792 793.542 605.958 792.125 605.875C790.792 605.708 789.667 605.833 788.75 606.25C787.583 605.833 786.208 605.625 784.625 605.625C783.125 605.625 781.792 605.417 780.625 605C779.125 607.167 777.708 609.458 776.375 611.875C775.042 614.208 773.875 616.708 772.875 619.375C776.292 619.875 779.125 620.083 781.375 620C783.625 619.917 785.75 619.75 787.75 619.5C789.75 619.25 791.792 619 793.875 618.75C796.042 618.5 798.667 618.417 801.75 618.5C803.833 617.5 806.208 616.833 808.875 616.5C811.625 616.083 814.167 615.5 816.5 614.75C817.333 615 818.042 615.5 818.625 616.25C819.208 616.917 819.75 617.625 820.25 618.375C820.833 619.042 821.417 619.625 822 620.125C822.583 620.625 823.333 620.792 824.25 620.625C824.667 621.042 824.917 621.542 825 622.125C825.167 622.708 825.292 623.25 825.375 623.75C825.542 624.25 825.75 624.667 826 625C826.25 625.25 826.708 625.333 827.375 625.25C825.792 628.5 824 631 822 632.75C820.083 634.5 817.875 635.875 815.375 636.875C812.958 637.792 810.208 638.5 807.125 639C804.125 639.417 800.75 639.958 797 640.625C796.083 640.792 795.292 640.792 794.625 640.625C794.042 640.375 793.417 640.25 792.75 640.25C790.417 640.667 787.625 641.083 784.375 641.5C781.208 641.917 778 642.083 774.75 642C771.5 641.917 768.375 641.5 765.375 640.75C762.375 640 759.875 638.667 757.875 636.75ZM831.85 636.375C831.517 636.042 831.225 635.667 830.975 635.25C830.725 634.75 830.517 634.125 830.35 633.375C829.183 631.958 828.267 630.333 827.6 628.5C826.933 626.667 826.475 624.792 826.225 622.875C825.975 620.875 825.933 618.875 826.1 616.875C826.267 614.875 826.558 613 826.975 611.25C827.225 610.417 827.433 609.542 827.6 608.625C828.017 607.042 828.433 605.5 828.85 604C829.267 602.417 829.892 601.125 830.725 600.125C830.392 599.208 830.433 598.208 830.85 597.125C831.267 596.042 831.683 595.042 832.1 594.125C832.267 593.875 832.392 593.667 832.475 593.5C832.558 593.25 832.642 593.042 832.725 592.875C833.725 589.958 834.683 587.167 835.6 584.5C836.6 581.75 837.558 579.125 838.475 576.625C840.142 572.042 841.725 567.542 843.225 563.125C844.808 558.708 846.225 554 847.475 549C848.142 548.5 848.725 548.167 849.225 548C849.392 547.917 849.6 547.833 849.85 547.75C850.1 547.667 850.392 547.625 850.725 547.625C852.475 548.542 854.517 549.417 856.85 550.25C859.267 551 861.308 551.375 862.975 551.375L865.1 553.25C866.183 554.5 867.1 555.833 867.85 557.25C868.683 558.583 868.933 560.333 868.6 562.5C868.1 563.25 867.683 563.708 867.35 563.875C866.85 565.792 866.308 567.5 865.725 569C865.142 570.417 864.558 571.792 863.975 573.125C863.308 574.625 862.683 576.125 862.1 577.625C861.517 579.125 861.017 580.958 860.6 583.125C860.1 583.708 859.767 584.208 859.6 584.625C859.517 585.042 859.392 585.458 859.225 585.875C859.058 586.375 858.85 586.917 858.6 587.5C858.35 588 857.975 588.458 857.475 588.875C857.142 591.458 856.642 593.583 855.975 595.25C855.308 596.833 854.642 598.417 853.975 600C852.808 602.917 851.725 605.833 850.725 608.75C849.725 611.583 849.142 614.833 848.975 618.5C849.975 618.25 850.892 618.125 851.725 618.125C852.808 618.125 853.85 618.292 854.85 618.625C857.85 617.125 861.1 616.208 864.6 615.875C868.183 615.542 871.725 615.333 875.225 615.25C878.142 615.25 880.85 615.125 883.35 614.875C884.183 615.458 884.725 615.792 884.975 615.875C885.225 615.875 885.642 615.875 886.225 615.875C886.475 615.875 886.725 615.875 886.975 615.875C887.225 615.875 887.558 615.917 887.975 616C889.142 617.167 890.267 618 891.35 618.5C892.433 618.917 893.6 619.333 894.85 619.75C895.933 620.167 896.975 620.625 897.975 621.125C899.058 621.542 900.1 622.125 901.1 622.875L902.225 629.25C902.892 630.167 903.183 630.792 903.1 631.125C903.1 631.792 902.933 632.375 902.6 632.875L902.85 634.5C901.267 634.833 900.225 635.208 899.725 635.625C899.225 635.958 898.683 636.417 898.1 637C897.183 637.083 896.308 637.125 895.475 637.125C893.808 637.125 892.1 637.375 890.35 637.875C887.85 636.958 885.1 636.5 882.1 636.5C880.933 636.5 879.725 636.542 878.475 636.625C877.308 636.708 876.142 636.833 874.975 637C873.725 637.167 872.475 637.333 871.225 637.5C869.975 637.583 868.725 637.625 867.475 637.625C866.475 637.792 865.767 637.917 865.35 638C864.933 638.083 864.517 638.208 864.1 638.375C861.267 639.292 858.183 640.208 854.85 641.125C851.6 642.042 848.308 642.5 844.975 642.5C840.058 642.5 836.1 641.25 833.1 638.75C832.767 638 832.517 637.5 832.35 637.25C832.183 637 832.017 636.708 831.85 636.375ZM901.45 642.5C900.283 641.75 899.367 640.792 898.7 639.625C897.95 638.458 897.367 637.208 896.95 635.875C896.45 634.542 896.075 633.167 895.825 631.75C895.492 630.25 895.158 628.833 894.825 627.5C894.825 626.333 895.075 625.5 895.575 625C896.075 624.417 896.617 623.875 897.2 623.375C899.2 623.292 900.992 623.125 902.575 622.875C904.158 622.625 905.7 622.375 907.2 622.125C908.7 621.875 910.2 621.667 911.7 621.5C913.2 621.25 914.825 621.125 916.575 621.125C917.825 618.542 918.992 616.083 920.075 613.75C921.158 611.333 922.2 609.042 923.2 606.875C923.7 604.792 924.325 602.875 925.075 601.125C925.908 599.292 926.7 597.583 927.45 596C928.2 594.333 928.867 592.708 929.45 591.125C930.033 589.458 930.408 587.708 930.575 585.875C931.575 582.958 932.45 580.292 933.2 577.875C934.033 575.375 934.658 572.417 935.075 569C931.908 569.5 929.367 570 927.45 570.5C925.533 570.917 924.158 571.333 923.325 571.75C921.658 571.667 920.325 571.333 919.325 570.75C918.408 570.167 917.658 569.458 917.075 568.625C916.492 567.792 915.992 566.833 915.575 565.75C915.158 564.667 914.658 563.542 914.075 562.375C914.408 561.625 914.492 560.542 914.325 559.125C914.158 557.625 913.658 556.542 912.825 555.875C913.492 555.708 913.992 555.167 914.325 554.25C914.658 553.25 914.7 552.5 914.45 552C915.867 551.583 917.367 551.333 918.95 551.25C920.533 551.083 922.075 550.958 923.575 550.875C925.158 550.708 926.658 550.542 928.075 550.375C929.492 550.125 930.7 549.667 931.7 549C936.033 548.833 940.533 548.667 945.2 548.5C949.95 548.333 954.325 548.125 958.325 547.875C959.825 548.375 961.533 548.625 963.45 548.625C965.45 548.625 967.408 548.75 969.325 549C971.325 549.25 973.075 549.792 974.575 550.625C976.158 551.458 977.242 552.917 977.825 555C979.075 555.167 979.992 555.5 980.575 556C981.242 556.5 981.658 557.125 981.825 557.875C981.992 558.542 982.033 559.333 981.95 560.25C981.95 561.083 981.95 561.917 981.95 562.75C980.617 563.75 978.908 564.583 976.825 565.25C974.825 565.833 972.617 566.333 970.2 566.75C967.783 567.083 965.242 567.333 962.575 567.5C959.992 567.583 957.45 567.667 954.95 567.75C954.533 570.5 953.783 573.75 952.7 577.5C951.7 581.167 950.658 584.792 949.575 588.375C948.492 591.875 947.533 595.042 946.7 597.875C945.95 600.625 945.617 602.417 945.7 603.25C944.867 605.167 944.158 606.792 943.575 608.125C943.075 609.458 942.575 610.708 942.075 611.875C941.658 613.042 941.2 614.208 940.7 615.375C940.283 616.458 939.742 617.708 939.075 619.125H947.575C947.742 620.042 948.117 620.667 948.7 621C949.283 621.333 949.908 621.625 950.575 621.875C951.242 622.125 951.825 622.458 952.325 622.875C952.908 623.208 953.2 623.792 953.2 624.625C954.783 625.042 955.783 625.667 956.2 626.5C956.617 627.333 956.7 628.25 956.45 629.25C956.283 630.167 955.867 631.125 955.2 632.125C954.617 633.125 954.033 634 953.45 634.75C952.7 634.583 951.992 634.792 951.325 635.375C950.658 635.875 950.033 636.458 949.45 637.125C947.033 636.792 944.658 636.75 942.325 637C939.992 637.25 937.825 637.458 935.825 637.625C935.408 637.708 935.242 637.958 935.325 638.375C935.408 638.708 935.325 638.958 935.075 639.125C932.492 638.292 929.825 637.958 927.075 638.125C924.408 638.292 921.658 638.708 918.825 639.375C916.075 639.958 913.242 640.583 910.325 641.25C907.408 642 904.45 642.417 901.45 642.5ZM968.8 594C968.383 591.667 968.258 589.25 968.425 586.75C968.592 584.25 968.675 581.833 968.675 579.5C968.675 577.25 968.508 574.875 968.175 572.375C967.925 569.792 967.675 567.333 967.425 565C967.258 562.667 967.175 560.542 967.175 558.625C967.258 556.625 967.55 555.083 968.05 554C968.717 552.75 969.55 551.792 970.55 551.125C971.55 550.375 972.508 549.542 973.425 548.625C974.508 548.792 975.467 549.125 976.3 549.625C977.217 550.042 977.967 550.625 978.55 551.375C979.217 552.042 979.675 552.75 979.925 553.5C980.258 554.25 980.342 555 980.175 555.75C982.258 557 983.925 558.708 985.175 560.875C986.508 562.958 987.508 565.292 988.175 567.875C988.925 570.375 989.425 573.042 989.675 575.875C990.008 578.708 990.258 581.5 990.425 584.25C990.675 587 990.883 589.625 991.05 592.125C991.3 594.542 991.717 596.667 992.3 598.5C995.967 593.167 999.05 588.458 1001.55 584.375C1004.13 580.208 1006.72 576.25 1009.3 572.5C1011.88 568.667 1014.76 564.792 1017.92 560.875C1021.17 556.958 1025.3 552.542 1030.3 547.625C1031.38 547.792 1032.22 548 1032.8 548.25C1033.38 548.5 1033.97 548.75 1034.55 549C1035.13 549.25 1035.76 549.458 1036.42 549.625C1037.09 549.708 1038.01 549.667 1039.17 549.5C1039.59 550.5 1039.88 551.25 1040.05 551.75C1040.3 552.167 1040.51 552.583 1040.67 553C1040.84 553.417 1041.05 553.958 1041.3 554.625C1041.55 555.292 1041.92 556.292 1042.42 557.625C1042.67 557.958 1042.76 558.417 1042.67 559C1042.67 559.5 1042.63 559.958 1042.55 560.375C1042.47 560.792 1042.42 561.125 1042.42 561.375C1042.51 561.625 1042.8 561.625 1043.3 561.375C1042.97 562.792 1042.42 564.083 1041.67 565.25C1040.92 566.333 1040.59 567.667 1040.67 569.25C1038.42 572.25 1035.92 575.333 1033.17 578.5C1030.42 581.667 1027.67 585 1024.92 588.5C1022.17 591.917 1019.51 595.5 1016.92 599.25C1014.42 602.917 1012.3 606.833 1010.55 611C1010.05 611 1009.67 611.125 1009.42 611.375C1009.17 611.625 1008.92 611.917 1008.67 612.25C1008.51 612.583 1008.3 612.917 1008.05 613.25C1007.88 613.583 1007.55 613.75 1007.05 613.75C1006.88 616.417 1005.88 618.958 1004.05 621.375C1002.3 623.708 1000.51 625.708 998.675 627.375C998.842 628.042 998.925 628.583 998.925 629C998.925 629.417 998.883 629.833 998.8 630.25C998.717 630.667 998.633 631.125 998.55 631.625C998.55 632.042 998.592 632.583 998.675 633.25C997.925 635.25 996.925 636.917 995.675 638.25C994.508 639.583 993.217 640.583 991.8 641.25C990.383 641.917 988.925 642.167 987.425 642C985.925 641.917 984.508 641.417 983.175 640.5C982.592 640.167 982.092 639.708 981.675 639.125C981.258 638.542 980.8 638 980.3 637.5C979.883 636.917 979.425 636.417 978.925 636C978.508 635.5 977.967 635.167 977.3 635C977.467 634.167 977.467 633.292 977.3 632.375C977.217 631.458 977.05 630.625 976.8 629.875C976.55 629.125 976.258 628.5 975.925 628C975.592 627.5 975.258 627.25 974.925 627.25C974.592 625.167 974.133 622.917 973.55 620.5C973.05 618 972.508 615.542 971.925 613.125C971.425 610.708 971.008 608.333 970.675 606C970.342 603.667 970.217 601.5 970.3 599.5C970.383 598.5 970.175 597.625 969.675 596.875C969.258 596.042 968.967 595.083 968.8 594ZM1034.27 636.75C1033.61 636.083 1033.11 635.292 1032.77 634.375C1032.52 633.458 1031.86 632.708 1030.77 632.125C1030.61 630.875 1030.36 629.458 1030.02 627.875C1029.77 626.208 1029.48 624.542 1029.15 622.875C1028.9 621.125 1028.69 619.417 1028.52 617.75C1028.44 616 1028.52 614.417 1028.77 613C1028.94 612.25 1029.19 611.542 1029.52 610.875C1029.94 610.208 1030.32 609.583 1030.65 609C1031.07 608.333 1031.36 607.667 1031.52 607C1031.77 606.333 1031.82 605.667 1031.65 605C1032.15 604.917 1032.44 604.667 1032.52 604.25C1032.69 603.75 1033.11 603.583 1033.77 603.75C1034.36 601.917 1034.98 600.208 1035.65 598.625C1036.32 597.042 1037.02 595.5 1037.77 594C1038.52 592.5 1039.27 591 1040.02 589.5C1040.86 587.917 1041.61 586.167 1042.27 584.25C1040.86 582.917 1039.82 581.5 1039.15 580C1038.57 578.417 1038.11 576.833 1037.77 575.25C1037.44 573.667 1037.19 572.083 1037.02 570.5C1036.86 568.833 1036.52 567.167 1036.02 565.5C1037.02 564 1038.23 562.792 1039.65 561.875C1041.07 560.875 1042.61 560.083 1044.27 559.5C1046.02 558.833 1047.9 558.333 1049.9 558C1051.9 557.583 1054.02 557.125 1056.27 556.625C1060.27 555.375 1063.86 554.417 1067.02 553.75C1070.19 553 1073.27 552.417 1076.27 552C1079.27 551.5 1082.4 551.083 1085.65 550.75C1088.9 550.333 1092.65 549.75 1096.9 549C1096.98 549.25 1097.11 549.375 1097.27 549.375C1097.52 549.375 1097.82 549.375 1098.15 549.375C1098.4 549.958 1098.86 550.25 1099.52 550.25C1099.52 550 1099.48 549.792 1099.4 549.625C1099.4 549.375 1099.4 549.167 1099.4 549C1099.57 549 1099.77 549.042 1100.02 549.125C1100.36 549.208 1100.61 549.292 1100.77 549.375C1101.02 549.458 1101.23 549.458 1101.4 549.375C1101.57 549.208 1101.61 548.917 1101.52 548.5C1102.52 550.25 1103.82 551.708 1105.4 552.875C1106.98 553.958 1108.73 554.917 1110.65 555.75C1110.73 556.5 1110.73 557.042 1110.65 557.375C1110.65 557.708 1110.61 558.042 1110.52 558.375C1110.44 558.625 1110.4 558.958 1110.4 559.375C1110.4 559.708 1110.48 560.208 1110.65 560.875C1109.32 563.125 1107.77 564.875 1106.02 566.125C1104.36 567.375 1102.57 568.333 1100.65 569C1098.73 569.667 1096.69 570.167 1094.52 570.5C1092.44 570.833 1090.27 571.208 1088.02 571.625C1085.86 571.958 1083.65 572.458 1081.4 573.125C1079.15 573.792 1076.94 574.792 1074.77 576.125C1074.11 575.875 1073.48 575.792 1072.9 575.875C1072.4 575.875 1071.86 575.958 1071.27 576.125C1070.69 576.292 1070.02 576.458 1069.27 576.625C1068.61 576.792 1067.77 576.792 1066.77 576.625C1066.11 577.208 1065.32 577.625 1064.4 577.875C1063.57 578.125 1062.69 578.375 1061.77 578.625C1062.19 579.542 1062.36 580.458 1062.27 581.375C1062.27 582.292 1062.4 583.083 1062.65 583.75C1066.15 584.083 1070.02 584.083 1074.27 583.75C1078.52 583.333 1082.69 583.042 1086.77 582.875C1086.86 583.292 1086.82 583.583 1086.65 583.75C1086.48 583.917 1086.4 584.208 1086.4 584.625C1087.15 585.125 1087.86 585.75 1088.52 586.5C1089.19 587.25 1089.86 588 1090.52 588.75C1091.27 589.417 1092.02 590 1092.77 590.5C1093.52 590.917 1094.4 591.083 1095.4 591C1095.82 591.833 1096.11 592.708 1096.27 593.625C1096.44 594.542 1096.32 595.5 1095.9 596.5C1094.23 597.583 1092.61 598.708 1091.02 599.875C1089.44 600.958 1087.77 601.958 1086.02 602.875C1084.36 603.792 1082.52 604.542 1080.52 605.125C1078.52 605.708 1076.36 605.958 1074.02 605.875C1073.61 605.875 1073.23 605.875 1072.9 605.875C1072.65 605.875 1072.32 605.708 1071.9 605.375C1071.07 605.792 1069.94 605.958 1068.52 605.875C1067.19 605.708 1066.07 605.833 1065.15 606.25C1063.98 605.833 1062.61 605.625 1061.02 605.625C1059.52 605.625 1058.19 605.417 1057.02 605C1055.52 607.167 1054.11 609.458 1052.77 611.875C1051.44 614.208 1050.27 616.708 1049.27 619.375C1052.69 619.875 1055.52 620.083 1057.77 620C1060.02 619.917 1062.15 619.75 1064.15 619.5C1066.15 619.25 1068.19 619 1070.27 618.75C1072.44 618.5 1075.07 618.417 1078.15 618.5C1080.23 617.5 1082.61 616.833 1085.27 616.5C1088.02 616.083 1090.57 615.5 1092.9 614.75C1093.73 615 1094.44 615.5 1095.02 616.25C1095.61 616.917 1096.15 617.625 1096.65 618.375C1097.23 619.042 1097.82 619.625 1098.4 620.125C1098.98 620.625 1099.73 620.792 1100.65 620.625C1101.07 621.042 1101.32 621.542 1101.4 622.125C1101.57 622.708 1101.69 623.25 1101.77 623.75C1101.94 624.25 1102.15 624.667 1102.4 625C1102.65 625.25 1103.11 625.333 1103.77 625.25C1102.19 628.5 1100.4 631 1098.4 632.75C1096.48 634.5 1094.27 635.875 1091.77 636.875C1089.36 637.792 1086.61 638.5 1083.52 639C1080.52 639.417 1077.15 639.958 1073.4 640.625C1072.48 640.792 1071.69 640.792 1071.02 640.625C1070.44 640.375 1069.82 640.25 1069.15 640.25C1066.82 640.667 1064.02 641.083 1060.77 641.5C1057.61 641.917 1054.4 642.083 1051.15 642C1047.9 641.917 1044.77 641.5 1041.77 640.75C1038.77 640 1036.27 638.667 1034.27 636.75ZM1103.38 630.25C1102.96 630.333 1102.58 630.042 1102.25 629.375C1101.92 628.625 1101.54 627.917 1101.12 627.25H1102.5C1101.92 625.417 1101.75 623.75 1102 622.25C1102.33 620.667 1102.71 619.167 1103.12 617.75C1103.54 616.25 1103.88 614.833 1104.12 613.5C1104.46 612.083 1104.33 610.625 1103.75 609.125C1104.17 609.375 1104.46 609.292 1104.62 608.875C1104.88 608.375 1105.04 607.792 1105.12 607.125C1105.29 606.375 1105.33 605.625 1105.25 604.875C1105.25 604.042 1105.21 603.375 1105.12 602.875C1106.21 600.292 1107.04 597.625 1107.62 594.875C1108.29 592.125 1108.88 589.417 1109.38 586.75C1109.88 584 1110.42 581.375 1111 578.875C1111.67 576.292 1112.5 573.875 1113.5 571.625C1114.67 571.458 1115.88 571.625 1117.12 572.125C1118.46 572.542 1119.33 573.083 1119.75 573.75C1122.33 571.75 1124.62 569.333 1126.62 566.5C1128.62 563.667 1130.62 560.917 1132.62 558.25C1134.71 555.5 1137.04 553.083 1139.62 551C1142.21 548.917 1145.42 547.667 1149.25 547.25C1151.25 548.667 1153.5 550.208 1156 551.875C1158.5 553.458 1160.54 555.458 1162.12 557.875C1162.79 558.292 1163.42 558.75 1164 559.25C1164.67 559.667 1165.33 560.083 1166 560.5V562.375C1167.17 563.458 1168.12 564.75 1168.88 566.25C1169.71 567.667 1170.42 569.208 1171 570.875C1171.67 572.458 1172.29 574.083 1172.88 575.75C1173.46 577.417 1174.12 578.958 1174.88 580.375C1174.71 580.875 1174.62 581.333 1174.62 581.75C1174.71 582.083 1174.79 582.458 1174.88 582.875C1175.04 583.208 1175.17 583.625 1175.25 584.125C1175.33 584.542 1175.38 585.083 1175.38 585.75C1175.04 590.167 1173.58 593.75 1171 596.5C1168.5 599.167 1165.42 601.375 1161.75 603.125C1158.17 604.792 1154.33 606.25 1150.25 607.5C1146.17 608.667 1142.46 609.958 1139.12 611.375C1139.12 611.708 1139.29 611.875 1139.62 611.875C1140.04 611.875 1140.17 612.125 1140 612.625C1142.5 614.125 1144.42 615.333 1145.75 616.25C1147.17 617.167 1148.46 617.958 1149.62 618.625C1150.88 619.208 1152.21 619.708 1153.62 620.125C1155.12 620.542 1157.17 621.042 1159.75 621.625C1162.33 622.208 1164.33 622.708 1165.75 623.125C1167.25 623.458 1168.58 623.75 1169.75 624C1170.92 624.167 1172.17 624.333 1173.5 624.5C1174.83 624.667 1176.62 624.875 1178.88 625.125C1179.79 626.042 1180.54 627.125 1181.12 628.375C1181.71 629.625 1182.12 630.875 1182.38 632.125C1182.62 633.375 1182.67 634.583 1182.5 635.75C1182.42 636.833 1182.08 637.708 1181.5 638.375C1181.58 638.708 1181.79 638.875 1182.12 638.875C1182.54 638.792 1182.96 638.792 1183.38 638.875C1182.79 639.292 1182.29 639.792 1181.88 640.375C1181.46 640.958 1181.04 641.542 1180.62 642.125C1180.21 642.708 1179.71 643.25 1179.12 643.75C1178.62 644.25 1177.96 644.542 1177.12 644.625C1174.12 645.792 1170.29 645.833 1165.62 644.75C1160.96 643.667 1155 641.75 1147.75 639C1144.17 637.667 1141.25 636.458 1139 635.375C1136.75 634.292 1134.79 633.25 1133.12 632.25C1131.46 631.167 1129.92 630.042 1128.5 628.875C1127.08 627.625 1125.46 626.167 1123.62 624.5C1123.38 624.583 1123.21 624.75 1123.12 625C1123.12 625.25 1123 625.417 1122.75 625.5C1122.33 628.833 1121.67 631.542 1120.75 633.625C1119.92 635.708 1118.67 637.833 1117 640C1115.67 639.75 1114.75 639.875 1114.25 640.375C1113.83 640.875 1113.29 641.333 1112.62 641.75C1111.79 641.917 1111.17 641.875 1110.75 641.625C1110.33 641.458 1109.96 641.25 1109.62 641C1109.29 640.75 1108.92 640.5 1108.5 640.25C1108.08 640 1107.42 639.917 1106.5 640C1106.25 639.25 1106 638.542 1105.75 637.875C1105.5 637.125 1104.83 636.792 1103.75 636.875C1104 636.125 1104.08 635.5 1104 635C1103.92 634.417 1103.79 633.917 1103.62 633.5C1103.46 633 1103.29 632.5 1103.12 632C1103.04 631.5 1103.12 630.917 1103.38 630.25ZM1145.12 573.125C1144.04 574.708 1142.83 576.167 1141.5 577.5C1140.17 578.75 1138.83 580.083 1137.5 581.5C1136.25 582.833 1135.12 584.333 1134.12 586C1133.12 587.583 1132.42 589.5 1132 591.75C1135.5 591.333 1139.17 590.375 1143 588.875C1146.83 587.292 1150.46 585.792 1153.88 584.375C1153.46 581.292 1152.38 578.833 1150.62 577C1148.88 575.083 1147.04 573.792 1145.12 573.125ZM1192.35 645.125C1185.02 644.125 1180.56 640.25 1178.98 633.5L1179.1 632.125C1179.43 631.125 1179.81 630 1180.23 628.75C1180.64 627.333 1181.1 625.958 1181.6 624.625C1182.1 623.208 1182.93 621.958 1184.1 620.875C1184.35 620.125 1184.81 619 1185.48 617.5C1186.23 615.917 1187.43 613.583 1189.1 610.5C1190.43 608.083 1191.48 606.167 1192.23 604.75C1193.06 603.333 1193.73 602.25 1194.23 601.5C1193.39 600 1192.23 598.542 1190.73 597.125C1189.39 594.625 1188.23 592.25 1187.23 590C1186.31 587.667 1185.6 585.583 1185.1 583.75C1185.02 581.75 1184.68 579.708 1184.1 577.625C1183.85 576.542 1183.6 575.458 1183.35 574.375C1183.1 573.292 1182.98 572.167 1182.98 571C1182.64 570.417 1182.35 569.667 1182.1 568.75L1182.35 567.25C1182.77 566.583 1182.85 565.708 1182.6 564.625C1182.43 563.458 1182.18 562.292 1181.85 561.125C1181.6 560.042 1181.35 558.917 1181.1 557.75C1180.93 556.5 1180.89 555.292 1180.98 554.125C1181.06 552.958 1181.35 551.833 1181.85 550.75C1182.43 549.667 1183.39 548.75 1184.73 548L1185.98 547.125L1187.23 547.875C1188.14 548.458 1189.02 548.958 1189.85 549.375C1190.68 549.792 1191.52 550.208 1192.35 550.625C1193.35 551.125 1194.35 551.667 1195.35 552.25C1196.35 552.75 1197.43 553.333 1198.6 554L1199.85 554.875L1199.73 556.25C1199.73 556.417 1199.77 556.625 1199.85 556.875C1199.93 557.125 1200.06 557.333 1200.23 557.5L1201.6 557.875L1201.73 559.625V561.125C1201.73 561.875 1201.77 562.417 1201.85 562.75C1201.93 563 1202.1 563.292 1202.35 563.625L1202.98 565.25C1202.98 566.75 1203.1 568.083 1203.35 569.25C1203.6 570.417 1203.89 571.583 1204.23 572.75C1204.64 573.917 1204.98 575.125 1205.23 576.375C1205.48 577.542 1205.52 578.833 1205.35 580.25C1205.85 580 1206.35 579.625 1206.85 579.125C1207.02 578.958 1207.18 578.792 1207.35 578.625C1207.6 578.458 1207.85 578.292 1208.1 578.125L1216.85 566.25L1216.6 564.75L1219.73 561.75C1220.56 561.083 1221.35 560.417 1222.1 559.75C1222.85 559 1223.48 558.167 1223.98 557.25L1224.73 556.125C1228.48 551.125 1233.31 548.042 1239.23 546.875L1241.35 546.375L1241.98 548.375C1242.39 549.542 1243.18 550.583 1244.35 551.5C1245.6 552.333 1246.93 553.167 1248.35 554L1249.73 554.875C1250.23 555.875 1250.48 556.625 1250.48 557.125C1250.48 557.625 1250.43 558.042 1250.35 558.375L1250.98 560C1250.06 562.417 1249.06 564.167 1247.98 565.25C1246.89 566.25 1245.77 567.208 1244.6 568.125C1243.68 568.875 1242.85 569.625 1242.1 570.375C1241.35 571.125 1240.77 571.958 1240.35 572.875L1239.35 574.125C1237.27 575.208 1235.93 576.792 1235.35 578.875L1234.85 580.625H1232.98C1232.89 580.625 1232.68 580.833 1232.35 581.25C1232.02 581.583 1231.52 582.458 1230.85 583.875C1230.1 584.875 1229.56 585.542 1229.23 585.875C1228.98 586.125 1228.77 586.333 1228.6 586.5C1228.43 586.917 1228.27 587.292 1228.1 587.625C1228.02 587.958 1227.89 588.375 1227.73 588.875L1226.98 589.875C1226.23 590.542 1225.68 591.208 1225.35 591.875C1225.02 592.458 1224.64 593.167 1224.23 594C1223.89 594.75 1223.52 595.542 1223.1 596.375C1222.68 597.125 1222.1 597.875 1221.35 598.625L1221.6 600L1220.6 600.875C1219.93 601.458 1219.35 602.208 1218.85 603.125C1218.35 603.958 1217.85 604.833 1217.35 605.75C1216.85 606.75 1216.31 607.75 1215.73 608.75C1215.14 609.75 1214.39 610.667 1213.48 611.5C1212.89 613 1212.35 614.167 1211.85 615C1211.43 615.833 1210.68 616.833 1209.6 618C1208.6 622 1206.23 626.292 1202.48 630.875C1202.39 631.792 1202.1 632.708 1201.6 633.625C1201.18 634.458 1200.73 635.25 1200.23 636C1200.06 636.333 1199.85 636.708 1199.6 637.125C1199.43 637.458 1199.31 637.708 1199.23 637.875L1198.85 639.25C1198.35 640.167 1197.81 640.917 1197.23 641.5C1196.73 642.083 1196.23 642.625 1195.73 643.125C1195.48 643.292 1195.23 643.5 1194.98 643.75C1194.81 644 1194.64 644.208 1194.48 644.375L1192.35 645.125Z" fill="white"/>
</svg>
