<svg width="1920" height="1080" viewBox="0 0 1920 1080" fill="none" xmlns="http://www.w3.org/2000/svg">
<path d="M0 0H1920V1080H0V0Z" fill="#242424"/>
<path d="M501.087 580.125C498.671 578.292 496.671 576 495.087 573.25C493.587 570.5 492.379 567.583 491.462 564.5C490.629 561.417 490.046 558.25 489.712 555C489.462 551.667 489.379 548.5 489.462 545.5C490.212 543.25 491.129 541.208 492.212 539.375C493.296 537.458 494.504 535.667 495.837 534C497.171 532.25 498.546 530.625 499.962 529.125C501.462 527.542 502.921 525.958 504.337 524.375C504.837 524.375 505.296 524.5 505.712 524.75C506.046 523.833 506.546 523.042 507.212 522.375C507.879 521.708 508.587 521.125 509.337 520.625C510.087 520.042 510.837 519.5 511.587 519C512.337 518.417 512.962 517.75 513.462 517C515.546 516.5 517.379 515.792 518.962 514.875C520.629 513.958 522.212 512.958 523.712 511.875C525.212 510.792 526.754 509.792 528.337 508.875C529.921 507.958 531.754 507.25 533.837 506.75C534.587 505.917 535.504 505.208 536.587 504.625C537.754 504.042 538.879 503.5 539.962 503C541.129 502.5 542.212 501.958 543.212 501.375C544.296 500.792 545.171 500 545.837 499C546.337 499.667 547.046 499.917 547.962 499.75C548.879 499.5 549.712 499.25 550.462 499C550.962 498.917 551.379 499 551.712 499.25C552.046 499.5 552.337 499.792 552.587 500.125C552.921 500.375 553.171 500.542 553.337 500.625C553.587 500.708 553.837 500.458 554.087 499.875C554.754 499.958 554.921 500.25 554.587 500.75C554.337 501.25 554.171 501.583 554.087 501.75C554.921 501.583 555.587 501.75 556.087 502.25C556.671 502.667 557.546 502.958 558.712 503.125C559.129 503.542 559.254 503.875 559.087 504.125C558.921 504.375 558.796 504.792 558.712 505.375C561.712 506.292 563.629 507.75 564.462 509.75C565.296 511.667 565.379 513.708 564.712 515.875C564.046 517.958 562.796 519.917 560.962 521.75C559.212 523.5 557.254 524.667 555.087 525.25C552.504 525.917 550.087 526.583 547.837 527.25C545.671 527.917 543.546 528.667 541.462 529.5C539.462 530.333 537.546 531.333 535.712 532.5C533.962 533.583 532.421 534.875 531.087 536.375C528.754 537.042 526.629 537.958 524.712 539.125C522.879 540.292 521.129 541.583 519.462 543C517.879 544.417 516.337 545.917 514.837 547.5C513.337 549 511.837 550.5 510.337 552C510.337 553.417 510.087 554.5 509.587 555.25C509.087 556 508.546 556.75 507.962 557.5C508.129 559.083 508.462 560.458 508.962 561.625C509.546 562.708 510.129 563.833 510.712 565C517.379 567 524.421 568.25 531.837 568.75C539.337 569.167 546.754 569.417 554.087 569.5C554.837 570.5 555.671 571.458 556.587 572.375C557.587 573.208 558.462 574.083 559.212 575C560.046 575.917 560.671 577 561.087 578.25C561.587 579.417 561.712 580.833 561.462 582.5C560.046 583.917 558.504 585.292 556.837 586.625C555.171 587.875 553.504 589.125 551.837 590.375C551.087 590.458 550.171 590.458 549.087 590.375C548.087 590.292 547.004 590.25 545.837 590.25C544.754 590.25 543.629 590.333 542.462 590.5C541.379 590.583 540.337 590.833 539.337 591.25C534.087 591.083 528.712 590.458 523.212 589.375C517.712 588.208 512.629 586.833 507.962 585.25C507.046 584.167 506.087 583.167 505.087 582.25C504.087 581.25 502.754 580.542 501.087 580.125ZM591.437 591.5C587.771 592 584.437 591.833 581.437 591C578.437 590.167 575.729 588.875 573.312 587.125C570.979 585.375 568.937 583.292 567.187 580.875C565.521 578.458 564.146 575.875 563.062 573.125C562.312 567.458 562.521 562.333 563.687 557.75C564.854 553.083 566.562 548.792 568.812 544.875C571.062 540.958 573.604 537.292 576.437 533.875C579.354 530.458 582.146 527.167 584.812 524C585.396 524.25 585.854 524.25 586.187 524C586.604 523.75 586.937 523.417 587.187 523C587.521 522.583 587.854 522.167 588.187 521.75C588.604 521.333 589.062 521.042 589.562 520.875C589.896 520.125 590.312 519.5 590.812 519C591.396 518.5 591.979 518.042 592.562 517.625C593.229 517.125 593.812 516.625 594.312 516.125C594.896 515.625 595.396 515 595.812 514.25C596.646 514.083 597.354 513.792 597.937 513.375C598.604 512.958 599.187 512.5 599.687 512C600.271 511.5 600.854 511.042 601.437 510.625C602.021 510.208 602.729 509.875 603.562 509.625V508C605.396 507.167 606.729 506.25 607.562 505.25C608.396 504.25 609.396 502.958 610.562 501.375C611.479 501.292 612.187 501.25 612.687 501.25C613.271 501.25 614.146 501.167 615.312 501C616.062 499.583 616.771 498.542 617.437 497.875C618.104 497.208 619.062 496.458 620.312 495.625C621.562 496.292 622.896 496.708 624.312 496.875C625.729 496.958 627.021 497.583 628.187 498.75C628.271 499.75 628.562 500.542 629.062 501.125C629.562 501.625 630.104 502.125 630.687 502.625C631.271 503.042 631.854 503.5 632.437 504C633.021 504.5 633.396 505.208 633.562 506.125C633.979 506.125 634.229 506.042 634.312 505.875C634.479 505.708 634.771 505.667 635.187 505.75C635.354 506.417 635.521 506.958 635.687 507.375C635.854 507.792 636.021 508.167 636.187 508.5C636.437 508.833 636.646 509.208 636.812 509.625C637.062 510.042 637.271 510.542 637.437 511.125C637.021 512.125 636.646 513.208 636.312 514.375C635.979 515.458 635.312 516.208 634.312 516.625C634.312 517.292 634.562 517.667 635.062 517.75C635.562 517.75 635.854 518.042 635.937 518.625C636.021 519.375 635.896 520 635.562 520.5C637.896 524.417 640.021 528.542 641.937 532.875C643.854 537.125 646.021 541.208 648.437 545.125C648.271 546.292 648.312 547.458 648.562 548.625C648.896 549.708 649.271 550.792 649.687 551.875C650.187 552.958 650.646 554.042 651.062 555.125C651.479 556.208 651.771 557.292 651.937 558.375C652.104 559.792 652.104 561.333 651.937 563C651.771 564.583 651.437 566.125 650.937 567.625C650.437 569.125 649.771 570.542 648.937 571.875C648.104 573.125 647.146 574.083 646.062 574.75C644.729 576.417 643.062 577.792 641.062 578.875C639.062 579.875 637.229 581.083 635.562 582.5C634.396 583.167 633.146 583.667 631.812 584C630.479 584.25 629.104 584.542 627.687 584.875C626.604 585.542 625.312 586.208 623.812 586.875C622.312 587.458 620.771 588 619.187 588.5C617.604 589 616.021 589.417 614.437 589.75C612.854 590 611.437 590.042 610.187 589.875C607.187 590.958 604.271 591.708 601.437 592.125C598.604 592.542 595.271 592.333 591.437 591.5ZM593.062 546C592.229 547.917 591.229 549.667 590.062 551.25C588.979 552.75 587.896 554.292 586.812 555.875C585.729 557.458 584.771 559.167 583.937 561C583.187 562.75 582.771 564.833 582.687 567.25C584.354 568.667 586.312 569.542 588.562 569.875C590.896 570.125 593.271 570.167 595.687 570C598.104 569.75 600.521 569.417 602.937 569C605.354 568.583 607.521 568.375 609.437 568.375C609.437 567.625 609.771 567.25 610.437 567.25C613.937 566.917 617.187 565.958 620.187 564.375C623.187 562.708 626.312 561.042 629.562 559.375C629.979 558.375 630.521 557.5 631.187 556.75C631.854 556 632.229 554.917 632.312 553.5C631.896 552.75 631.604 552.125 631.437 551.625C631.354 551.125 631.312 550.375 631.312 549.375C629.146 546.375 627.271 543.125 625.687 539.625C624.104 536.042 622.271 532.667 620.187 529.5C620.021 529.917 619.687 530.333 619.187 530.75C618.687 531.167 618.146 531.083 617.562 530.5C617.312 531.333 616.937 531.917 616.437 532.25C615.937 532.5 615.354 532.625 614.687 532.625C614.104 532.625 613.479 532.5 612.812 532.25C612.229 532 611.687 531.667 611.187 531.25C608.271 533.583 605.354 535.833 602.437 538C599.604 540.167 597.021 542.708 594.687 545.625C594.271 545.875 594.021 545.958 593.937 545.875C593.854 545.792 593.562 545.833 593.062 546ZM656.662 529.125C656.496 528.042 656.287 527.375 656.037 527.125C656.621 525.625 657.037 524.167 657.287 522.75C657.621 521.25 657.871 519.833 658.037 518.5C658.204 517.333 658.371 516.25 658.537 515.25C658.787 514.25 659.079 513.292 659.412 512.375C660.829 512.042 661.871 511.458 662.537 510.625C663.287 509.708 663.871 508.917 664.287 508.25C665.787 508.167 666.746 508.375 667.162 508.875C667.662 509.375 668.204 510.208 668.787 511.375C669.204 512.292 669.787 513.292 670.537 514.375C671.287 515.375 672.412 516.167 673.912 516.75C674.162 517.667 674.454 518.542 674.787 519.375C675.121 520.208 675.496 521.083 675.912 522C676.662 523.75 677.371 525.583 678.037 527.5C678.704 529.333 679.079 531.083 679.162 532.75C678.162 534.667 677.371 536.875 676.787 539.375C676.287 541.875 675.954 544.417 675.787 547C675.704 549.5 675.787 551.917 676.037 554.25C676.287 556.583 676.704 558.542 677.287 560.125L678.037 562.125L680.787 561.875C683.787 561.125 686.496 560.292 688.912 559.375C691.329 558.375 693.579 557.208 695.662 555.875C697.746 554.542 699.746 553.042 701.662 551.375C703.579 549.625 705.579 547.583 707.662 545.25C709.662 542.917 711.454 540.292 713.037 537.375C714.621 534.375 715.912 531.292 716.912 528.125C717.996 524.958 718.829 521.792 719.412 518.625C719.996 515.458 720.371 512.5 720.537 509.75C722.121 509 722.996 507.792 723.162 506.125L722.787 504.5C722.537 504.083 722.412 503.708 722.412 503.375C722.496 502.958 722.621 502.583 722.787 502.25C723.454 500.333 724.871 498.917 727.037 498C728.537 499 729.912 500.083 731.162 501.25C732.496 502.417 733.704 503.583 734.787 504.75C734.954 507 735.287 508.958 735.787 510.625C736.287 512.208 736.829 513.75 737.412 515.25C737.996 516.667 738.496 518.042 738.912 519.375C739.412 520.708 739.746 522.333 739.912 524.25C739.079 526.75 738.454 529.125 738.037 531.375C737.704 533.542 737.371 535.833 737.037 538.25L736.787 539.625C735.287 542.208 733.787 544.875 732.287 547.625C730.871 550.292 729.704 552.625 728.787 554.625C728.287 555.125 727.829 555.708 727.412 556.375C727.079 557.042 726.746 557.708 726.412 558.375C726.246 558.625 725.996 559.042 725.662 559.625C725.412 560.208 725.162 560.625 724.912 560.875L721.912 559.75L721.162 563.625L719.162 564.125L717.662 565.875C715.746 569.208 713.704 572 711.537 574.25C709.454 576.5 707.079 578.5 704.412 580.25C701.829 582 698.871 583.667 695.537 585.25C692.287 586.75 688.537 588.375 684.287 590.125C682.621 589.875 681.162 589.75 679.912 589.75C678.746 589.667 677.579 589.583 676.412 589.5C675.246 589.5 674.121 589.458 673.037 589.375C671.954 589.292 670.704 589.167 669.287 589C668.954 588.25 668.496 587.708 667.912 587.375C667.329 587.042 666.787 586.875 666.287 586.875C664.621 586.042 663.371 584.875 662.537 583.375C661.704 581.875 660.829 580.208 659.912 578.375C659.496 577.375 659.037 576.375 658.537 575.375C658.121 574.375 657.579 573.417 656.912 572.5L659.412 571.75L656.162 568C655.912 567.75 655.621 567.5 655.287 567.25C655.037 567 654.787 566.708 654.537 566.375V564C654.204 557.167 654.037 550.875 654.037 545.125C654.121 539.292 654.912 534.167 656.412 529.75L656.662 529.125ZM733.762 580.25C733.346 580.333 732.971 580.042 732.637 579.375C732.304 578.625 731.929 577.917 731.512 577.25H732.887C732.304 575.417 732.137 573.75 732.387 572.25C732.721 570.667 733.096 569.167 733.512 567.75C733.929 566.25 734.262 564.833 734.512 563.5C734.846 562.083 734.721 560.625 734.137 559.125C734.554 559.375 734.846 559.292 735.012 558.875C735.262 558.375 735.429 557.792 735.512 557.125C735.679 556.375 735.721 555.625 735.637 554.875C735.637 554.042 735.596 553.375 735.512 552.875C736.596 550.292 737.429 547.625 738.012 544.875C738.679 542.125 739.262 539.417 739.762 536.75C740.262 534 740.804 531.375 741.387 528.875C742.054 526.292 742.887 523.875 743.887 521.625C745.054 521.458 746.262 521.625 747.512 522.125C748.846 522.542 749.721 523.083 750.137 523.75C752.721 521.75 755.012 519.333 757.012 516.5C759.012 513.667 761.012 510.917 763.012 508.25C765.096 505.5 767.429 503.083 770.012 501C772.596 498.917 775.804 497.667 779.637 497.25C781.637 498.667 783.887 500.208 786.387 501.875C788.887 503.458 790.929 505.458 792.512 507.875C793.179 508.292 793.804 508.75 794.387 509.25C795.054 509.667 795.721 510.083 796.387 510.5V512.375C797.554 513.458 798.512 514.75 799.262 516.25C800.096 517.667 800.804 519.208 801.387 520.875C802.054 522.458 802.679 524.083 803.262 525.75C803.846 527.417 804.512 528.958 805.262 530.375C805.096 530.875 805.012 531.333 805.012 531.75C805.096 532.083 805.179 532.458 805.262 532.875C805.429 533.208 805.554 533.625 805.637 534.125C805.721 534.542 805.762 535.083 805.762 535.75C805.429 540.167 803.971 543.75 801.387 546.5C798.887 549.167 795.804 551.375 792.137 553.125C788.554 554.792 784.721 556.25 780.637 557.5C776.554 558.667 772.846 559.958 769.512 561.375C769.512 561.708 769.679 561.875 770.012 561.875C770.429 561.875 770.554 562.125 770.387 562.625C772.887 564.125 774.804 565.333 776.137 566.25C777.554 567.167 778.846 567.958 780.012 568.625C781.262 569.208 782.596 569.708 784.012 570.125C785.512 570.542 787.554 571.042 790.137 571.625C792.721 572.208 794.721 572.708 796.137 573.125C797.637 573.458 798.971 573.75 800.137 574C801.304 574.167 802.554 574.333 803.887 574.5C805.221 574.667 807.012 574.875 809.262 575.125C810.179 576.042 810.929 577.125 811.512 578.375C812.096 579.625 812.512 580.875 812.762 582.125C813.012 583.375 813.054 584.583 812.887 585.75C812.804 586.833 812.471 587.708 811.887 588.375C811.971 588.708 812.179 588.875 812.512 588.875C812.929 588.792 813.346 588.792 813.762 588.875C813.179 589.292 812.679 589.792 812.262 590.375C811.846 590.958 811.429 591.542 811.012 592.125C810.596 592.708 810.096 593.25 809.512 593.75C809.012 594.25 808.346 594.542 807.512 594.625C804.512 595.792 800.679 595.833 796.012 594.75C791.346 593.667 785.387 591.75 778.137 589C774.554 587.667 771.637 586.458 769.387 585.375C767.137 584.292 765.179 583.25 763.512 582.25C761.846 581.167 760.304 580.042 758.887 578.875C757.471 577.625 755.846 576.167 754.012 574.5C753.762 574.583 753.596 574.75 753.512 575C753.512 575.25 753.387 575.417 753.137 575.5C752.721 578.833 752.054 581.542 751.137 583.625C750.304 585.708 749.054 587.833 747.387 590C746.054 589.75 745.137 589.875 744.637 590.375C744.221 590.875 743.679 591.333 743.012 591.75C742.179 591.917 741.554 591.875 741.137 591.625C740.721 591.458 740.346 591.25 740.012 591C739.679 590.75 739.304 590.5 738.887 590.25C738.471 590 737.804 589.917 736.887 590C736.637 589.25 736.387 588.542 736.137 587.875C735.887 587.125 735.221 586.792 734.137 586.875C734.387 586.125 734.471 585.5 734.387 585C734.304 584.417 734.179 583.917 734.012 583.5C733.846 583 733.679 582.5 733.512 582C733.429 581.5 733.512 580.917 733.762 580.25ZM775.512 523.125C774.429 524.708 773.221 526.167 771.887 527.5C770.554 528.75 769.221 530.083 767.887 531.5C766.637 532.833 765.512 534.333 764.512 536C763.512 537.583 762.804 539.5 762.387 541.75C765.887 541.333 769.554 540.375 773.387 538.875C777.221 537.292 780.846 535.792 784.262 534.375C783.846 531.292 782.762 528.833 781.012 527C779.262 525.083 777.429 523.792 775.512 523.125ZM808.237 534.625C808.487 533.375 808.654 532.375 808.737 531.625C808.821 530.792 808.529 529.917 807.862 529C808.196 527.667 808.446 526.625 808.612 525.875C808.862 525.125 808.904 524.083 808.737 522.75C809.487 520.583 810.612 518.75 812.112 517.25C813.696 515.75 815.404 514.5 817.237 513.5C819.071 512.417 820.987 511.542 822.987 510.875C824.987 510.125 826.862 509.5 828.612 509C828.612 508.667 828.446 508.5 828.112 508.5C827.779 508.5 827.696 508.292 827.862 507.875C832.362 507.042 836.862 505.833 841.362 504.25C845.946 502.667 850.612 501.25 855.362 500C860.112 498.75 864.987 498 869.987 497.75C874.987 497.417 880.237 498.042 885.737 499.625C886.071 500.625 886.529 501.583 887.112 502.5C887.696 503.417 888.279 504.333 888.862 505.25C889.529 506.083 890.112 506.917 890.612 507.75C891.112 508.583 891.404 509.458 891.487 510.375C892.487 511.292 893.279 512.292 893.862 513.375C894.529 514.375 894.654 515.75 894.237 517.5C893.321 518.167 892.362 518.833 891.362 519.5C890.362 520.167 889.321 520.792 888.237 521.375C884.487 520.458 880.737 520.125 876.987 520.375C873.237 520.625 869.862 520.917 866.862 521.25C865.946 520.25 864.862 519.792 863.612 519.875C862.362 519.875 861.029 520.083 859.612 520.5C858.279 520.833 856.946 521.208 855.612 521.625C854.279 521.958 853.029 522.042 851.862 521.875C850.946 522.708 849.737 523.292 848.237 523.625C846.737 523.875 845.154 524.083 843.487 524.25C843.404 524.667 843.487 524.958 843.737 525.125C843.987 525.292 844.029 525.625 843.862 526.125C844.446 526.875 845.237 527.417 846.237 527.75C847.237 528 848.237 528.25 849.237 528.5C850.321 528.75 851.279 529.125 852.112 529.625C852.946 530.042 853.487 530.75 853.737 531.75C855.237 531.833 856.529 532.25 857.612 533C858.696 533.667 859.612 534.5 860.362 535.5C861.112 536.5 861.654 537.583 861.987 538.75C862.321 539.833 862.446 540.833 862.362 541.75C862.696 542.583 863.029 542.917 863.362 542.75C863.779 542.583 864.237 542.792 864.737 543.375C865.071 544.625 865.821 545.958 866.987 547.375C868.237 548.708 869.196 550.167 869.862 551.75C870.029 554.25 870.154 556.5 870.237 558.5C870.404 560.5 870.071 562.458 869.237 564.375C867.821 568.042 865.779 571.333 863.112 574.25C860.446 577.167 857.404 579.75 853.987 582C850.654 584.167 847.112 586.083 843.362 587.75C839.612 589.333 835.904 590.667 832.237 591.75C831.904 591.667 831.487 591.667 830.987 591.75C830.571 591.833 830.487 591.583 830.737 591C829.987 591.667 829.112 592.083 828.112 592.25C827.196 592.417 826.154 592.458 824.987 592.375C823.904 592.375 822.779 592.333 821.612 592.25C820.529 592.167 819.446 592.208 818.362 592.375C817.696 591.708 817.071 591.042 816.487 590.375C815.987 589.708 815.571 588.917 815.237 588C814.821 587.917 814.612 587.667 814.612 587.25C814.696 586.75 814.529 586.5 814.112 586.5C814.112 586.167 814.154 585.917 814.237 585.75C814.321 585.583 814.404 585.417 814.487 585.25C814.821 585 814.946 584.833 814.862 584.75C814.862 584.583 814.737 584.458 814.487 584.375C814.321 584.208 814.112 584.042 813.862 583.875C813.696 583.708 813.654 583.5 813.737 583.25C814.154 582.5 814.279 581.625 814.112 580.625C814.029 579.542 813.946 578.458 813.862 577.375C813.779 576.292 813.862 575.292 814.112 574.375C814.362 573.375 815.071 572.542 816.237 571.875C819.654 572.208 822.862 572.042 825.862 571.375C828.946 570.708 831.821 569.792 834.487 568.625C837.237 567.458 839.821 566.208 842.237 564.875C844.737 563.458 847.154 562.167 849.487 561C849.737 560.167 850.112 559.458 850.612 558.875C851.196 558.292 851.779 557.75 852.362 557.25C852.946 556.667 853.487 556.083 853.987 555.5C854.487 554.833 854.862 554.042 855.112 553.125C855.196 552.792 855.196 552.542 855.112 552.375C855.029 552.208 854.904 552.083 854.737 552C854.571 551.833 854.404 551.667 854.237 551.5C854.071 551.333 853.987 551.083 853.987 550.75C853.737 550.667 853.487 550.583 853.237 550.5C853.071 550.417 852.904 550.375 852.737 550.375C850.571 549.292 848.279 548.375 845.862 547.625C843.446 546.875 841.404 546.042 839.737 545.125C838.737 545.792 837.737 545.958 836.737 545.625C835.737 545.292 834.529 544.958 833.112 544.625C829.612 544.458 826.279 544.125 823.112 543.625C820.029 543.125 817.029 542.25 814.112 541C813.946 540.5 813.737 540.083 813.487 539.75C813.237 539.333 812.654 539.208 811.737 539.375C811.154 538.542 810.529 537.792 809.862 537.125C809.279 536.375 808.737 535.542 808.237 534.625ZM880.962 586.75C880.296 586.083 879.796 585.292 879.462 584.375C879.212 583.458 878.546 582.708 877.462 582.125C877.296 580.875 877.046 579.458 876.712 577.875C876.462 576.208 876.171 574.542 875.837 572.875C875.587 571.125 875.379 569.417 875.212 567.75C875.129 566 875.212 564.417 875.462 563C875.629 562.25 875.879 561.542 876.212 560.875C876.629 560.208 877.004 559.583 877.337 559C877.754 558.333 878.046 557.667 878.212 557C878.462 556.333 878.504 555.667 878.337 555C878.837 554.917 879.129 554.667 879.212 554.25C879.379 553.75 879.796 553.583 880.462 553.75C881.046 551.917 881.671 550.208 882.337 548.625C883.004 547.042 883.712 545.5 884.462 544C885.212 542.5 885.962 541 886.712 539.5C887.546 537.917 888.296 536.167 888.962 534.25C887.546 532.917 886.504 531.5 885.837 530C885.254 528.417 884.796 526.833 884.462 525.25C884.129 523.667 883.879 522.083 883.712 520.5C883.546 518.833 883.212 517.167 882.712 515.5C883.712 514 884.921 512.792 886.337 511.875C887.754 510.875 889.296 510.083 890.962 509.5C892.712 508.833 894.587 508.333 896.587 508C898.587 507.583 900.712 507.125 902.962 506.625C906.962 505.375 910.546 504.417 913.712 503.75C916.879 503 919.962 502.417 922.962 502C925.962 501.5 929.087 501.083 932.337 500.75C935.587 500.333 939.337 499.75 943.587 499C943.671 499.25 943.796 499.375 943.962 499.375C944.212 499.375 944.504 499.375 944.837 499.375C945.087 499.958 945.546 500.25 946.212 500.25C946.212 500 946.171 499.792 946.087 499.625C946.087 499.375 946.087 499.167 946.087 499C946.254 499 946.462 499.042 946.712 499.125C947.046 499.208 947.296 499.292 947.462 499.375C947.712 499.458 947.921 499.458 948.087 499.375C948.254 499.208 948.296 498.917 948.212 498.5C949.212 500.25 950.504 501.708 952.087 502.875C953.671 503.958 955.421 504.917 957.337 505.75C957.421 506.5 957.421 507.042 957.337 507.375C957.337 507.708 957.296 508.042 957.212 508.375C957.129 508.625 957.087 508.958 957.087 509.375C957.087 509.708 957.171 510.208 957.337 510.875C956.004 513.125 954.462 514.875 952.712 516.125C951.046 517.375 949.254 518.333 947.337 519C945.421 519.667 943.379 520.167 941.212 520.5C939.129 520.833 936.962 521.208 934.712 521.625C932.546 521.958 930.337 522.458 928.087 523.125C925.837 523.792 923.629 524.792 921.462 526.125C920.796 525.875 920.171 525.792 919.587 525.875C919.087 525.875 918.546 525.958 917.962 526.125C917.379 526.292 916.712 526.458 915.962 526.625C915.296 526.792 914.462 526.792 913.462 526.625C912.796 527.208 912.004 527.625 911.087 527.875C910.254 528.125 909.379 528.375 908.462 528.625C908.879 529.542 909.046 530.458 908.962 531.375C908.962 532.292 909.087 533.083 909.337 533.75C912.837 534.083 916.712 534.083 920.962 533.75C925.212 533.333 929.379 533.042 933.462 532.875C933.546 533.292 933.504 533.583 933.337 533.75C933.171 533.917 933.087 534.208 933.087 534.625C933.837 535.125 934.546 535.75 935.212 536.5C935.879 537.25 936.546 538 937.212 538.75C937.962 539.417 938.712 540 939.462 540.5C940.212 540.917 941.087 541.083 942.087 541C942.504 541.833 942.796 542.708 942.962 543.625C943.129 544.542 943.004 545.5 942.587 546.5C940.921 547.583 939.296 548.708 937.712 549.875C936.129 550.958 934.462 551.958 932.712 552.875C931.046 553.792 929.212 554.542 927.212 555.125C925.212 555.708 923.046 555.958 920.712 555.875C920.296 555.875 919.921 555.875 919.587 555.875C919.337 555.875 919.004 555.708 918.587 555.375C917.754 555.792 916.629 555.958 915.212 555.875C913.879 555.708 912.754 555.833 911.837 556.25C910.671 555.833 909.296 555.625 907.712 555.625C906.212 555.625 904.879 555.417 903.712 555C902.212 557.167 900.796 559.458 899.462 561.875C898.129 564.208 896.962 566.708 895.962 569.375C899.379 569.875 902.212 570.083 904.462 570C906.712 569.917 908.837 569.75 910.837 569.5C912.837 569.25 914.879 569 916.962 568.75C919.129 568.5 921.754 568.417 924.837 568.5C926.921 567.5 929.296 566.833 931.962 566.5C934.712 566.083 937.254 565.5 939.587 564.75C940.421 565 941.129 565.5 941.712 566.25C942.296 566.917 942.837 567.625 943.337 568.375C943.921 569.042 944.504 569.625 945.087 570.125C945.671 570.625 946.421 570.792 947.337 570.625C947.754 571.042 948.004 571.542 948.087 572.125C948.254 572.708 948.379 573.25 948.462 573.75C948.629 574.25 948.837 574.667 949.087 575C949.337 575.25 949.796 575.333 950.462 575.25C948.879 578.5 947.087 581 945.087 582.75C943.171 584.5 940.962 585.875 938.462 586.875C936.046 587.792 933.296 588.5 930.212 589C927.212 589.417 923.837 589.958 920.087 590.625C919.171 590.792 918.379 590.792 917.712 590.625C917.129 590.375 916.504 590.25 915.837 590.25C913.504 590.667 910.712 591.083 907.462 591.5C904.296 591.917 901.087 592.083 897.837 592C894.587 591.917 891.462 591.5 888.462 590.75C885.462 590 882.962 588.667 880.962 586.75ZM994.413 555.75C994.496 555.417 994.663 555.292 994.913 555.375C995.246 555.375 995.538 555.333 995.788 555.25C995.121 554.583 994.704 553.708 994.538 552.625C994.371 551.458 993.954 550.5 993.288 549.75C993.454 549.333 993.579 548.917 993.663 548.5C993.829 548.083 994.204 547.917 994.788 548C994.538 546.167 994.579 544.458 994.913 542.875C995.246 541.292 995.746 539.792 996.413 538.375C997.163 536.958 997.996 535.583 998.913 534.25C999.913 532.833 1000.87 531.417 1001.79 530C1002.54 529.833 1003 529.917 1003.16 530.25C1003.33 530.5 1003.62 530.417 1004.04 530C1005.37 529.083 1006.29 528.083 1006.79 527C1007.29 525.833 1007.54 524.583 1007.54 523.25C1008.29 521.083 1009.12 518.958 1010.04 516.875C1011.04 514.708 1012.16 512.708 1013.41 510.875C1014.66 509.042 1016 507.458 1017.41 506.125C1018.83 504.708 1020.37 503.625 1022.04 502.875C1023.2 501.875 1024.66 500.958 1026.41 500.125C1028.25 499.292 1030.16 498.667 1032.16 498.25C1034.25 497.75 1036.37 497.5 1038.54 497.5C1040.7 497.417 1042.7 497.625 1044.54 498.125C1044.95 498.292 1045.2 498.208 1045.29 497.875C1045.37 497.458 1045.58 497.25 1045.91 497.25C1050.08 497.75 1053.79 498.583 1057.04 499.75C1060.37 500.917 1063.2 502.542 1065.54 504.625C1067.12 507.125 1068.62 509.833 1070.04 512.75C1071.45 515.583 1072.54 518.583 1073.29 521.75C1074.12 524.833 1074.5 528.042 1074.41 531.375C1074.33 534.708 1073.62 538.042 1072.29 541.375C1069.37 545.042 1065.83 548 1061.66 550.25C1057.5 552.417 1053 554.25 1048.16 555.75C1043.41 557.167 1038.45 558.333 1033.29 559.25C1028.2 560.167 1023.25 561.167 1018.41 562.25C1018.5 564.5 1018.5 566.917 1018.41 569.5C1018.33 572 1018.04 574.542 1017.54 577.125C1017.12 579.625 1016.45 582.083 1015.54 584.5C1014.7 586.917 1013.54 589.167 1012.04 591.25C1010.37 591.167 1008.62 591.333 1006.79 591.75C1005.04 592.167 1003.45 592.583 1002.04 593C1001.37 592.583 1000.7 592.167 1000.04 591.75C999.454 591.417 998.704 591.208 997.788 591.125C998.038 590.125 997.788 589.083 997.038 588C996.371 586.917 995.663 585.875 994.913 584.875C994.246 583.792 993.788 582.75 993.538 581.75C993.371 580.667 993.871 579.708 995.038 578.875C994.371 578.292 994.038 577.375 994.038 576.125C994.371 576.458 994.788 576.625 995.288 576.625C995.121 575.125 995.288 573.333 995.788 571.25C996.371 569.167 996.829 567.125 997.163 565.125C997.579 563.042 997.663 561.167 997.413 559.5C997.163 557.75 996.163 556.5 994.413 555.75ZM1026.91 526.5C1026.58 527.417 1026.29 528.25 1026.04 529C1025.87 529.667 1025.66 530.292 1025.41 530.875C1025.16 531.458 1024.87 532.042 1024.54 532.625C1024.29 533.208 1024 533.875 1023.66 534.625C1023.83 535.125 1024.16 535.5 1024.66 535.75C1025.16 536 1025.5 536.375 1025.66 536.875C1026.83 536.292 1028 535.875 1029.16 535.625C1030.33 535.292 1031.5 535.042 1032.66 534.875C1033.83 534.708 1035 534.5 1036.16 534.25C1037.33 534 1038.54 533.583 1039.79 533C1041.04 532.417 1042.33 531.958 1043.66 531.625C1045.08 531.208 1046.45 530.792 1047.79 530.375C1049.12 529.958 1050.41 529.5 1051.66 529C1052.91 528.417 1054 527.667 1054.91 526.75C1053.75 525.667 1052 524.708 1049.66 523.875C1047.33 523.042 1044.79 522.542 1042.04 522.375C1039.37 522.125 1036.66 522.292 1033.91 522.875C1031.25 523.458 1028.91 524.667 1026.91 526.5ZM1071.39 586.375C1071.05 586.042 1070.76 585.667 1070.51 585.25C1070.26 584.75 1070.05 584.125 1069.89 583.375C1068.72 581.958 1067.8 580.333 1067.14 578.5C1066.47 576.667 1066.01 574.792 1065.76 572.875C1065.51 570.875 1065.47 568.875 1065.64 566.875C1065.8 564.875 1066.1 563 1066.51 561.25C1066.76 560.417 1066.97 559.542 1067.14 558.625C1067.55 557.042 1067.97 555.5 1068.39 554C1068.8 552.417 1069.43 551.125 1070.26 550.125C1069.93 549.208 1069.97 548.208 1070.39 547.125C1070.8 546.042 1071.22 545.042 1071.64 544.125C1071.8 543.875 1071.93 543.667 1072.01 543.5C1072.1 543.25 1072.18 543.042 1072.26 542.875C1073.26 539.958 1074.22 537.167 1075.14 534.5C1076.14 531.75 1077.1 529.125 1078.01 526.625C1079.68 522.042 1081.26 517.542 1082.76 513.125C1084.35 508.708 1085.76 504 1087.01 499C1087.68 498.5 1088.26 498.167 1088.76 498C1088.93 497.917 1089.14 497.833 1089.39 497.75C1089.64 497.667 1089.93 497.625 1090.26 497.625C1092.01 498.542 1094.05 499.417 1096.39 500.25C1098.8 501 1100.85 501.375 1102.51 501.375L1104.64 503.25C1105.72 504.5 1106.64 505.833 1107.39 507.25C1108.22 508.583 1108.47 510.333 1108.14 512.5C1107.64 513.25 1107.22 513.708 1106.89 513.875C1106.39 515.792 1105.85 517.5 1105.26 519C1104.68 520.417 1104.1 521.792 1103.51 523.125C1102.85 524.625 1102.22 526.125 1101.64 527.625C1101.05 529.125 1100.55 530.958 1100.14 533.125C1099.64 533.708 1099.3 534.208 1099.14 534.625C1099.05 535.042 1098.93 535.458 1098.76 535.875C1098.6 536.375 1098.39 536.917 1098.14 537.5C1097.89 538 1097.51 538.458 1097.01 538.875C1096.68 541.458 1096.18 543.583 1095.51 545.25C1094.85 546.833 1094.18 548.417 1093.51 550C1092.35 552.917 1091.26 555.833 1090.26 558.75C1089.26 561.583 1088.68 564.833 1088.51 568.5C1089.51 568.25 1090.43 568.125 1091.26 568.125C1092.35 568.125 1093.39 568.292 1094.39 568.625C1097.39 567.125 1100.64 566.208 1104.14 565.875C1107.72 565.542 1111.26 565.333 1114.76 565.25C1117.68 565.25 1120.39 565.125 1122.89 564.875C1123.72 565.458 1124.26 565.792 1124.51 565.875C1124.76 565.875 1125.18 565.875 1125.76 565.875C1126.01 565.875 1126.26 565.875 1126.51 565.875C1126.76 565.875 1127.1 565.917 1127.51 566C1128.68 567.167 1129.8 568 1130.89 568.5C1131.97 568.917 1133.14 569.333 1134.39 569.75C1135.47 570.167 1136.51 570.625 1137.51 571.125C1138.6 571.542 1139.64 572.125 1140.64 572.875L1141.76 579.25C1142.43 580.167 1142.72 580.792 1142.64 581.125C1142.64 581.792 1142.47 582.375 1142.14 582.875L1142.39 584.5C1140.8 584.833 1139.76 585.208 1139.26 585.625C1138.76 585.958 1138.22 586.417 1137.64 587C1136.72 587.083 1135.85 587.125 1135.01 587.125C1133.35 587.125 1131.64 587.375 1129.89 587.875C1127.39 586.958 1124.64 586.5 1121.64 586.5C1120.47 586.5 1119.26 586.542 1118.01 586.625C1116.85 586.708 1115.68 586.833 1114.51 587C1113.26 587.167 1112.01 587.333 1110.76 587.5C1109.51 587.583 1108.26 587.625 1107.01 587.625C1106.01 587.792 1105.3 587.917 1104.89 588C1104.47 588.083 1104.05 588.208 1103.64 588.375C1100.8 589.292 1097.72 590.208 1094.39 591.125C1091.14 592.042 1087.85 592.5 1084.51 592.5C1079.6 592.5 1075.64 591.25 1072.64 588.75C1072.3 588 1072.05 587.5 1071.89 587.25C1071.72 587 1071.55 586.708 1071.39 586.375ZM1135.61 579.125L1137.24 577.875L1137.36 575.25C1139.45 570.167 1141.57 565.292 1143.74 560.625C1145.99 555.958 1148.32 551.167 1150.74 546.25C1151.49 544.667 1152.24 543.083 1152.99 541.5C1153.82 539.917 1154.61 538.292 1155.36 536.625C1155.28 536.292 1155.24 535.958 1155.24 535.625C1155.24 535.208 1155.32 534.75 1155.49 534.25C1156.65 532.583 1157.57 531.083 1158.24 529.75C1158.99 528.417 1159.7 527.042 1160.36 525.625C1161.11 523.958 1161.9 522.292 1162.74 520.625C1163.65 518.958 1164.78 517.333 1166.11 515.75L1166.99 514.5L1168.36 514.625C1168.7 514.458 1169.03 514.333 1169.36 514.25C1169.78 514.083 1170.28 514 1170.86 514L1173.11 514.375C1175.86 513.125 1178.28 511.333 1180.36 509C1182.53 506.583 1184.7 503.708 1186.86 500.375L1188.36 498.25L1190.36 499.5C1190.78 499.75 1191.45 500 1192.36 500.25C1193.28 500.5 1194.24 500.792 1195.24 501.125C1196.99 501.542 1198.7 502.042 1200.36 502.625C1202.03 503.125 1203.32 503.833 1204.24 504.75L1204.86 505.875C1205.03 506.792 1205.15 507.625 1205.24 508.375C1205.4 509.125 1205.57 509.875 1205.74 510.625C1206.07 512.375 1206.36 514.125 1206.61 515.875C1206.86 517.542 1207.03 519.417 1207.11 521.5C1207.53 523.167 1207.9 524.875 1208.24 526.625C1208.65 528.292 1209.03 529.958 1209.36 531.625C1209.78 534.042 1210.24 536.375 1210.74 538.625C1211.24 540.792 1211.9 542.875 1212.74 544.875C1213.57 544.875 1214.07 544.917 1214.24 545C1215.24 544.583 1216.4 544.333 1217.74 544.25L1219.36 544.125L1219.86 545.625C1220.03 545.875 1220.24 546.125 1220.49 546.375C1220.74 546.625 1221.03 546.875 1221.36 547.125C1222.7 547.208 1223.65 547.5 1224.24 548C1224.9 548.417 1225.45 548.833 1225.86 549.25C1226.03 549.417 1226.24 549.625 1226.49 549.875C1226.74 550.042 1226.95 550.167 1227.11 550.25L1229.36 551.125L1228.11 553.5C1227.2 555.25 1225.78 556.958 1223.86 558.625C1222.03 560.292 1219.95 561.667 1217.61 562.75C1217.78 563.333 1217.86 563.875 1217.86 564.375C1217.95 564.875 1218.07 565.458 1218.24 566.125C1218.57 567.792 1218.82 569.542 1218.99 571.375C1219.24 573.125 1219.24 574.958 1218.99 576.875C1218.15 579.042 1217.15 581 1215.99 582.75C1214.9 584.417 1213.57 585.958 1211.99 587.375C1210.49 588.708 1208.78 589.833 1206.86 590.75C1204.95 591.583 1202.95 592.042 1200.86 592.125C1199.7 591.875 1198.82 591.583 1198.24 591.25C1197.74 590.917 1197.28 590.583 1196.86 590.25C1196.2 589.75 1195.65 589.417 1195.24 589.25L1193.61 588.5L1194.11 586.625C1194.36 585.958 1194.32 585.375 1193.99 584.875C1193.74 584.375 1193.15 583.708 1192.24 582.875C1191.9 582.625 1191.61 582.375 1191.36 582.125C1191.11 581.792 1190.82 581.458 1190.49 581.125L1187.99 578.25L1192.11 577.125C1194.61 576.458 1196.28 575.625 1197.11 574.625C1197.95 573.542 1198.28 571.667 1198.11 569C1196.03 568.583 1194.32 568.542 1192.99 568.875C1191.65 569.125 1190.32 569.417 1188.99 569.75C1187.07 570.25 1185.2 570.708 1183.36 571.125C1181.53 571.458 1179.53 571.625 1177.36 571.625C1175.95 571.625 1174.45 571.5 1172.86 571.25L1171.49 571.125L1171.11 569.75C1171.11 569.583 1170.99 569.417 1170.74 569.25C1170.57 569 1170.4 568.792 1170.24 568.625C1169.82 568.125 1169.32 567.458 1168.74 566.625C1168.15 565.792 1168.03 564.75 1168.36 563.5C1167.78 562.583 1167.45 561.625 1167.36 560.625C1167.03 561.292 1166.74 561.958 1166.49 562.625C1166.32 563.208 1166.15 563.792 1165.99 564.375L1165.49 566L1163.86 566.25C1163.7 566.417 1163.53 566.667 1163.36 567C1163.28 567.333 1163.28 567.583 1163.36 567.75L1163.86 569.125L1162.61 570.25C1162.45 570.5 1162.24 570.708 1161.99 570.875C1161.74 571.042 1161.53 571.208 1161.36 571.375C1161.2 572.292 1160.95 573.167 1160.61 574C1160.36 574.833 1160.07 575.667 1159.74 576.5C1159.32 577.833 1158.9 579.125 1158.49 580.375C1158.15 581.625 1157.99 582.875 1157.99 584.125L1157.49 585.75C1157.07 586.417 1156.53 586.917 1155.86 587.25C1155.28 587.583 1154.7 587.875 1154.11 588.125C1153.28 588.458 1152.7 588.792 1152.36 589.125L1151.99 590.75L1150.11 591C1149.03 591.25 1148.24 591.417 1147.74 591.5C1147.32 591.583 1146.82 591.625 1146.24 591.625L1144.61 591.5C1143.61 590.5 1142.78 589.75 1142.11 589.25C1141.53 588.667 1140.82 588.167 1139.99 587.75L1139.24 586.75C1138.9 586.083 1138.7 585.5 1138.61 585C1138.53 584.417 1138.4 583.833 1138.24 583.25C1138.07 582.167 1137.82 581.417 1137.49 581L1135.61 579.125ZM1175.49 546.625C1174.32 548.292 1173.2 550.042 1172.11 551.875C1172.7 551.792 1173.24 551.75 1173.74 551.75C1174.32 551.75 1174.9 551.708 1175.49 551.625C1178.4 551.458 1181.11 551.25 1183.61 551C1186.11 550.75 1188.82 550.333 1191.74 549.75C1191.07 546.667 1190.32 543.542 1189.49 540.375C1188.74 537.125 1187.9 533.875 1186.99 530.625L1186.36 531.875C1184.28 534.125 1182.28 536.542 1180.36 539.125C1178.45 541.708 1176.86 544.167 1175.61 546.5L1175.49 546.625ZM1237.09 595.125C1229.75 594.125 1225.3 590.25 1223.71 583.5L1223.84 582.125C1224.17 581.125 1224.55 580 1224.96 578.75C1225.38 577.333 1225.84 575.958 1226.34 574.625C1226.84 573.208 1227.67 571.958 1228.84 570.875C1229.09 570.125 1229.55 569 1230.21 567.5C1230.96 565.917 1232.17 563.583 1233.84 560.5C1235.17 558.083 1236.21 556.167 1236.96 554.75C1237.8 553.333 1238.46 552.25 1238.96 551.5C1238.13 550 1236.96 548.542 1235.46 547.125C1234.13 544.625 1232.96 542.25 1231.96 540C1231.05 537.667 1230.34 535.583 1229.84 533.75C1229.75 531.75 1229.42 529.708 1228.84 527.625C1228.59 526.542 1228.34 525.458 1228.09 524.375C1227.84 523.292 1227.71 522.167 1227.71 521C1227.38 520.417 1227.09 519.667 1226.84 518.75L1227.09 517.25C1227.5 516.583 1227.59 515.708 1227.34 514.625C1227.17 513.458 1226.92 512.292 1226.59 511.125C1226.34 510.042 1226.09 508.917 1225.84 507.75C1225.67 506.5 1225.63 505.292 1225.71 504.125C1225.8 502.958 1226.09 501.833 1226.59 500.75C1227.17 499.667 1228.13 498.75 1229.46 498L1230.71 497.125L1231.96 497.875C1232.88 498.458 1233.75 498.958 1234.59 499.375C1235.42 499.792 1236.25 500.208 1237.09 500.625C1238.09 501.125 1239.09 501.667 1240.09 502.25C1241.09 502.75 1242.17 503.333 1243.34 504L1244.59 504.875L1244.46 506.25C1244.46 506.417 1244.5 506.625 1244.59 506.875C1244.67 507.125 1244.8 507.333 1244.96 507.5L1246.34 507.875L1246.46 509.625V511.125C1246.46 511.875 1246.5 512.417 1246.59 512.75C1246.67 513 1246.84 513.292 1247.09 513.625L1247.71 515.25C1247.71 516.75 1247.84 518.083 1248.09 519.25C1248.34 520.417 1248.63 521.583 1248.96 522.75C1249.38 523.917 1249.71 525.125 1249.96 526.375C1250.21 527.542 1250.25 528.833 1250.09 530.25C1250.59 530 1251.09 529.625 1251.59 529.125C1251.75 528.958 1251.92 528.792 1252.09 528.625C1252.34 528.458 1252.59 528.292 1252.84 528.125L1261.59 516.25L1261.34 514.75L1264.46 511.75C1265.3 511.083 1266.09 510.417 1266.84 509.75C1267.59 509 1268.21 508.167 1268.71 507.25L1269.46 506.125C1273.21 501.125 1278.05 498.042 1283.96 496.875L1286.09 496.375L1286.71 498.375C1287.13 499.542 1287.92 500.583 1289.09 501.5C1290.34 502.333 1291.67 503.167 1293.09 504L1294.46 504.875C1294.96 505.875 1295.21 506.625 1295.21 507.125C1295.21 507.625 1295.17 508.042 1295.09 508.375L1295.71 510C1294.8 512.417 1293.8 514.167 1292.71 515.25C1291.63 516.25 1290.5 517.208 1289.34 518.125C1288.42 518.875 1287.59 519.625 1286.84 520.375C1286.09 521.125 1285.5 521.958 1285.09 522.875L1284.09 524.125C1282 525.208 1280.67 526.792 1280.09 528.875L1279.59 530.625H1277.71C1277.63 530.625 1277.42 530.833 1277.09 531.25C1276.75 531.583 1276.25 532.458 1275.59 533.875C1274.84 534.875 1274.3 535.542 1273.96 535.875C1273.71 536.125 1273.5 536.333 1273.34 536.5C1273.17 536.917 1273 537.292 1272.84 537.625C1272.75 537.958 1272.63 538.375 1272.46 538.875L1271.71 539.875C1270.96 540.542 1270.42 541.208 1270.09 541.875C1269.75 542.458 1269.38 543.167 1268.96 544C1268.63 544.75 1268.25 545.542 1267.84 546.375C1267.42 547.125 1266.84 547.875 1266.09 548.625L1266.34 550L1265.34 550.875C1264.67 551.458 1264.09 552.208 1263.59 553.125C1263.09 553.958 1262.59 554.833 1262.09 555.75C1261.59 556.75 1261.05 557.75 1260.46 558.75C1259.88 559.75 1259.13 560.667 1258.21 561.5C1257.63 563 1257.09 564.167 1256.59 565C1256.17 565.833 1255.42 566.833 1254.34 568C1253.34 572 1250.96 576.292 1247.21 580.875C1247.13 581.792 1246.84 582.708 1246.34 583.625C1245.92 584.458 1245.46 585.25 1244.96 586C1244.8 586.333 1244.59 586.708 1244.34 587.125C1244.17 587.458 1244.05 587.708 1243.96 587.875L1243.59 589.25C1243.09 590.167 1242.55 590.917 1241.96 591.5C1241.46 592.083 1240.96 592.625 1240.46 593.125C1240.21 593.292 1239.96 593.5 1239.71 593.75C1239.55 594 1239.38 594.208 1239.21 594.375L1237.09 595.125ZM1282.19 586.75C1281.52 586.083 1281.02 585.292 1280.69 584.375C1280.44 583.458 1279.77 582.708 1278.69 582.125C1278.52 580.875 1278.27 579.458 1277.94 577.875C1277.69 576.208 1277.4 574.542 1277.06 572.875C1276.81 571.125 1276.6 569.417 1276.44 567.75C1276.35 566 1276.44 564.417 1276.69 563C1276.85 562.25 1277.1 561.542 1277.44 560.875C1277.85 560.208 1278.23 559.583 1278.56 559C1278.98 558.333 1279.27 557.667 1279.44 557C1279.69 556.333 1279.73 555.667 1279.56 555C1280.06 554.917 1280.35 554.667 1280.44 554.25C1280.6 553.75 1281.02 553.583 1281.69 553.75C1282.27 551.917 1282.9 550.208 1283.56 548.625C1284.23 547.042 1284.94 545.5 1285.69 544C1286.44 542.5 1287.19 541 1287.94 539.5C1288.77 537.917 1289.52 536.167 1290.19 534.25C1288.77 532.917 1287.73 531.5 1287.06 530C1286.48 528.417 1286.02 526.833 1285.69 525.25C1285.35 523.667 1285.1 522.083 1284.94 520.5C1284.77 518.833 1284.44 517.167 1283.94 515.5C1284.94 514 1286.15 512.792 1287.56 511.875C1288.98 510.875 1290.52 510.083 1292.19 509.5C1293.94 508.833 1295.81 508.333 1297.81 508C1299.81 507.583 1301.94 507.125 1304.19 506.625C1308.19 505.375 1311.77 504.417 1314.94 503.75C1318.1 503 1321.19 502.417 1324.19 502C1327.19 501.5 1330.31 501.083 1333.56 500.75C1336.81 500.333 1340.56 499.75 1344.81 499C1344.9 499.25 1345.02 499.375 1345.19 499.375C1345.44 499.375 1345.73 499.375 1346.06 499.375C1346.31 499.958 1346.77 500.25 1347.44 500.25C1347.44 500 1347.4 499.792 1347.31 499.625C1347.31 499.375 1347.31 499.167 1347.31 499C1347.48 499 1347.69 499.042 1347.94 499.125C1348.27 499.208 1348.52 499.292 1348.69 499.375C1348.94 499.458 1349.15 499.458 1349.31 499.375C1349.48 499.208 1349.52 498.917 1349.44 498.5C1350.44 500.25 1351.73 501.708 1353.31 502.875C1354.9 503.958 1356.65 504.917 1358.56 505.75C1358.65 506.5 1358.65 507.042 1358.56 507.375C1358.56 507.708 1358.52 508.042 1358.44 508.375C1358.35 508.625 1358.31 508.958 1358.31 509.375C1358.31 509.708 1358.4 510.208 1358.56 510.875C1357.23 513.125 1355.69 514.875 1353.94 516.125C1352.27 517.375 1350.48 518.333 1348.56 519C1346.65 519.667 1344.6 520.167 1342.44 520.5C1340.35 520.833 1338.19 521.208 1335.94 521.625C1333.77 521.958 1331.56 522.458 1329.31 523.125C1327.06 523.792 1324.85 524.792 1322.69 526.125C1322.02 525.875 1321.4 525.792 1320.81 525.875C1320.31 525.875 1319.77 525.958 1319.19 526.125C1318.6 526.292 1317.94 526.458 1317.19 526.625C1316.52 526.792 1315.69 526.792 1314.69 526.625C1314.02 527.208 1313.23 527.625 1312.31 527.875C1311.48 528.125 1310.6 528.375 1309.69 528.625C1310.1 529.542 1310.27 530.458 1310.19 531.375C1310.19 532.292 1310.31 533.083 1310.56 533.75C1314.06 534.083 1317.94 534.083 1322.19 533.75C1326.44 533.333 1330.6 533.042 1334.69 532.875C1334.77 533.292 1334.73 533.583 1334.56 533.75C1334.4 533.917 1334.31 534.208 1334.31 534.625C1335.06 535.125 1335.77 535.75 1336.44 536.5C1337.1 537.25 1337.77 538 1338.44 538.75C1339.19 539.417 1339.94 540 1340.69 540.5C1341.44 540.917 1342.31 541.083 1343.31 541C1343.73 541.833 1344.02 542.708 1344.19 543.625C1344.35 544.542 1344.23 545.5 1343.81 546.5C1342.15 547.583 1340.52 548.708 1338.94 549.875C1337.35 550.958 1335.69 551.958 1333.94 552.875C1332.27 553.792 1330.44 554.542 1328.44 555.125C1326.44 555.708 1324.27 555.958 1321.94 555.875C1321.52 555.875 1321.15 555.875 1320.81 555.875C1320.56 555.875 1320.23 555.708 1319.81 555.375C1318.98 555.792 1317.85 555.958 1316.44 555.875C1315.1 555.708 1313.98 555.833 1313.06 556.25C1311.9 555.833 1310.52 555.625 1308.94 555.625C1307.44 555.625 1306.1 555.417 1304.94 555C1303.44 557.167 1302.02 559.458 1300.69 561.875C1299.35 564.208 1298.19 566.708 1297.19 569.375C1300.6 569.875 1303.44 570.083 1305.69 570C1307.94 569.917 1310.06 569.75 1312.06 569.5C1314.06 569.25 1316.1 569 1318.19 568.75C1320.35 568.5 1322.98 568.417 1326.06 568.5C1328.15 567.5 1330.52 566.833 1333.19 566.5C1335.94 566.083 1338.48 565.5 1340.81 564.75C1341.65 565 1342.35 565.5 1342.94 566.25C1343.52 566.917 1344.06 567.625 1344.56 568.375C1345.15 569.042 1345.73 569.625 1346.31 570.125C1346.9 570.625 1347.65 570.792 1348.56 570.625C1348.98 571.042 1349.23 571.542 1349.31 572.125C1349.48 572.708 1349.6 573.25 1349.69 573.75C1349.85 574.25 1350.06 574.667 1350.31 575C1350.56 575.25 1351.02 575.333 1351.69 575.25C1350.1 578.5 1348.31 581 1346.31 582.75C1344.4 584.5 1342.19 585.875 1339.69 586.875C1337.27 587.792 1334.52 588.5 1331.44 589C1328.44 589.417 1325.06 589.958 1321.31 590.625C1320.4 590.792 1319.6 590.792 1318.94 590.625C1318.35 590.375 1317.73 590.25 1317.06 590.25C1314.73 590.667 1311.94 591.083 1308.69 591.5C1305.52 591.917 1302.31 592.083 1299.06 592C1295.81 591.917 1292.69 591.5 1289.69 590.75C1286.69 590 1284.19 588.667 1282.19 586.75ZM1351.29 580.25C1350.87 580.333 1350.5 580.042 1350.16 579.375C1349.83 578.625 1349.45 577.917 1349.04 577.25H1350.41C1349.83 575.417 1349.66 573.75 1349.91 572.25C1350.25 570.667 1350.62 569.167 1351.04 567.75C1351.45 566.25 1351.79 564.833 1352.04 563.5C1352.37 562.083 1352.25 560.625 1351.66 559.125C1352.08 559.375 1352.37 559.292 1352.54 558.875C1352.79 558.375 1352.95 557.792 1353.04 557.125C1353.2 556.375 1353.25 555.625 1353.16 554.875C1353.16 554.042 1353.12 553.375 1353.04 552.875C1354.12 550.292 1354.95 547.625 1355.54 544.875C1356.2 542.125 1356.79 539.417 1357.29 536.75C1357.79 534 1358.33 531.375 1358.91 528.875C1359.58 526.292 1360.41 523.875 1361.41 521.625C1362.58 521.458 1363.79 521.625 1365.04 522.125C1366.37 522.542 1367.25 523.083 1367.66 523.75C1370.25 521.75 1372.54 519.333 1374.54 516.5C1376.54 513.667 1378.54 510.917 1380.54 508.25C1382.62 505.5 1384.95 503.083 1387.54 501C1390.12 498.917 1393.33 497.667 1397.16 497.25C1399.16 498.667 1401.41 500.208 1403.91 501.875C1406.41 503.458 1408.45 505.458 1410.04 507.875C1410.7 508.292 1411.33 508.75 1411.91 509.25C1412.58 509.667 1413.25 510.083 1413.91 510.5V512.375C1415.08 513.458 1416.04 514.75 1416.79 516.25C1417.62 517.667 1418.33 519.208 1418.91 520.875C1419.58 522.458 1420.2 524.083 1420.79 525.75C1421.37 527.417 1422.04 528.958 1422.79 530.375C1422.62 530.875 1422.54 531.333 1422.54 531.75C1422.62 532.083 1422.7 532.458 1422.79 532.875C1422.95 533.208 1423.08 533.625 1423.16 534.125C1423.25 534.542 1423.29 535.083 1423.29 535.75C1422.95 540.167 1421.5 543.75 1418.91 546.5C1416.41 549.167 1413.33 551.375 1409.66 553.125C1406.08 554.792 1402.25 556.25 1398.16 557.5C1394.08 558.667 1390.37 559.958 1387.04 561.375C1387.04 561.708 1387.2 561.875 1387.54 561.875C1387.95 561.875 1388.08 562.125 1387.91 562.625C1390.41 564.125 1392.33 565.333 1393.66 566.25C1395.08 567.167 1396.37 567.958 1397.54 568.625C1398.79 569.208 1400.12 569.708 1401.54 570.125C1403.04 570.542 1405.08 571.042 1407.66 571.625C1410.25 572.208 1412.25 572.708 1413.66 573.125C1415.16 573.458 1416.5 573.75 1417.66 574C1418.83 574.167 1420.08 574.333 1421.41 574.5C1422.75 574.667 1424.54 574.875 1426.79 575.125C1427.7 576.042 1428.45 577.125 1429.04 578.375C1429.62 579.625 1430.04 580.875 1430.29 582.125C1430.54 583.375 1430.58 584.583 1430.41 585.75C1430.33 586.833 1430 587.708 1429.41 588.375C1429.5 588.708 1429.7 588.875 1430.04 588.875C1430.45 588.792 1430.87 588.792 1431.29 588.875C1430.7 589.292 1430.2 589.792 1429.79 590.375C1429.37 590.958 1428.95 591.542 1428.54 592.125C1428.12 592.708 1427.62 593.25 1427.04 593.75C1426.54 594.25 1425.87 594.542 1425.04 594.625C1422.04 595.792 1418.2 595.833 1413.54 594.75C1408.87 593.667 1402.91 591.75 1395.66 589C1392.08 587.667 1389.16 586.458 1386.91 585.375C1384.66 584.292 1382.7 583.25 1381.04 582.25C1379.37 581.167 1377.83 580.042 1376.41 578.875C1375 577.625 1373.37 576.167 1371.54 574.5C1371.29 574.583 1371.12 574.75 1371.04 575C1371.04 575.25 1370.91 575.417 1370.66 575.5C1370.25 578.833 1369.58 581.542 1368.66 583.625C1367.83 585.708 1366.58 587.833 1364.91 590C1363.58 589.75 1362.66 589.875 1362.16 590.375C1361.75 590.875 1361.2 591.333 1360.54 591.75C1359.7 591.917 1359.08 591.875 1358.66 591.625C1358.25 591.458 1357.87 591.25 1357.54 591C1357.2 590.75 1356.83 590.5 1356.41 590.25C1356 590 1355.33 589.917 1354.41 590C1354.16 589.25 1353.91 588.542 1353.66 587.875C1353.41 587.125 1352.75 586.792 1351.66 586.875C1351.91 586.125 1352 585.5 1351.91 585C1351.83 584.417 1351.7 583.917 1351.54 583.5C1351.37 583 1351.2 582.5 1351.04 582C1350.95 581.5 1351.04 580.917 1351.29 580.25ZM1393.04 523.125C1391.95 524.708 1390.75 526.167 1389.41 527.5C1388.08 528.75 1386.75 530.083 1385.41 531.5C1384.16 532.833 1383.04 534.333 1382.04 536C1381.04 537.583 1380.33 539.5 1379.91 541.75C1383.41 541.333 1387.08 540.375 1390.91 538.875C1394.75 537.292 1398.37 535.792 1401.79 534.375C1401.37 531.292 1400.29 528.833 1398.54 527C1396.79 525.083 1394.95 523.792 1393.04 523.125Z" fill="white"/>
</svg>
