<svg width="1920" height="1080" viewBox="0 0 1920 1080" fill="none" xmlns="http://www.w3.org/2000/svg">
<rect width="1920" height="1080" fill="#1C1D26"/>
<path d="M831.912 540.844C829.275 540.844 826.858 541.357 824.661 542.382C822.464 543.408 820.633 544.836 819.168 546.74H819.058C816.897 542.822 813.272 540.844 808.182 540.844C806.131 540.844 804.153 541.32 802.249 542.273C800.345 543.225 798.66 544.543 797.232 546.301H797.122V541.467H787.308V578.088H797.122V559.777C797.122 557.653 797.452 555.822 798.147 554.284C798.807 552.746 799.722 551.574 800.894 550.805C802.029 550.073 803.348 549.67 804.849 549.67C809.17 549.67 811.331 552.856 811.331 559.191V578.125H821.145V559.777C821.145 557.653 821.475 555.822 822.134 554.284C822.794 552.746 823.709 551.574 824.844 550.805C825.943 550.073 827.225 549.67 828.616 549.67C832.864 549.67 835.025 552.856 835.025 559.191V578.125H844.839V556.811C844.839 551.391 843.704 547.4 841.434 544.763C839.163 542.163 836.014 540.844 831.912 540.844Z" fill="white"/>
<path d="M871.756 578.711C875.491 578.711 878.86 577.941 881.827 576.367C884.756 574.792 887.064 572.558 888.748 569.665C890.396 566.809 891.238 563.513 891.238 559.814C891.238 557.031 890.726 554.467 889.773 552.124C888.821 549.78 887.466 547.766 885.782 546.118C884.061 544.47 882.01 543.188 879.593 542.236C877.176 541.32 874.539 540.844 871.756 540.844C868.899 540.844 866.226 541.32 863.809 542.273C861.356 543.225 859.305 544.543 857.62 546.227C855.936 547.912 854.617 549.89 853.665 552.233C852.713 554.577 852.273 557.104 852.273 559.814C852.273 562.011 852.567 564.062 853.152 565.966C853.738 567.907 854.617 569.665 855.789 571.203C856.924 572.741 858.279 574.096 859.854 575.195C861.429 576.33 863.223 577.209 865.274 577.795C867.288 578.417 869.449 578.711 871.756 578.711ZM871.756 569.921C868.973 569.921 866.666 568.969 864.871 567.028C863.077 565.088 862.198 562.67 862.198 559.814C862.198 556.884 863.077 554.467 864.834 552.563C866.592 550.659 868.899 549.67 871.756 549.67C874.466 549.67 876.736 550.622 878.568 552.526C880.362 554.431 881.277 556.848 881.277 559.814C881.277 562.744 880.362 565.161 878.531 567.065C876.7 568.969 874.429 569.921 871.756 569.921Z" fill="white"/>
<path d="M920.865 540.844C918.594 540.844 916.434 541.32 914.383 542.236C912.332 543.151 910.574 544.47 909.109 546.191H909V541.467H899.185V578.088H909V559.667C909 556.481 909.732 554.028 911.233 552.27C912.735 550.549 914.749 549.67 917.313 549.67C919.693 549.67 921.451 550.366 922.623 551.721C923.758 553.112 924.344 555.456 924.344 558.825V578.125H934.158V556.372C934.158 553.625 933.829 551.245 933.206 549.194C932.547 547.18 931.631 545.568 930.423 544.36C929.214 543.188 927.823 542.309 926.248 541.723C924.673 541.137 922.879 540.844 920.865 540.844Z" fill="white"/>
<path d="M977.701 559.448C977.701 555.896 976.931 552.71 975.467 549.89C973.965 547.07 971.841 544.873 969.131 543.261C966.385 541.65 963.235 540.844 959.72 540.844C957.156 540.844 954.739 541.32 952.505 542.236C950.235 543.188 948.331 544.47 946.719 546.118C945.108 547.766 943.863 549.78 942.947 552.124C941.995 554.467 941.556 557.031 941.556 559.741C941.556 563.476 942.361 566.809 944.009 569.702C945.657 572.631 947.928 574.865 950.784 576.403C953.641 577.941 956.827 578.711 960.416 578.711C963.931 578.711 967.007 578.088 969.717 576.843C972.391 575.598 974.551 573.913 976.236 571.789L969.864 565.856C967.556 568.64 964.627 570.031 961.111 569.995C958.768 569.995 956.753 569.336 955.106 568.09C953.457 566.845 952.359 565.161 951.773 562.963H977.444C977.591 562.377 977.701 561.206 977.701 559.448ZM960.049 549.487C962.1 549.487 963.821 550.073 965.176 551.208C966.494 552.343 967.447 553.918 967.959 555.896H951.809C952.359 553.845 953.348 552.233 954.812 551.135C956.277 550.036 957.998 549.487 960.049 549.487Z" fill="white"/>
<path d="M1007.62 541.466L999.234 564.135H999.124L990.152 541.466H979.898L994.546 575.817L988.028 592.919H998.062L1017.8 541.466H1007.62Z" fill="white"/>
<path d="M1043.55 541.137C1041.06 541.137 1038.71 541.65 1036.59 542.638C1034.46 543.664 1032.63 545.092 1031.13 546.96H1030.98V541.576H1024.91V592.919H1030.95V572.668H1031.09C1032.56 574.572 1034.39 576 1036.51 577.026C1038.64 578.051 1040.95 578.564 1043.51 578.564C1046 578.564 1048.34 578.125 1050.54 577.246C1052.74 576.367 1054.61 575.122 1056.22 573.51C1057.83 571.936 1059.07 569.995 1060.02 567.651C1060.94 565.344 1061.42 562.817 1061.42 560.07C1061.42 556.518 1060.65 553.295 1059.11 550.402C1057.57 547.546 1055.45 545.275 1052.74 543.627C1049.99 541.979 1046.91 541.137 1043.55 541.137ZM1042.92 572.998C1041.31 572.998 1039.77 572.704 1038.31 572.082C1036.84 571.459 1035.53 570.58 1034.43 569.482C1033.29 568.383 1032.41 566.992 1031.75 565.38C1031.09 563.769 1030.76 562.011 1030.76 560.107C1030.76 557.653 1031.28 555.383 1032.34 553.332C1033.36 551.281 1034.83 549.67 1036.7 548.498C1038.53 547.326 1040.58 546.703 1042.85 546.703C1046.37 546.703 1049.33 547.949 1051.68 550.402C1054.02 552.892 1055.23 556.115 1055.23 560.107C1055.23 563.842 1054.09 566.955 1051.82 569.372C1049.55 571.789 1046.58 572.998 1042.92 572.998Z" fill="white"/>
<path d="M1087.35 578.564C1090.9 578.564 1094.12 577.795 1096.98 576.22C1099.83 574.682 1102.07 572.448 1103.68 569.592C1105.29 566.735 1106.13 563.513 1106.13 559.887C1106.13 556.262 1105.29 553.002 1103.68 550.146C1102.07 547.289 1099.83 545.056 1096.98 543.481C1094.12 541.943 1090.9 541.137 1087.35 541.137C1084.56 541.137 1081.96 541.65 1079.62 542.602C1077.24 543.554 1075.22 544.873 1073.61 546.557C1072 548.242 1070.72 550.219 1069.8 552.526C1068.89 554.833 1068.45 557.287 1068.45 559.887C1068.45 562.524 1068.89 564.977 1069.8 567.248C1070.72 569.518 1072 571.496 1073.61 573.181C1075.22 574.865 1077.24 576.184 1079.62 577.136C1081.96 578.088 1084.56 578.564 1087.35 578.564ZM1087.35 572.961C1084.86 572.961 1082.66 572.375 1080.72 571.203C1078.74 570.031 1077.24 568.456 1076.17 566.479C1075.11 564.501 1074.6 562.304 1074.6 559.887C1074.6 557.47 1075.11 555.273 1076.17 553.259C1077.2 551.281 1078.7 549.67 1080.68 548.498C1082.62 547.326 1084.86 546.74 1087.35 546.74C1089.69 546.74 1091.81 547.289 1093.72 548.388C1095.62 549.487 1097.16 551.062 1098.3 553.075C1099.39 555.09 1099.98 557.36 1099.98 559.887C1099.98 562.414 1099.39 564.685 1098.3 566.662C1097.16 568.676 1095.62 570.214 1093.72 571.313C1091.78 572.412 1089.65 572.961 1087.35 572.961Z" fill="white"/>
<path d="M1125.43 578.563C1126.75 578.563 1128.03 578.454 1129.2 578.234C1130.37 578.014 1131.29 577.721 1132.02 577.428C1132.72 577.135 1133.45 576.733 1134.26 576.293L1132.64 570.983C1130.45 572.228 1128.4 572.85 1126.49 572.85C1124.81 572.85 1123.67 572.338 1123.01 571.312C1122.35 570.287 1122.02 568.602 1122.02 566.295V546.85H1134.11V541.576H1122.02V528.429L1115.94 529.088V541.576H1111.29V546.85H1115.94V567.211C1115.94 574.792 1119.09 578.563 1125.43 578.563Z" fill="white"/>
<path d="M1057 484L1086.62 520.338H1027.38L1057 484Z" fill="#FF8E00"/>
<path d="M1114 499.675L1109.42 520.337H1072.68L1114 499.675Z" fill="#FF8E00"/>
<path d="M1000 499.675L1004.58 520.337H1041.32L1000 499.675Z" fill="#FF8E00"/>
</svg>
