<svg width="1920" height="1080" viewBox="0 0 1920 1080" fill="none" xmlns="http://www.w3.org/2000/svg">
<path d="M0 0H1920V1080H0V0Z" fill="#242424"/>
<path d="M681.9 579.25C681.067 579.917 680.567 580.792 680.4 581.875C680.233 582.875 680.025 583.875 679.775 584.875C679.525 585.875 679.067 586.75 678.4 587.5C677.817 588.167 676.733 588.458 675.15 588.375C674.817 588.792 674.733 589.042 674.9 589.125C675.15 589.208 675.358 589.583 675.525 590.25C674.358 590.083 673.525 590.167 673.025 590.5C672.525 590.833 671.9 591.083 671.15 591.25C669.233 590.667 667.608 589.625 666.275 588.125C665.025 586.542 663.9 584.833 662.9 583C661.983 581.167 661.15 579.292 660.4 577.375C659.733 575.458 659.025 573.792 658.275 572.375C658.275 572.042 658.442 571.917 658.775 572C659.025 572 659.275 572 659.525 572C659.108 571.167 658.817 570.25 658.65 569.25C658.4 568.167 657.983 567.292 657.4 566.625C659.817 561.458 662.4 556.083 665.15 550.5C667.9 544.833 670.65 539.125 673.4 533.375C676.233 527.542 679.025 521.708 681.775 515.875C684.608 509.958 687.317 504.167 689.9 498.5C692.233 499.333 694.483 500.333 696.65 501.5C698.9 502.583 700.942 503.875 702.775 505.375C704.608 506.875 706.15 508.625 707.4 510.625C708.733 512.542 709.608 514.75 710.025 517.25C709.858 517.75 709.65 517.917 709.4 517.75C709.15 517.583 708.942 517.667 708.775 518C709.192 518.5 709.4 518.875 709.4 519.125C709.483 519.292 709.483 519.5 709.4 519.75C709.317 519.917 709.275 520.167 709.275 520.5C709.275 520.833 709.483 521.292 709.9 521.875C709.483 521.792 709.192 521.875 709.025 522.125C708.858 522.292 708.567 522.292 708.15 522.125C708.567 523.292 708.692 524.208 708.525 524.875C708.358 525.542 708.108 526.167 707.775 526.75C707.442 527.25 707.15 527.833 706.9 528.5C706.733 529.083 706.817 529.917 707.15 531C706.817 531 706.567 531.083 706.4 531.25C706.317 531.333 706.233 531.458 706.15 531.625C706.067 531.792 705.942 531.958 705.775 532.125C705.692 532.208 705.483 532.208 705.15 532.125C705.4 534.292 705.483 536.5 705.4 538.75C705.317 540.917 705.233 543.167 705.15 545.5C705.067 547.75 705.067 550.083 705.15 552.5C705.233 554.917 705.567 557.417 706.15 560C709.733 557.917 712.608 555.208 714.775 551.875C717.025 548.542 718.775 544.833 720.025 540.75C721.358 536.667 722.358 532.292 723.025 527.625C723.775 522.958 724.525 518.208 725.275 513.375C726.192 512.458 726.9 511.333 727.4 510C727.983 508.667 728.442 507.292 728.775 505.875C729.192 504.458 729.567 503.042 729.9 501.625C730.317 500.125 730.858 498.792 731.525 497.625C733.025 497.792 734.275 498.25 735.275 499C736.358 499.667 737.358 500.458 738.275 501.375C739.192 502.208 740.15 503 741.15 503.75C742.15 504.5 743.4 505 744.9 505.25C746.067 506.917 747.15 508.542 748.15 510.125C749.15 511.625 749.817 513.333 750.15 515.25C749.65 516.083 749.275 517 749.025 518C748.775 519 748.483 520 748.15 521C747.9 522 747.525 522.917 747.025 523.75C746.525 524.583 745.817 525.292 744.9 525.875C744.65 528.375 744.275 530.708 743.775 532.875C743.275 535.042 742.817 537.167 742.4 539.25C741.983 541.333 741.608 543.5 741.275 545.75C740.942 548 740.817 550.458 740.9 553.125C740.15 555.542 739.317 558.042 738.4 560.625C737.483 563.125 736.817 565.458 736.4 567.625C734.817 568.875 733.567 570.417 732.65 572.25C731.733 574.083 730.775 575.917 729.775 577.75C729.358 578.083 729.108 578.167 729.025 578C728.942 577.75 728.567 577.583 727.9 577.5C727.983 578.25 727.817 578.75 727.4 579C727.067 579.167 727.108 579.75 727.525 580.75C726.108 581.417 724.858 582.292 723.775 583.375C722.692 584.458 721.483 585.458 720.15 586.375C718.9 587.292 717.4 587.917 715.65 588.25C713.983 588.5 711.775 588.125 709.025 587.125C704.942 584.125 701.275 580.667 698.025 576.75C694.775 572.833 692.192 568.208 690.275 562.875C689.442 563.125 688.817 563.667 688.4 564.5C687.983 565.333 687.608 566.208 687.275 567.125C686.942 568.042 686.608 568.875 686.275 569.625C685.942 570.375 685.442 570.75 684.775 570.75C684.608 571.5 684.275 572.208 683.775 572.875C683.358 573.458 682.942 574.083 682.525 574.75C682.108 575.333 681.775 576 681.525 576.75C681.358 577.5 681.483 578.333 681.9 579.25ZM770.625 591.5C766.958 592 763.625 591.833 760.625 591C757.625 590.167 754.917 588.875 752.5 587.125C750.167 585.375 748.125 583.292 746.375 580.875C744.708 578.458 743.333 575.875 742.25 573.125C741.5 567.458 741.708 562.333 742.875 557.75C744.042 553.083 745.75 548.792 748 544.875C750.25 540.958 752.792 537.292 755.625 533.875C758.542 530.458 761.333 527.167 764 524C764.583 524.25 765.042 524.25 765.375 524C765.792 523.75 766.125 523.417 766.375 523C766.708 522.583 767.042 522.167 767.375 521.75C767.792 521.333 768.25 521.042 768.75 520.875C769.083 520.125 769.5 519.5 770 519C770.583 518.5 771.167 518.042 771.75 517.625C772.417 517.125 773 516.625 773.5 516.125C774.083 515.625 774.583 515 775 514.25C775.833 514.083 776.542 513.792 777.125 513.375C777.792 512.958 778.375 512.5 778.875 512C779.458 511.5 780.042 511.042 780.625 510.625C781.208 510.208 781.917 509.875 782.75 509.625V508C784.583 507.167 785.917 506.25 786.75 505.25C787.583 504.25 788.583 502.958 789.75 501.375C790.667 501.292 791.375 501.25 791.875 501.25C792.458 501.25 793.333 501.167 794.5 501C795.25 499.583 795.958 498.542 796.625 497.875C797.292 497.208 798.25 496.458 799.5 495.625C800.75 496.292 802.083 496.708 803.5 496.875C804.917 496.958 806.208 497.583 807.375 498.75C807.458 499.75 807.75 500.542 808.25 501.125C808.75 501.625 809.292 502.125 809.875 502.625C810.458 503.042 811.042 503.5 811.625 504C812.208 504.5 812.583 505.208 812.75 506.125C813.167 506.125 813.417 506.042 813.5 505.875C813.667 505.708 813.958 505.667 814.375 505.75C814.542 506.417 814.708 506.958 814.875 507.375C815.042 507.792 815.208 508.167 815.375 508.5C815.625 508.833 815.833 509.208 816 509.625C816.25 510.042 816.458 510.542 816.625 511.125C816.208 512.125 815.833 513.208 815.5 514.375C815.167 515.458 814.5 516.208 813.5 516.625C813.5 517.292 813.75 517.667 814.25 517.75C814.75 517.75 815.042 518.042 815.125 518.625C815.208 519.375 815.083 520 814.75 520.5C817.083 524.417 819.208 528.542 821.125 532.875C823.042 537.125 825.208 541.208 827.625 545.125C827.458 546.292 827.5 547.458 827.75 548.625C828.083 549.708 828.458 550.792 828.875 551.875C829.375 552.958 829.833 554.042 830.25 555.125C830.667 556.208 830.958 557.292 831.125 558.375C831.292 559.792 831.292 561.333 831.125 563C830.958 564.583 830.625 566.125 830.125 567.625C829.625 569.125 828.958 570.542 828.125 571.875C827.292 573.125 826.333 574.083 825.25 574.75C823.917 576.417 822.25 577.792 820.25 578.875C818.25 579.875 816.417 581.083 814.75 582.5C813.583 583.167 812.333 583.667 811 584C809.667 584.25 808.292 584.542 806.875 584.875C805.792 585.542 804.5 586.208 803 586.875C801.5 587.458 799.958 588 798.375 588.5C796.792 589 795.208 589.417 793.625 589.75C792.042 590 790.625 590.042 789.375 589.875C786.375 590.958 783.458 591.708 780.625 592.125C777.792 592.542 774.458 592.333 770.625 591.5ZM772.25 546C771.417 547.917 770.417 549.667 769.25 551.25C768.167 552.75 767.083 554.292 766 555.875C764.917 557.458 763.958 559.167 763.125 561C762.375 562.75 761.958 564.833 761.875 567.25C763.542 568.667 765.5 569.542 767.75 569.875C770.083 570.125 772.458 570.167 774.875 570C777.292 569.75 779.708 569.417 782.125 569C784.542 568.583 786.708 568.375 788.625 568.375C788.625 567.625 788.958 567.25 789.625 567.25C793.125 566.917 796.375 565.958 799.375 564.375C802.375 562.708 805.5 561.042 808.75 559.375C809.167 558.375 809.708 557.5 810.375 556.75C811.042 556 811.417 554.917 811.5 553.5C811.083 552.75 810.792 552.125 810.625 551.625C810.542 551.125 810.5 550.375 810.5 549.375C808.333 546.375 806.458 543.125 804.875 539.625C803.292 536.042 801.458 532.667 799.375 529.5C799.208 529.917 798.875 530.333 798.375 530.75C797.875 531.167 797.333 531.083 796.75 530.5C796.5 531.333 796.125 531.917 795.625 532.25C795.125 532.5 794.542 532.625 793.875 532.625C793.292 532.625 792.667 532.5 792 532.25C791.417 532 790.875 531.667 790.375 531.25C787.458 533.583 784.542 535.833 781.625 538C778.792 540.167 776.208 542.708 773.875 545.625C773.458 545.875 773.208 545.958 773.125 545.875C773.042 545.792 772.75 545.833 772.25 546ZM871.95 534.625C872.2 533.375 872.367 532.375 872.45 531.625C872.533 530.792 872.242 529.917 871.575 529C871.908 527.667 872.158 526.625 872.325 525.875C872.575 525.125 872.617 524.083 872.45 522.75C873.2 520.583 874.325 518.75 875.825 517.25C877.408 515.75 879.117 514.5 880.95 513.5C882.783 512.417 884.7 511.542 886.7 510.875C888.7 510.125 890.575 509.5 892.325 509C892.325 508.667 892.158 508.5 891.825 508.5C891.492 508.5 891.408 508.292 891.575 507.875C896.075 507.042 900.575 505.833 905.075 504.25C909.658 502.667 914.325 501.25 919.075 500C923.825 498.75 928.7 498 933.7 497.75C938.7 497.417 943.95 498.042 949.45 499.625C949.783 500.625 950.242 501.583 950.825 502.5C951.408 503.417 951.992 504.333 952.575 505.25C953.242 506.083 953.825 506.917 954.325 507.75C954.825 508.583 955.117 509.458 955.2 510.375C956.2 511.292 956.992 512.292 957.575 513.375C958.242 514.375 958.367 515.75 957.95 517.5C957.033 518.167 956.075 518.833 955.075 519.5C954.075 520.167 953.033 520.792 951.95 521.375C948.2 520.458 944.45 520.125 940.7 520.375C936.95 520.625 933.575 520.917 930.575 521.25C929.658 520.25 928.575 519.792 927.325 519.875C926.075 519.875 924.742 520.083 923.325 520.5C921.992 520.833 920.658 521.208 919.325 521.625C917.992 521.958 916.742 522.042 915.575 521.875C914.658 522.708 913.45 523.292 911.95 523.625C910.45 523.875 908.867 524.083 907.2 524.25C907.117 524.667 907.2 524.958 907.45 525.125C907.7 525.292 907.742 525.625 907.575 526.125C908.158 526.875 908.95 527.417 909.95 527.75C910.95 528 911.95 528.25 912.95 528.5C914.033 528.75 914.992 529.125 915.825 529.625C916.658 530.042 917.2 530.75 917.45 531.75C918.95 531.833 920.242 532.25 921.325 533C922.408 533.667 923.325 534.5 924.075 535.5C924.825 536.5 925.367 537.583 925.7 538.75C926.033 539.833 926.158 540.833 926.075 541.75C926.408 542.583 926.742 542.917 927.075 542.75C927.492 542.583 927.95 542.792 928.45 543.375C928.783 544.625 929.533 545.958 930.7 547.375C931.95 548.708 932.908 550.167 933.575 551.75C933.742 554.25 933.867 556.5 933.95 558.5C934.117 560.5 933.783 562.458 932.95 564.375C931.533 568.042 929.492 571.333 926.825 574.25C924.158 577.167 921.117 579.75 917.7 582C914.367 584.167 910.825 586.083 907.075 587.75C903.325 589.333 899.617 590.667 895.95 591.75C895.617 591.667 895.2 591.667 894.7 591.75C894.283 591.833 894.2 591.583 894.45 591C893.7 591.667 892.825 592.083 891.825 592.25C890.908 592.417 889.867 592.458 888.7 592.375C887.617 592.375 886.492 592.333 885.325 592.25C884.242 592.167 883.158 592.208 882.075 592.375C881.408 591.708 880.783 591.042 880.2 590.375C879.7 589.708 879.283 588.917 878.95 588C878.533 587.917 878.325 587.667 878.325 587.25C878.408 586.75 878.242 586.5 877.825 586.5C877.825 586.167 877.867 585.917 877.95 585.75C878.033 585.583 878.117 585.417 878.2 585.25C878.533 585 878.658 584.833 878.575 584.75C878.575 584.583 878.45 584.458 878.2 584.375C878.033 584.208 877.825 584.042 877.575 583.875C877.408 583.708 877.367 583.5 877.45 583.25C877.867 582.5 877.992 581.625 877.825 580.625C877.742 579.542 877.658 578.458 877.575 577.375C877.492 576.292 877.575 575.292 877.825 574.375C878.075 573.375 878.783 572.542 879.95 571.875C883.367 572.208 886.575 572.042 889.575 571.375C892.658 570.708 895.533 569.792 898.2 568.625C900.95 567.458 903.533 566.208 905.95 564.875C908.45 563.458 910.867 562.167 913.2 561C913.45 560.167 913.825 559.458 914.325 558.875C914.908 558.292 915.492 557.75 916.075 557.25C916.658 556.667 917.2 556.083 917.7 555.5C918.2 554.833 918.575 554.042 918.825 553.125C918.908 552.792 918.908 552.542 918.825 552.375C918.742 552.208 918.617 552.083 918.45 552C918.283 551.833 918.117 551.667 917.95 551.5C917.783 551.333 917.7 551.083 917.7 550.75C917.45 550.667 917.2 550.583 916.95 550.5C916.783 550.417 916.617 550.375 916.45 550.375C914.283 549.292 911.992 548.375 909.575 547.625C907.158 546.875 905.117 546.042 903.45 545.125C902.45 545.792 901.45 545.958 900.45 545.625C899.45 545.292 898.242 544.958 896.825 544.625C893.325 544.458 889.992 544.125 886.825 543.625C883.742 543.125 880.742 542.25 877.825 541C877.658 540.5 877.45 540.083 877.2 539.75C876.95 539.333 876.367 539.208 875.45 539.375C874.867 538.542 874.242 537.792 873.575 537.125C872.992 536.375 872.45 535.542 871.95 534.625ZM965.3 591.5C961.633 592 958.3 591.833 955.3 591C952.3 590.167 949.592 588.875 947.175 587.125C944.842 585.375 942.8 583.292 941.05 580.875C939.383 578.458 938.008 575.875 936.925 573.125C936.175 567.458 936.383 562.333 937.55 557.75C938.717 553.083 940.425 548.792 942.675 544.875C944.925 540.958 947.467 537.292 950.3 533.875C953.217 530.458 956.008 527.167 958.675 524C959.258 524.25 959.717 524.25 960.05 524C960.467 523.75 960.8 523.417 961.05 523C961.383 522.583 961.717 522.167 962.05 521.75C962.467 521.333 962.925 521.042 963.425 520.875C963.758 520.125 964.175 519.5 964.675 519C965.258 518.5 965.842 518.042 966.425 517.625C967.092 517.125 967.675 516.625 968.175 516.125C968.758 515.625 969.258 515 969.675 514.25C970.508 514.083 971.217 513.792 971.8 513.375C972.467 512.958 973.05 512.5 973.55 512C974.133 511.5 974.717 511.042 975.3 510.625C975.883 510.208 976.592 509.875 977.425 509.625V508C979.258 507.167 980.592 506.25 981.425 505.25C982.258 504.25 983.258 502.958 984.425 501.375C985.342 501.292 986.05 501.25 986.55 501.25C987.133 501.25 988.008 501.167 989.175 501C989.925 499.583 990.633 498.542 991.3 497.875C991.967 497.208 992.925 496.458 994.175 495.625C995.425 496.292 996.758 496.708 998.175 496.875C999.592 496.958 1000.88 497.583 1002.05 498.75C1002.13 499.75 1002.42 500.542 1002.92 501.125C1003.42 501.625 1003.97 502.125 1004.55 502.625C1005.13 503.042 1005.72 503.5 1006.3 504C1006.88 504.5 1007.26 505.208 1007.42 506.125C1007.84 506.125 1008.09 506.042 1008.17 505.875C1008.34 505.708 1008.63 505.667 1009.05 505.75C1009.22 506.417 1009.38 506.958 1009.55 507.375C1009.72 507.792 1009.88 508.167 1010.05 508.5C1010.3 508.833 1010.51 509.208 1010.67 509.625C1010.92 510.042 1011.13 510.542 1011.3 511.125C1010.88 512.125 1010.51 513.208 1010.17 514.375C1009.84 515.458 1009.17 516.208 1008.17 516.625C1008.17 517.292 1008.42 517.667 1008.92 517.75C1009.42 517.75 1009.72 518.042 1009.8 518.625C1009.88 519.375 1009.76 520 1009.42 520.5C1011.76 524.417 1013.88 528.542 1015.8 532.875C1017.72 537.125 1019.88 541.208 1022.3 545.125C1022.13 546.292 1022.17 547.458 1022.42 548.625C1022.76 549.708 1023.13 550.792 1023.55 551.875C1024.05 552.958 1024.51 554.042 1024.92 555.125C1025.34 556.208 1025.63 557.292 1025.8 558.375C1025.97 559.792 1025.97 561.333 1025.8 563C1025.63 564.583 1025.3 566.125 1024.8 567.625C1024.3 569.125 1023.63 570.542 1022.8 571.875C1021.97 573.125 1021.01 574.083 1019.92 574.75C1018.59 576.417 1016.92 577.792 1014.92 578.875C1012.92 579.875 1011.09 581.083 1009.42 582.5C1008.26 583.167 1007.01 583.667 1005.67 584C1004.34 584.25 1002.97 584.542 1001.55 584.875C1000.47 585.542 999.175 586.208 997.675 586.875C996.175 587.458 994.633 588 993.05 588.5C991.467 589 989.883 589.417 988.3 589.75C986.717 590 985.3 590.042 984.05 589.875C981.05 590.958 978.133 591.708 975.3 592.125C972.467 592.542 969.133 592.333 965.3 591.5ZM966.925 546C966.092 547.917 965.092 549.667 963.925 551.25C962.842 552.75 961.758 554.292 960.675 555.875C959.592 557.458 958.633 559.167 957.8 561C957.05 562.75 956.633 564.833 956.55 567.25C958.217 568.667 960.175 569.542 962.425 569.875C964.758 570.125 967.133 570.167 969.55 570C971.967 569.75 974.383 569.417 976.8 569C979.217 568.583 981.383 568.375 983.3 568.375C983.3 567.625 983.633 567.25 984.3 567.25C987.8 566.917 991.05 565.958 994.05 564.375C997.05 562.708 1000.17 561.042 1003.42 559.375C1003.84 558.375 1004.38 557.5 1005.05 556.75C1005.72 556 1006.09 554.917 1006.17 553.5C1005.76 552.75 1005.47 552.125 1005.3 551.625C1005.22 551.125 1005.17 550.375 1005.17 549.375C1003.01 546.375 1001.13 543.125 999.55 539.625C997.967 536.042 996.133 532.667 994.05 529.5C993.883 529.917 993.55 530.333 993.05 530.75C992.55 531.167 992.008 531.083 991.425 530.5C991.175 531.333 990.8 531.917 990.3 532.25C989.8 532.5 989.217 532.625 988.55 532.625C987.967 532.625 987.342 532.5 986.675 532.25C986.092 532 985.55 531.667 985.05 531.25C982.133 533.583 979.217 535.833 976.3 538C973.467 540.167 970.883 542.708 968.55 545.625C968.133 545.875 967.883 545.958 967.8 545.875C967.717 545.792 967.425 545.833 966.925 546ZM1030.52 529.125C1030.36 528.042 1030.15 527.375 1029.9 527.125C1030.48 525.625 1030.9 524.167 1031.15 522.75C1031.48 521.25 1031.73 519.833 1031.9 518.5C1032.07 517.333 1032.23 516.25 1032.4 515.25C1032.65 514.25 1032.94 513.292 1033.27 512.375C1034.69 512.042 1035.73 511.458 1036.4 510.625C1037.15 509.708 1037.73 508.917 1038.15 508.25C1039.65 508.167 1040.61 508.375 1041.02 508.875C1041.52 509.375 1042.07 510.208 1042.65 511.375C1043.07 512.292 1043.65 513.292 1044.4 514.375C1045.15 515.375 1046.27 516.167 1047.77 516.75C1048.02 517.667 1048.32 518.542 1048.65 519.375C1048.98 520.208 1049.36 521.083 1049.77 522C1050.52 523.75 1051.23 525.583 1051.9 527.5C1052.57 529.333 1052.94 531.083 1053.02 532.75C1052.02 534.667 1051.23 536.875 1050.65 539.375C1050.15 541.875 1049.82 544.417 1049.65 547C1049.57 549.5 1049.65 551.917 1049.9 554.25C1050.15 556.583 1050.57 558.542 1051.15 560.125L1051.9 562.125L1054.65 561.875C1057.65 561.125 1060.36 560.292 1062.77 559.375C1065.19 558.375 1067.44 557.208 1069.52 555.875C1071.61 554.542 1073.61 553.042 1075.52 551.375C1077.44 549.625 1079.44 547.583 1081.52 545.25C1083.52 542.917 1085.32 540.292 1086.9 537.375C1088.48 534.375 1089.77 531.292 1090.77 528.125C1091.86 524.958 1092.69 521.792 1093.27 518.625C1093.86 515.458 1094.23 512.5 1094.4 509.75C1095.98 509 1096.86 507.792 1097.02 506.125L1096.65 504.5C1096.4 504.083 1096.27 503.708 1096.27 503.375C1096.36 502.958 1096.48 502.583 1096.65 502.25C1097.32 500.333 1098.73 498.917 1100.9 498C1102.4 499 1103.77 500.083 1105.02 501.25C1106.36 502.417 1107.57 503.583 1108.65 504.75C1108.82 507 1109.15 508.958 1109.65 510.625C1110.15 512.208 1110.69 513.75 1111.27 515.25C1111.86 516.667 1112.36 518.042 1112.77 519.375C1113.27 520.708 1113.61 522.333 1113.77 524.25C1112.94 526.75 1112.32 529.125 1111.9 531.375C1111.57 533.542 1111.23 535.833 1110.9 538.25L1110.65 539.625C1109.15 542.208 1107.65 544.875 1106.15 547.625C1104.73 550.292 1103.57 552.625 1102.65 554.625C1102.15 555.125 1101.69 555.708 1101.27 556.375C1100.94 557.042 1100.61 557.708 1100.27 558.375C1100.11 558.625 1099.86 559.042 1099.52 559.625C1099.27 560.208 1099.02 560.625 1098.77 560.875L1095.77 559.75L1095.02 563.625L1093.02 564.125L1091.52 565.875C1089.61 569.208 1087.57 572 1085.4 574.25C1083.32 576.5 1080.94 578.5 1078.27 580.25C1075.69 582 1072.73 583.667 1069.4 585.25C1066.15 586.75 1062.4 588.375 1058.15 590.125C1056.48 589.875 1055.02 589.75 1053.77 589.75C1052.61 589.667 1051.44 589.583 1050.27 589.5C1049.11 589.5 1047.98 589.458 1046.9 589.375C1045.82 589.292 1044.57 589.167 1043.15 589C1042.82 588.25 1042.36 587.708 1041.77 587.375C1041.19 587.042 1040.65 586.875 1040.15 586.875C1038.48 586.042 1037.23 584.875 1036.4 583.375C1035.57 581.875 1034.69 580.208 1033.77 578.375C1033.36 577.375 1032.9 576.375 1032.4 575.375C1031.98 574.375 1031.44 573.417 1030.77 572.5L1033.27 571.75L1030.02 568C1029.77 567.75 1029.48 567.5 1029.15 567.25C1028.9 567 1028.65 566.708 1028.4 566.375V564C1028.07 557.167 1027.9 550.875 1027.9 545.125C1027.98 539.292 1028.77 534.167 1030.27 529.75L1030.52 529.125ZM1126.75 579.25C1125.92 579.917 1125.42 580.792 1125.25 581.875C1125.08 582.875 1124.88 583.875 1124.62 584.875C1124.38 585.875 1123.92 586.75 1123.25 587.5C1122.67 588.167 1121.58 588.458 1120 588.375C1119.67 588.792 1119.58 589.042 1119.75 589.125C1120 589.208 1120.21 589.583 1120.38 590.25C1119.21 590.083 1118.38 590.167 1117.88 590.5C1117.38 590.833 1116.75 591.083 1116 591.25C1114.08 590.667 1112.46 589.625 1111.12 588.125C1109.88 586.542 1108.75 584.833 1107.75 583C1106.83 581.167 1106 579.292 1105.25 577.375C1104.58 575.458 1103.88 573.792 1103.12 572.375C1103.12 572.042 1103.29 571.917 1103.62 572C1103.88 572 1104.12 572 1104.38 572C1103.96 571.167 1103.67 570.25 1103.5 569.25C1103.25 568.167 1102.83 567.292 1102.25 566.625C1104.67 561.458 1107.25 556.083 1110 550.5C1112.75 544.833 1115.5 539.125 1118.25 533.375C1121.08 527.542 1123.88 521.708 1126.62 515.875C1129.46 509.958 1132.17 504.167 1134.75 498.5C1137.08 499.333 1139.33 500.333 1141.5 501.5C1143.75 502.583 1145.79 503.875 1147.62 505.375C1149.46 506.875 1151 508.625 1152.25 510.625C1153.58 512.542 1154.46 514.75 1154.88 517.25C1154.71 517.75 1154.5 517.917 1154.25 517.75C1154 517.583 1153.79 517.667 1153.62 518C1154.04 518.5 1154.25 518.875 1154.25 519.125C1154.33 519.292 1154.33 519.5 1154.25 519.75C1154.17 519.917 1154.12 520.167 1154.12 520.5C1154.12 520.833 1154.33 521.292 1154.75 521.875C1154.33 521.792 1154.04 521.875 1153.88 522.125C1153.71 522.292 1153.42 522.292 1153 522.125C1153.42 523.292 1153.54 524.208 1153.38 524.875C1153.21 525.542 1152.96 526.167 1152.62 526.75C1152.29 527.25 1152 527.833 1151.75 528.5C1151.58 529.083 1151.67 529.917 1152 531C1151.67 531 1151.42 531.083 1151.25 531.25C1151.17 531.333 1151.08 531.458 1151 531.625C1150.92 531.792 1150.79 531.958 1150.62 532.125C1150.54 532.208 1150.33 532.208 1150 532.125C1150.25 534.292 1150.33 536.5 1150.25 538.75C1150.17 540.917 1150.08 543.167 1150 545.5C1149.92 547.75 1149.92 550.083 1150 552.5C1150.08 554.917 1150.42 557.417 1151 560C1154.58 557.917 1157.46 555.208 1159.62 551.875C1161.88 548.542 1163.62 544.833 1164.88 540.75C1166.21 536.667 1167.21 532.292 1167.88 527.625C1168.62 522.958 1169.38 518.208 1170.12 513.375C1171.04 512.458 1171.75 511.333 1172.25 510C1172.83 508.667 1173.29 507.292 1173.62 505.875C1174.04 504.458 1174.42 503.042 1174.75 501.625C1175.17 500.125 1175.71 498.792 1176.38 497.625C1177.88 497.792 1179.12 498.25 1180.12 499C1181.21 499.667 1182.21 500.458 1183.12 501.375C1184.04 502.208 1185 503 1186 503.75C1187 504.5 1188.25 505 1189.75 505.25C1190.92 506.917 1192 508.542 1193 510.125C1194 511.625 1194.67 513.333 1195 515.25C1194.5 516.083 1194.12 517 1193.88 518C1193.62 519 1193.33 520 1193 521C1192.75 522 1192.38 522.917 1191.88 523.75C1191.38 524.583 1190.67 525.292 1189.75 525.875C1189.5 528.375 1189.12 530.708 1188.62 532.875C1188.12 535.042 1187.67 537.167 1187.25 539.25C1186.83 541.333 1186.46 543.5 1186.12 545.75C1185.79 548 1185.67 550.458 1185.75 553.125C1185 555.542 1184.17 558.042 1183.25 560.625C1182.33 563.125 1181.67 565.458 1181.25 567.625C1179.67 568.875 1178.42 570.417 1177.5 572.25C1176.58 574.083 1175.62 575.917 1174.62 577.75C1174.21 578.083 1173.96 578.167 1173.88 578C1173.79 577.75 1173.42 577.583 1172.75 577.5C1172.83 578.25 1172.67 578.75 1172.25 579C1171.92 579.167 1171.96 579.75 1172.38 580.75C1170.96 581.417 1169.71 582.292 1168.62 583.375C1167.54 584.458 1166.33 585.458 1165 586.375C1163.75 587.292 1162.25 587.917 1160.5 588.25C1158.83 588.5 1156.62 588.125 1153.88 587.125C1149.79 584.125 1146.12 580.667 1142.88 576.75C1139.62 572.833 1137.04 568.208 1135.12 562.875C1134.29 563.125 1133.67 563.667 1133.25 564.5C1132.83 565.333 1132.46 566.208 1132.12 567.125C1131.79 568.042 1131.46 568.875 1131.12 569.625C1130.79 570.375 1130.29 570.75 1129.62 570.75C1129.46 571.5 1129.12 572.208 1128.62 572.875C1128.21 573.458 1127.79 574.083 1127.38 574.75C1126.96 575.333 1126.62 576 1126.38 576.75C1126.21 577.5 1126.33 578.333 1126.75 579.25ZM1197.6 592.375C1195.18 591.792 1193.31 590.833 1191.97 589.5C1190.72 588.083 1189.77 586.458 1189.1 584.625C1188.52 582.708 1188.1 580.625 1187.85 578.375C1187.68 576.125 1187.47 573.792 1187.22 571.375C1187.56 570.292 1187.97 569.375 1188.47 568.625C1189.06 567.875 1189.31 566.833 1189.22 565.5C1190.14 562.833 1190.97 560.25 1191.72 557.75C1192.47 555.25 1192.97 552.667 1193.22 550C1193.72 549.25 1194.22 548.75 1194.72 548.5C1195.39 543.75 1195.47 538.875 1194.97 533.875C1194.47 528.875 1193.64 524.25 1192.47 520C1192.56 519.083 1192.68 518.417 1192.85 518C1193.02 517.5 1193.02 517.083 1192.85 516.75C1192.68 516 1192.93 515.625 1193.6 515.625C1194.27 515.625 1194.93 515.625 1195.6 515.625C1195.6 514.125 1195.31 512.667 1194.72 511.25C1194.22 509.75 1193.72 508.042 1193.22 506.125C1193.89 504.625 1194.35 503.167 1194.6 501.75C1194.85 500.333 1195.31 499.042 1195.97 497.875C1198.64 498.708 1201.27 499.667 1203.85 500.75C1206.43 501.833 1208.97 502.917 1211.47 504C1213.97 505 1216.43 506 1218.85 507C1221.27 507.917 1223.64 508.667 1225.97 509.25C1229.56 511.833 1233.22 514.417 1236.97 517C1240.81 519.5 1244.27 522.292 1247.35 525.375C1250.52 528.375 1253.14 531.833 1255.22 535.75C1257.31 539.667 1258.52 544.292 1258.85 549.625C1258.68 550.125 1258.56 550.542 1258.47 550.875C1258.39 551.208 1258.31 551.542 1258.22 551.875C1258.14 552.208 1258.1 552.583 1258.1 553C1258.1 553.417 1258.1 554 1258.1 554.75C1255.1 560 1251.31 564.417 1246.72 568C1242.14 571.583 1237.14 574.75 1231.72 577.5C1226.31 580.25 1220.64 582.792 1214.72 585.125C1208.89 587.375 1203.18 589.792 1197.6 592.375ZM1209.85 521.5C1209.1 521.5 1208.56 521.667 1208.22 522C1209.22 525.75 1209.97 529.292 1210.47 532.625C1210.97 535.958 1211.22 539.292 1211.22 542.625C1211.31 545.958 1211.14 549.375 1210.72 552.875C1210.31 556.375 1209.72 560.167 1208.97 564.25C1210.06 564.167 1211.02 563.958 1211.85 563.625C1212.68 563.292 1213.52 562.917 1214.35 562.5C1215.27 562.083 1216.18 561.708 1217.1 561.375C1218.1 561.042 1219.22 560.833 1220.47 560.75C1220.81 560.083 1221.22 559.583 1221.72 559.25C1222.31 558.833 1222.81 558.417 1223.22 558C1225.31 557.167 1227.39 556.292 1229.47 555.375C1231.56 554.458 1233.47 553.417 1235.22 552.25C1236.97 551.083 1238.56 549.75 1239.97 548.25C1241.39 546.75 1242.56 544.958 1243.47 542.875C1242.81 541.625 1241.97 540.583 1240.97 539.75C1240.06 538.833 1239.06 537.958 1237.97 537.125C1236.97 536.208 1235.97 535.292 1234.97 534.375C1234.06 533.375 1233.31 532.25 1232.72 531C1231.39 530.833 1230.22 530.5 1229.22 530C1228.22 529.417 1227.27 528.875 1226.35 528.375C1225.43 527.792 1224.43 527.25 1223.35 526.75C1222.35 526.25 1221.14 525.958 1219.72 525.875C1217.56 524.708 1215.6 523.917 1213.85 523.5C1212.1 523 1210.77 522.333 1209.85 521.5Z" fill="white"/>
</svg>
