<svg width="1920" height="1080" viewBox="0 0 1920 1080" fill="none" xmlns="http://www.w3.org/2000/svg">
<path d="M0 0H1920V1080H0V0Z" fill="#242424"/>
<path d="M615.712 555.75C615.796 555.417 615.962 555.292 616.212 555.375C616.546 555.375 616.837 555.333 617.087 555.25C616.421 554.583 616.004 553.708 615.837 552.625C615.671 551.458 615.254 550.5 614.587 549.75C614.754 549.333 614.879 548.917 614.962 548.5C615.129 548.083 615.504 547.917 616.087 548C615.837 546.167 615.879 544.458 616.212 542.875C616.546 541.292 617.046 539.792 617.712 538.375C618.462 536.958 619.296 535.583 620.212 534.25C621.212 532.833 622.171 531.417 623.087 530C623.837 529.833 624.296 529.917 624.462 530.25C624.629 530.5 624.921 530.417 625.337 530C626.671 529.083 627.587 528.083 628.087 527C628.587 525.833 628.837 524.583 628.837 523.25C629.587 521.083 630.421 518.958 631.337 516.875C632.337 514.708 633.462 512.708 634.712 510.875C635.962 509.042 637.296 507.458 638.712 506.125C640.129 504.708 641.671 503.625 643.337 502.875C644.504 501.875 645.962 500.958 647.712 500.125C649.546 499.292 651.462 498.667 653.462 498.25C655.546 497.75 657.671 497.5 659.837 497.5C662.004 497.417 664.004 497.625 665.837 498.125C666.254 498.292 666.504 498.208 666.587 497.875C666.671 497.458 666.879 497.25 667.212 497.25C671.379 497.75 675.087 498.583 678.337 499.75C681.671 500.917 684.504 502.542 686.837 504.625C688.421 507.125 689.921 509.833 691.337 512.75C692.754 515.583 693.837 518.583 694.587 521.75C695.421 524.833 695.796 528.042 695.712 531.375C695.629 534.708 694.921 538.042 693.587 541.375C690.671 545.042 687.129 548 682.962 550.25C678.796 552.417 674.296 554.25 669.462 555.75C664.712 557.167 659.754 558.333 654.587 559.25C649.504 560.167 644.546 561.167 639.712 562.25C639.796 564.5 639.796 566.917 639.712 569.5C639.629 572 639.337 574.542 638.837 577.125C638.421 579.625 637.754 582.083 636.837 584.5C636.004 586.917 634.837 589.167 633.337 591.25C631.671 591.167 629.921 591.333 628.087 591.75C626.337 592.167 624.754 592.583 623.337 593C622.671 592.583 622.004 592.167 621.337 591.75C620.754 591.417 620.004 591.208 619.087 591.125C619.337 590.125 619.087 589.083 618.337 588C617.671 586.917 616.962 585.875 616.212 584.875C615.546 583.792 615.087 582.75 614.837 581.75C614.671 580.667 615.171 579.708 616.337 578.875C615.671 578.292 615.337 577.375 615.337 576.125C615.671 576.458 616.087 576.625 616.587 576.625C616.421 575.125 616.587 573.333 617.087 571.25C617.671 569.167 618.129 567.125 618.462 565.125C618.879 563.042 618.962 561.167 618.712 559.5C618.462 557.75 617.462 556.5 615.712 555.75ZM648.212 526.5C647.879 527.417 647.587 528.25 647.337 529C647.171 529.667 646.962 530.292 646.712 530.875C646.462 531.458 646.171 532.042 645.837 532.625C645.587 533.208 645.296 533.875 644.962 534.625C645.129 535.125 645.462 535.5 645.962 535.75C646.462 536 646.796 536.375 646.962 536.875C648.129 536.292 649.296 535.875 650.462 535.625C651.629 535.292 652.796 535.042 653.962 534.875C655.129 534.708 656.296 534.5 657.462 534.25C658.629 534 659.837 533.583 661.087 533C662.337 532.417 663.629 531.958 664.962 531.625C666.379 531.208 667.754 530.792 669.087 530.375C670.421 529.958 671.712 529.5 672.962 529C674.212 528.417 675.296 527.667 676.212 526.75C675.046 525.667 673.296 524.708 670.962 523.875C668.629 523.042 666.087 522.542 663.337 522.375C660.671 522.125 657.962 522.292 655.212 522.875C652.546 523.458 650.212 524.667 648.212 526.5ZM715.687 591.5C712.021 592 708.687 591.833 705.687 591C702.687 590.167 699.979 588.875 697.562 587.125C695.229 585.375 693.187 583.292 691.437 580.875C689.771 578.458 688.396 575.875 687.312 573.125C686.562 567.458 686.771 562.333 687.937 557.75C689.104 553.083 690.812 548.792 693.062 544.875C695.312 540.958 697.854 537.292 700.687 533.875C703.604 530.458 706.396 527.167 709.062 524C709.646 524.25 710.104 524.25 710.437 524C710.854 523.75 711.187 523.417 711.437 523C711.771 522.583 712.104 522.167 712.437 521.75C712.854 521.333 713.312 521.042 713.812 520.875C714.146 520.125 714.562 519.5 715.062 519C715.646 518.5 716.229 518.042 716.812 517.625C717.479 517.125 718.062 516.625 718.562 516.125C719.146 515.625 719.646 515 720.062 514.25C720.896 514.083 721.604 513.792 722.187 513.375C722.854 512.958 723.437 512.5 723.937 512C724.521 511.5 725.104 511.042 725.687 510.625C726.271 510.208 726.979 509.875 727.812 509.625V508C729.646 507.167 730.979 506.25 731.812 505.25C732.646 504.25 733.646 502.958 734.812 501.375C735.729 501.292 736.437 501.25 736.937 501.25C737.521 501.25 738.396 501.167 739.562 501C740.312 499.583 741.021 498.542 741.687 497.875C742.354 497.208 743.312 496.458 744.562 495.625C745.812 496.292 747.146 496.708 748.562 496.875C749.979 496.958 751.271 497.583 752.437 498.75C752.521 499.75 752.812 500.542 753.312 501.125C753.812 501.625 754.354 502.125 754.937 502.625C755.521 503.042 756.104 503.5 756.687 504C757.271 504.5 757.646 505.208 757.812 506.125C758.229 506.125 758.479 506.042 758.562 505.875C758.729 505.708 759.021 505.667 759.437 505.75C759.604 506.417 759.771 506.958 759.937 507.375C760.104 507.792 760.271 508.167 760.437 508.5C760.687 508.833 760.896 509.208 761.062 509.625C761.312 510.042 761.521 510.542 761.687 511.125C761.271 512.125 760.896 513.208 760.562 514.375C760.229 515.458 759.562 516.208 758.562 516.625C758.562 517.292 758.812 517.667 759.312 517.75C759.812 517.75 760.104 518.042 760.187 518.625C760.271 519.375 760.146 520 759.812 520.5C762.146 524.417 764.271 528.542 766.187 532.875C768.104 537.125 770.271 541.208 772.687 545.125C772.521 546.292 772.562 547.458 772.812 548.625C773.146 549.708 773.521 550.792 773.937 551.875C774.437 552.958 774.896 554.042 775.312 555.125C775.729 556.208 776.021 557.292 776.187 558.375C776.354 559.792 776.354 561.333 776.187 563C776.021 564.583 775.687 566.125 775.187 567.625C774.687 569.125 774.021 570.542 773.187 571.875C772.354 573.125 771.396 574.083 770.312 574.75C768.979 576.417 767.312 577.792 765.312 578.875C763.312 579.875 761.479 581.083 759.812 582.5C758.646 583.167 757.396 583.667 756.062 584C754.729 584.25 753.354 584.542 751.937 584.875C750.854 585.542 749.562 586.208 748.062 586.875C746.562 587.458 745.021 588 743.437 588.5C741.854 589 740.271 589.417 738.687 589.75C737.104 590 735.687 590.042 734.437 589.875C731.437 590.958 728.521 591.708 725.687 592.125C722.854 592.542 719.521 592.333 715.687 591.5ZM717.312 546C716.479 547.917 715.479 549.667 714.312 551.25C713.229 552.75 712.146 554.292 711.062 555.875C709.979 557.458 709.021 559.167 708.187 561C707.437 562.75 707.021 564.833 706.937 567.25C708.604 568.667 710.562 569.542 712.812 569.875C715.146 570.125 717.521 570.167 719.937 570C722.354 569.75 724.771 569.417 727.187 569C729.604 568.583 731.771 568.375 733.687 568.375C733.687 567.625 734.021 567.25 734.687 567.25C738.187 566.917 741.437 565.958 744.437 564.375C747.437 562.708 750.562 561.042 753.812 559.375C754.229 558.375 754.771 557.5 755.437 556.75C756.104 556 756.479 554.917 756.562 553.5C756.146 552.75 755.854 552.125 755.687 551.625C755.604 551.125 755.562 550.375 755.562 549.375C753.396 546.375 751.521 543.125 749.937 539.625C748.354 536.042 746.521 532.667 744.437 529.5C744.271 529.917 743.937 530.333 743.437 530.75C742.937 531.167 742.396 531.083 741.812 530.5C741.562 531.333 741.187 531.917 740.687 532.25C740.187 532.5 739.604 532.625 738.937 532.625C738.354 532.625 737.729 532.5 737.062 532.25C736.479 532 735.937 531.667 735.437 531.25C732.521 533.583 729.604 535.833 726.687 538C723.854 540.167 721.271 542.708 718.937 545.625C718.521 545.875 718.271 545.958 718.187 545.875C718.104 545.792 717.812 545.833 717.312 546ZM785.662 592.75C784.829 592.75 783.537 592.625 781.787 592.375C780.454 590.958 779.246 589.042 778.162 586.625C777.162 584.125 776.371 581.5 775.787 578.75C775.287 575.917 775.037 573.125 775.037 570.375C775.121 567.542 775.621 565.042 776.537 562.875C776.537 562.792 776.912 561.792 777.662 559.875C778.496 557.958 779.537 555.542 780.787 552.625C782.037 549.625 783.454 546.333 785.037 542.75C786.621 539.083 788.204 535.5 789.787 532C791.371 528.5 792.871 525.333 794.287 522.5C795.787 519.583 797.079 517.333 798.162 515.75C798.912 514.583 799.579 513.458 800.162 512.375C800.829 511.292 801.454 510.292 802.037 509.375C802.954 507.875 803.787 506.5 804.537 505.25C805.371 503.917 806.246 502.75 807.162 501.75C808.162 500.667 809.246 499.75 810.412 499C811.579 498.167 812.996 497.458 814.662 496.875C815.662 497.292 816.537 497.75 817.287 498.25C818.037 498.667 818.704 499.208 819.287 499.875L819.662 501.625C819.829 502.208 820.079 502.625 820.412 502.875C820.829 503.042 821.162 503.125 821.412 503.125C822.496 503.375 823.412 503.667 824.162 504C824.996 504.25 825.871 504.417 826.787 504.5C827.121 505 827.412 505.5 827.662 506C827.996 506.5 828.329 506.958 828.662 507.375C830.329 509.792 831.704 512.125 832.787 514.375C833.871 516.625 833.871 519.083 832.787 521.75L832.912 523.125C833.329 523.708 833.537 524.25 833.537 524.75C833.537 525.25 833.454 525.958 833.287 526.875C833.204 527.542 833.121 528.292 833.037 529.125C833.037 529.875 833.162 530.708 833.412 531.625L834.287 532.625C835.621 533.292 836.912 533.625 838.162 533.625C839.829 533.625 841.329 533.25 842.662 532.5C843.996 531.75 845.246 531 846.412 530.25C847.329 529.583 848.162 529.042 848.912 528.625C849.746 528.208 850.537 527.917 851.287 527.75C853.037 526.083 854.621 524.625 856.037 523.375C857.537 522.042 859.079 520.708 860.662 519.375C863.662 516.958 866.579 514.375 869.412 511.625C872.246 508.792 874.496 505.292 876.162 501.125C877.079 500.542 878.121 500.25 879.287 500.25C880.454 500.25 881.621 500.5 882.787 501C883.954 501.417 885.121 501.917 886.287 502.5C886.537 502.667 886.746 502.792 886.912 502.875C887.162 502.958 887.412 503.083 887.662 503.25C887.662 504.167 888.037 505 888.787 505.75C889.204 506.083 889.496 506.292 889.662 506.375C889.829 506.458 889.996 506.542 890.162 506.625C890.829 507.042 891.371 507.417 891.787 507.75C892.287 508.083 892.662 508.542 892.912 509.125C893.662 511.375 894.912 513.125 896.662 514.375C896.496 515.292 896.537 516.208 896.787 517.125C897.037 517.958 897.329 518.792 897.662 519.625C897.829 519.958 897.954 520.292 898.037 520.625C898.121 520.875 898.246 521.208 898.412 521.625L895.662 521.375L896.037 524.125C896.287 525.542 896.162 527.125 895.662 528.875C895.246 530.625 894.746 532 894.162 533C894.329 535.5 894.412 537.5 894.412 539C894.412 540.417 894.329 541.75 894.162 543C893.996 544.25 893.704 545.458 893.287 546.625C892.954 547.708 892.496 548.875 891.912 550.125C892.246 556.458 891.496 562.25 889.662 567.5C887.912 572.75 885.996 577.667 883.912 582.25C883.662 582.833 883.412 583.375 883.162 583.875C882.912 584.375 882.704 584.875 882.537 585.375C881.621 585.625 880.787 585.917 880.037 586.25C879.287 586.583 878.579 586.958 877.912 587.375C876.996 587.958 876.079 588.458 875.162 588.875C874.246 589.208 873.287 589.375 872.287 589.375C868.287 586.458 866.204 581.417 866.037 574.25C865.954 567.083 867.496 557.958 870.662 546.875C871.246 546.458 871.496 545.833 871.412 545V543.625L870.162 543.5C869.746 543.5 869.371 543.542 869.037 543.625C868.704 543.708 868.454 544.083 868.287 544.75C865.621 546.667 862.704 548.667 859.537 550.75C856.454 552.75 853.246 554.625 849.912 556.375C846.579 558.042 843.162 559.458 839.662 560.625C836.246 561.708 832.912 562.25 829.662 562.25C821.329 562.25 815.037 558 810.787 549.5L809.662 547.25L808.412 549.25C808.162 549.667 807.704 550.5 807.037 551.75C806.454 552.917 805.829 554.292 805.162 555.875C804.579 557.458 804.037 559.083 803.537 560.75C803.121 562.417 802.996 563.875 803.162 565.125C802.162 566.042 801.162 567.083 800.162 568.25C799.246 569.417 798.579 570.75 798.162 572.25C797.996 572.667 797.954 573.083 798.037 573.5C798.121 573.833 798.246 574.208 798.412 574.625C798.329 575.208 798.162 575.625 797.912 575.875C797.662 576.125 797.371 576.375 797.037 576.625C796.621 577.042 796.204 577.5 795.787 578C795.371 578.417 794.996 578.917 794.662 579.5C794.496 580 794.371 580.542 794.287 581.125C794.204 581.625 794.121 582.083 794.037 582.5C794.037 583.417 793.912 584.042 793.662 584.375C792.829 586.125 792.079 587.583 791.412 588.75C790.829 589.833 790.246 590.667 789.662 591.25C789.079 591.833 788.454 592.208 787.787 592.375C787.204 592.625 786.496 592.75 785.662 592.75ZM922.762 591.5C919.096 592 915.762 591.833 912.762 591C909.762 590.167 907.054 588.875 904.637 587.125C902.304 585.375 900.262 583.292 898.512 580.875C896.846 578.458 895.471 575.875 894.387 573.125C893.637 567.458 893.846 562.333 895.012 557.75C896.179 553.083 897.887 548.792 900.137 544.875C902.387 540.958 904.929 537.292 907.762 533.875C910.679 530.458 913.471 527.167 916.137 524C916.721 524.25 917.179 524.25 917.512 524C917.929 523.75 918.262 523.417 918.512 523C918.846 522.583 919.179 522.167 919.512 521.75C919.929 521.333 920.387 521.042 920.887 520.875C921.221 520.125 921.637 519.5 922.137 519C922.721 518.5 923.304 518.042 923.887 517.625C924.554 517.125 925.137 516.625 925.637 516.125C926.221 515.625 926.721 515 927.137 514.25C927.971 514.083 928.679 513.792 929.262 513.375C929.929 512.958 930.512 512.5 931.012 512C931.596 511.5 932.179 511.042 932.762 510.625C933.346 510.208 934.054 509.875 934.887 509.625V508C936.721 507.167 938.054 506.25 938.887 505.25C939.721 504.25 940.721 502.958 941.887 501.375C942.804 501.292 943.512 501.25 944.012 501.25C944.596 501.25 945.471 501.167 946.637 501C947.387 499.583 948.096 498.542 948.762 497.875C949.429 497.208 950.387 496.458 951.637 495.625C952.887 496.292 954.221 496.708 955.637 496.875C957.054 496.958 958.346 497.583 959.512 498.75C959.596 499.75 959.887 500.542 960.387 501.125C960.887 501.625 961.429 502.125 962.012 502.625C962.596 503.042 963.179 503.5 963.762 504C964.346 504.5 964.721 505.208 964.887 506.125C965.304 506.125 965.554 506.042 965.637 505.875C965.804 505.708 966.096 505.667 966.512 505.75C966.679 506.417 966.846 506.958 967.012 507.375C967.179 507.792 967.346 508.167 967.512 508.5C967.762 508.833 967.971 509.208 968.137 509.625C968.387 510.042 968.596 510.542 968.762 511.125C968.346 512.125 967.971 513.208 967.637 514.375C967.304 515.458 966.637 516.208 965.637 516.625C965.637 517.292 965.887 517.667 966.387 517.75C966.887 517.75 967.179 518.042 967.262 518.625C967.346 519.375 967.221 520 966.887 520.5C969.221 524.417 971.346 528.542 973.262 532.875C975.179 537.125 977.346 541.208 979.762 545.125C979.596 546.292 979.637 547.458 979.887 548.625C980.221 549.708 980.596 550.792 981.012 551.875C981.512 552.958 981.971 554.042 982.387 555.125C982.804 556.208 983.096 557.292 983.262 558.375C983.429 559.792 983.429 561.333 983.262 563C983.096 564.583 982.762 566.125 982.262 567.625C981.762 569.125 981.096 570.542 980.262 571.875C979.429 573.125 978.471 574.083 977.387 574.75C976.054 576.417 974.387 577.792 972.387 578.875C970.387 579.875 968.554 581.083 966.887 582.5C965.721 583.167 964.471 583.667 963.137 584C961.804 584.25 960.429 584.542 959.012 584.875C957.929 585.542 956.637 586.208 955.137 586.875C953.637 587.458 952.096 588 950.512 588.5C948.929 589 947.346 589.417 945.762 589.75C944.179 590 942.762 590.042 941.512 589.875C938.512 590.958 935.596 591.708 932.762 592.125C929.929 592.542 926.596 592.333 922.762 591.5ZM924.387 546C923.554 547.917 922.554 549.667 921.387 551.25C920.304 552.75 919.221 554.292 918.137 555.875C917.054 557.458 916.096 559.167 915.262 561C914.512 562.75 914.096 564.833 914.012 567.25C915.679 568.667 917.637 569.542 919.887 569.875C922.221 570.125 924.596 570.167 927.012 570C929.429 569.75 931.846 569.417 934.262 569C936.679 568.583 938.846 568.375 940.762 568.375C940.762 567.625 941.096 567.25 941.762 567.25C945.262 566.917 948.512 565.958 951.512 564.375C954.512 562.708 957.637 561.042 960.887 559.375C961.304 558.375 961.846 557.5 962.512 556.75C963.179 556 963.554 554.917 963.637 553.5C963.221 552.75 962.929 552.125 962.762 551.625C962.679 551.125 962.637 550.375 962.637 549.375C960.471 546.375 958.596 543.125 957.012 539.625C955.429 536.042 953.596 532.667 951.512 529.5C951.346 529.917 951.012 530.333 950.512 530.75C950.012 531.167 949.471 531.083 948.887 530.5C948.637 531.333 948.262 531.917 947.762 532.25C947.262 532.5 946.679 532.625 946.012 532.625C945.429 532.625 944.804 532.5 944.137 532.25C943.554 532 943.012 531.667 942.512 531.25C939.596 533.583 936.679 535.833 933.762 538C930.929 540.167 928.346 542.708 926.012 545.625C925.596 545.875 925.346 545.958 925.262 545.875C925.179 545.792 924.887 545.833 924.387 546ZM993.737 592.375C991.321 591.792 989.446 590.833 988.112 589.5C986.862 588.083 985.904 586.458 985.237 584.625C984.654 582.708 984.237 580.625 983.987 578.375C983.821 576.125 983.612 573.792 983.362 571.375C983.696 570.292 984.112 569.375 984.612 568.625C985.196 567.875 985.446 566.833 985.362 565.5C986.279 562.833 987.112 560.25 987.862 557.75C988.612 555.25 989.112 552.667 989.362 550C989.862 549.25 990.362 548.75 990.862 548.5C991.529 543.75 991.612 538.875 991.112 533.875C990.612 528.875 989.779 524.25 988.612 520C988.696 519.083 988.821 518.417 988.987 518C989.154 517.5 989.154 517.083 988.987 516.75C988.821 516 989.071 515.625 989.737 515.625C990.404 515.625 991.071 515.625 991.737 515.625C991.737 514.125 991.446 512.667 990.862 511.25C990.362 509.75 989.862 508.042 989.362 506.125C990.029 504.625 990.487 503.167 990.737 501.75C990.987 500.333 991.446 499.042 992.112 497.875C994.779 498.708 997.404 499.667 999.987 500.75C1002.57 501.833 1005.11 502.917 1007.61 504C1010.11 505 1012.57 506 1014.99 507C1017.4 507.917 1019.78 508.667 1022.11 509.25C1025.7 511.833 1029.36 514.417 1033.11 517C1036.95 519.5 1040.4 522.292 1043.49 525.375C1046.65 528.375 1049.28 531.833 1051.36 535.75C1053.45 539.667 1054.65 544.292 1054.99 549.625C1054.82 550.125 1054.7 550.542 1054.61 550.875C1054.53 551.208 1054.45 551.542 1054.36 551.875C1054.28 552.208 1054.24 552.583 1054.24 553C1054.24 553.417 1054.24 554 1054.24 554.75C1051.24 560 1047.45 564.417 1042.86 568C1038.28 571.583 1033.28 574.75 1027.86 577.5C1022.45 580.25 1016.78 582.792 1010.86 585.125C1005.03 587.375 999.321 589.792 993.737 592.375ZM1005.99 521.5C1005.24 521.5 1004.7 521.667 1004.36 522C1005.36 525.75 1006.11 529.292 1006.61 532.625C1007.11 535.958 1007.36 539.292 1007.36 542.625C1007.45 545.958 1007.28 549.375 1006.86 552.875C1006.45 556.375 1005.86 560.167 1005.11 564.25C1006.2 564.167 1007.15 563.958 1007.99 563.625C1008.82 563.292 1009.65 562.917 1010.49 562.5C1011.4 562.083 1012.32 561.708 1013.24 561.375C1014.24 561.042 1015.36 560.833 1016.61 560.75C1016.95 560.083 1017.36 559.583 1017.86 559.25C1018.45 558.833 1018.95 558.417 1019.36 558C1021.45 557.167 1023.53 556.292 1025.61 555.375C1027.7 554.458 1029.61 553.417 1031.36 552.25C1033.11 551.083 1034.7 549.75 1036.11 548.25C1037.53 546.75 1038.7 544.958 1039.61 542.875C1038.95 541.625 1038.11 540.583 1037.11 539.75C1036.2 538.833 1035.2 537.958 1034.11 537.125C1033.11 536.208 1032.11 535.292 1031.11 534.375C1030.2 533.375 1029.45 532.25 1028.86 531C1027.53 530.833 1026.36 530.5 1025.36 530C1024.36 529.417 1023.4 528.875 1022.49 528.375C1021.57 527.792 1020.57 527.25 1019.49 526.75C1018.49 526.25 1017.28 525.958 1015.86 525.875C1013.7 524.708 1011.74 523.917 1009.99 523.5C1008.24 523 1006.9 522.333 1005.99 521.5ZM1080.59 591.5C1076.92 592 1073.59 591.833 1070.59 591C1067.59 590.167 1064.88 588.875 1062.46 587.125C1060.13 585.375 1058.09 583.292 1056.34 580.875C1054.67 578.458 1053.3 575.875 1052.21 573.125C1051.46 567.458 1051.67 562.333 1052.84 557.75C1054 553.083 1055.71 548.792 1057.96 544.875C1060.21 540.958 1062.75 537.292 1065.59 533.875C1068.5 530.458 1071.3 527.167 1073.96 524C1074.55 524.25 1075 524.25 1075.34 524C1075.75 523.75 1076.09 523.417 1076.34 523C1076.67 522.583 1077 522.167 1077.34 521.75C1077.75 521.333 1078.21 521.042 1078.71 520.875C1079.05 520.125 1079.46 519.5 1079.96 519C1080.55 518.5 1081.13 518.042 1081.71 517.625C1082.38 517.125 1082.96 516.625 1083.46 516.125C1084.05 515.625 1084.55 515 1084.96 514.25C1085.8 514.083 1086.5 513.792 1087.09 513.375C1087.75 512.958 1088.34 512.5 1088.84 512C1089.42 511.5 1090 511.042 1090.59 510.625C1091.17 510.208 1091.88 509.875 1092.71 509.625V508C1094.55 507.167 1095.88 506.25 1096.71 505.25C1097.55 504.25 1098.55 502.958 1099.71 501.375C1100.63 501.292 1101.34 501.25 1101.84 501.25C1102.42 501.25 1103.3 501.167 1104.46 501C1105.21 499.583 1105.92 498.542 1106.59 497.875C1107.25 497.208 1108.21 496.458 1109.46 495.625C1110.71 496.292 1112.05 496.708 1113.46 496.875C1114.88 496.958 1116.17 497.583 1117.34 498.75C1117.42 499.75 1117.71 500.542 1118.21 501.125C1118.71 501.625 1119.25 502.125 1119.84 502.625C1120.42 503.042 1121 503.5 1121.59 504C1122.17 504.5 1122.55 505.208 1122.71 506.125C1123.13 506.125 1123.38 506.042 1123.46 505.875C1123.63 505.708 1123.92 505.667 1124.34 505.75C1124.5 506.417 1124.67 506.958 1124.84 507.375C1125 507.792 1125.17 508.167 1125.34 508.5C1125.59 508.833 1125.8 509.208 1125.96 509.625C1126.21 510.042 1126.42 510.542 1126.59 511.125C1126.17 512.125 1125.8 513.208 1125.46 514.375C1125.13 515.458 1124.46 516.208 1123.46 516.625C1123.46 517.292 1123.71 517.667 1124.21 517.75C1124.71 517.75 1125 518.042 1125.09 518.625C1125.17 519.375 1125.05 520 1124.71 520.5C1127.05 524.417 1129.17 528.542 1131.09 532.875C1133 537.125 1135.17 541.208 1137.59 545.125C1137.42 546.292 1137.46 547.458 1137.71 548.625C1138.05 549.708 1138.42 550.792 1138.84 551.875C1139.34 552.958 1139.8 554.042 1140.21 555.125C1140.63 556.208 1140.92 557.292 1141.09 558.375C1141.25 559.792 1141.25 561.333 1141.09 563C1140.92 564.583 1140.59 566.125 1140.09 567.625C1139.59 569.125 1138.92 570.542 1138.09 571.875C1137.25 573.125 1136.3 574.083 1135.21 574.75C1133.88 576.417 1132.21 577.792 1130.21 578.875C1128.21 579.875 1126.38 581.083 1124.71 582.5C1123.55 583.167 1122.3 583.667 1120.96 584C1119.63 584.25 1118.25 584.542 1116.84 584.875C1115.75 585.542 1114.46 586.208 1112.96 586.875C1111.46 587.458 1109.92 588 1108.34 588.5C1106.75 589 1105.17 589.417 1103.59 589.75C1102 590 1100.59 590.042 1099.34 589.875C1096.34 590.958 1093.42 591.708 1090.59 592.125C1087.75 592.542 1084.42 592.333 1080.59 591.5ZM1082.21 546C1081.38 547.917 1080.38 549.667 1079.21 551.25C1078.13 552.75 1077.05 554.292 1075.96 555.875C1074.88 557.458 1073.92 559.167 1073.09 561C1072.34 562.75 1071.92 564.833 1071.84 567.25C1073.5 568.667 1075.46 569.542 1077.71 569.875C1080.05 570.125 1082.42 570.167 1084.84 570C1087.25 569.75 1089.67 569.417 1092.09 569C1094.5 568.583 1096.67 568.375 1098.59 568.375C1098.59 567.625 1098.92 567.25 1099.59 567.25C1103.09 566.917 1106.34 565.958 1109.34 564.375C1112.34 562.708 1115.46 561.042 1118.71 559.375C1119.13 558.375 1119.67 557.5 1120.34 556.75C1121 556 1121.38 554.917 1121.46 553.5C1121.05 552.75 1120.75 552.125 1120.59 551.625C1120.5 551.125 1120.46 550.375 1120.46 549.375C1118.3 546.375 1116.42 543.125 1114.84 539.625C1113.25 536.042 1111.42 532.667 1109.34 529.5C1109.17 529.917 1108.84 530.333 1108.34 530.75C1107.84 531.167 1107.3 531.083 1106.71 530.5C1106.46 531.333 1106.09 531.917 1105.59 532.25C1105.09 532.5 1104.5 532.625 1103.84 532.625C1103.25 532.625 1102.63 532.5 1101.96 532.25C1101.38 532 1100.84 531.667 1100.34 531.25C1097.42 533.583 1094.5 535.833 1091.59 538C1088.75 540.167 1086.17 542.708 1083.84 545.625C1083.42 545.875 1083.17 545.958 1083.09 545.875C1083 545.792 1082.71 545.833 1082.21 546ZM1142.81 580.25C1142.4 580.333 1142.02 580.042 1141.69 579.375C1141.35 578.625 1140.98 577.917 1140.56 577.25H1141.94C1141.35 575.417 1141.19 573.75 1141.44 572.25C1141.77 570.667 1142.15 569.167 1142.56 567.75C1142.98 566.25 1143.31 564.833 1143.56 563.5C1143.9 562.083 1143.77 560.625 1143.19 559.125C1143.6 559.375 1143.9 559.292 1144.06 558.875C1144.31 558.375 1144.48 557.792 1144.56 557.125C1144.73 556.375 1144.77 555.625 1144.69 554.875C1144.69 554.042 1144.65 553.375 1144.56 552.875C1145.65 550.292 1146.48 547.625 1147.06 544.875C1147.73 542.125 1148.31 539.417 1148.81 536.75C1149.31 534 1149.85 531.375 1150.44 528.875C1151.1 526.292 1151.94 523.875 1152.94 521.625C1154.1 521.458 1155.31 521.625 1156.56 522.125C1157.9 522.542 1158.77 523.083 1159.19 523.75C1161.77 521.75 1164.06 519.333 1166.06 516.5C1168.06 513.667 1170.06 510.917 1172.06 508.25C1174.15 505.5 1176.48 503.083 1179.06 501C1181.65 498.917 1184.85 497.667 1188.69 497.25C1190.69 498.667 1192.94 500.208 1195.44 501.875C1197.94 503.458 1199.98 505.458 1201.56 507.875C1202.23 508.292 1202.85 508.75 1203.44 509.25C1204.1 509.667 1204.77 510.083 1205.44 510.5V512.375C1206.6 513.458 1207.56 514.75 1208.31 516.25C1209.15 517.667 1209.85 519.208 1210.44 520.875C1211.1 522.458 1211.73 524.083 1212.31 525.75C1212.9 527.417 1213.56 528.958 1214.31 530.375C1214.15 530.875 1214.06 531.333 1214.06 531.75C1214.15 532.083 1214.23 532.458 1214.31 532.875C1214.48 533.208 1214.6 533.625 1214.69 534.125C1214.77 534.542 1214.81 535.083 1214.81 535.75C1214.48 540.167 1213.02 543.75 1210.44 546.5C1207.94 549.167 1204.85 551.375 1201.19 553.125C1197.6 554.792 1193.77 556.25 1189.69 557.5C1185.6 558.667 1181.9 559.958 1178.56 561.375C1178.56 561.708 1178.73 561.875 1179.06 561.875C1179.48 561.875 1179.6 562.125 1179.44 562.625C1181.94 564.125 1183.85 565.333 1185.19 566.25C1186.6 567.167 1187.9 567.958 1189.06 568.625C1190.31 569.208 1191.65 569.708 1193.06 570.125C1194.56 570.542 1196.6 571.042 1199.19 571.625C1201.77 572.208 1203.77 572.708 1205.19 573.125C1206.69 573.458 1208.02 573.75 1209.19 574C1210.35 574.167 1211.6 574.333 1212.94 574.5C1214.27 574.667 1216.06 574.875 1218.31 575.125C1219.23 576.042 1219.98 577.125 1220.56 578.375C1221.15 579.625 1221.56 580.875 1221.81 582.125C1222.06 583.375 1222.1 584.583 1221.94 585.75C1221.85 586.833 1221.52 587.708 1220.94 588.375C1221.02 588.708 1221.23 588.875 1221.56 588.875C1221.98 588.792 1222.4 588.792 1222.81 588.875C1222.23 589.292 1221.73 589.792 1221.31 590.375C1220.9 590.958 1220.48 591.542 1220.06 592.125C1219.65 592.708 1219.15 593.25 1218.56 593.75C1218.06 594.25 1217.4 594.542 1216.56 594.625C1213.56 595.792 1209.73 595.833 1205.06 594.75C1200.4 593.667 1194.44 591.75 1187.19 589C1183.6 587.667 1180.69 586.458 1178.44 585.375C1176.19 584.292 1174.23 583.25 1172.56 582.25C1170.9 581.167 1169.35 580.042 1167.94 578.875C1166.52 577.625 1164.9 576.167 1163.06 574.5C1162.81 574.583 1162.65 574.75 1162.56 575C1162.56 575.25 1162.44 575.417 1162.19 575.5C1161.77 578.833 1161.1 581.542 1160.19 583.625C1159.35 585.708 1158.1 587.833 1156.44 590C1155.1 589.75 1154.19 589.875 1153.69 590.375C1153.27 590.875 1152.73 591.333 1152.06 591.75C1151.23 591.917 1150.6 591.875 1150.19 591.625C1149.77 591.458 1149.4 591.25 1149.06 591C1148.73 590.75 1148.35 590.5 1147.94 590.25C1147.52 590 1146.85 589.917 1145.94 590C1145.69 589.25 1145.44 588.542 1145.19 587.875C1144.94 587.125 1144.27 586.792 1143.19 586.875C1143.44 586.125 1143.52 585.5 1143.44 585C1143.35 584.417 1143.23 583.917 1143.06 583.5C1142.9 583 1142.73 582.5 1142.56 582C1142.48 581.5 1142.56 580.917 1142.81 580.25ZM1184.56 523.125C1183.48 524.708 1182.27 526.167 1180.94 527.5C1179.6 528.75 1178.27 530.083 1176.94 531.5C1175.69 532.833 1174.56 534.333 1173.56 536C1172.56 537.583 1171.85 539.5 1171.44 541.75C1174.94 541.333 1178.6 540.375 1182.44 538.875C1186.27 537.292 1189.9 535.792 1193.31 534.375C1192.9 531.292 1191.81 528.833 1190.06 527C1188.31 525.083 1186.48 523.792 1184.56 523.125ZM1245.79 591.5C1242.12 592 1238.79 591.833 1235.79 591C1232.79 590.167 1230.08 588.875 1227.66 587.125C1225.33 585.375 1223.29 583.292 1221.54 580.875C1219.87 578.458 1218.5 575.875 1217.41 573.125C1216.66 567.458 1216.87 562.333 1218.04 557.75C1219.2 553.083 1220.91 548.792 1223.16 544.875C1225.41 540.958 1227.95 537.292 1230.79 533.875C1233.7 530.458 1236.5 527.167 1239.16 524C1239.75 524.25 1240.2 524.25 1240.54 524C1240.95 523.75 1241.29 523.417 1241.54 523C1241.87 522.583 1242.2 522.167 1242.54 521.75C1242.95 521.333 1243.41 521.042 1243.91 520.875C1244.25 520.125 1244.66 519.5 1245.16 519C1245.75 518.5 1246.33 518.042 1246.91 517.625C1247.58 517.125 1248.16 516.625 1248.66 516.125C1249.25 515.625 1249.75 515 1250.16 514.25C1251 514.083 1251.7 513.792 1252.29 513.375C1252.95 512.958 1253.54 512.5 1254.04 512C1254.62 511.5 1255.2 511.042 1255.79 510.625C1256.37 510.208 1257.08 509.875 1257.91 509.625V508C1259.75 507.167 1261.08 506.25 1261.91 505.25C1262.75 504.25 1263.75 502.958 1264.91 501.375C1265.83 501.292 1266.54 501.25 1267.04 501.25C1267.62 501.25 1268.5 501.167 1269.66 501C1270.41 499.583 1271.12 498.542 1271.79 497.875C1272.45 497.208 1273.41 496.458 1274.66 495.625C1275.91 496.292 1277.25 496.708 1278.66 496.875C1280.08 496.958 1281.37 497.583 1282.54 498.75C1282.62 499.75 1282.91 500.542 1283.41 501.125C1283.91 501.625 1284.45 502.125 1285.04 502.625C1285.62 503.042 1286.2 503.5 1286.79 504C1287.37 504.5 1287.75 505.208 1287.91 506.125C1288.33 506.125 1288.58 506.042 1288.66 505.875C1288.83 505.708 1289.12 505.667 1289.54 505.75C1289.7 506.417 1289.87 506.958 1290.04 507.375C1290.2 507.792 1290.37 508.167 1290.54 508.5C1290.79 508.833 1291 509.208 1291.16 509.625C1291.41 510.042 1291.62 510.542 1291.79 511.125C1291.37 512.125 1291 513.208 1290.66 514.375C1290.33 515.458 1289.66 516.208 1288.66 516.625C1288.66 517.292 1288.91 517.667 1289.41 517.75C1289.91 517.75 1290.2 518.042 1290.29 518.625C1290.37 519.375 1290.25 520 1289.91 520.5C1292.25 524.417 1294.37 528.542 1296.29 532.875C1298.2 537.125 1300.37 541.208 1302.79 545.125C1302.62 546.292 1302.66 547.458 1302.91 548.625C1303.25 549.708 1303.62 550.792 1304.04 551.875C1304.54 552.958 1305 554.042 1305.41 555.125C1305.83 556.208 1306.12 557.292 1306.29 558.375C1306.45 559.792 1306.45 561.333 1306.29 563C1306.12 564.583 1305.79 566.125 1305.29 567.625C1304.79 569.125 1304.12 570.542 1303.29 571.875C1302.45 573.125 1301.5 574.083 1300.41 574.75C1299.08 576.417 1297.41 577.792 1295.41 578.875C1293.41 579.875 1291.58 581.083 1289.91 582.5C1288.75 583.167 1287.5 583.667 1286.16 584C1284.83 584.25 1283.45 584.542 1282.04 584.875C1280.95 585.542 1279.66 586.208 1278.16 586.875C1276.66 587.458 1275.12 588 1273.54 588.5C1271.95 589 1270.37 589.417 1268.79 589.75C1267.2 590 1265.79 590.042 1264.54 589.875C1261.54 590.958 1258.62 591.708 1255.79 592.125C1252.95 592.542 1249.62 592.333 1245.79 591.5ZM1247.41 546C1246.58 547.917 1245.58 549.667 1244.41 551.25C1243.33 552.75 1242.25 554.292 1241.16 555.875C1240.08 557.458 1239.12 559.167 1238.29 561C1237.54 562.75 1237.12 564.833 1237.04 567.25C1238.7 568.667 1240.66 569.542 1242.91 569.875C1245.25 570.125 1247.62 570.167 1250.04 570C1252.45 569.75 1254.87 569.417 1257.29 569C1259.7 568.583 1261.87 568.375 1263.79 568.375C1263.79 567.625 1264.12 567.25 1264.79 567.25C1268.29 566.917 1271.54 565.958 1274.54 564.375C1277.54 562.708 1280.66 561.042 1283.91 559.375C1284.33 558.375 1284.87 557.5 1285.54 556.75C1286.2 556 1286.58 554.917 1286.66 553.5C1286.25 552.75 1285.95 552.125 1285.79 551.625C1285.7 551.125 1285.66 550.375 1285.66 549.375C1283.5 546.375 1281.62 543.125 1280.04 539.625C1278.45 536.042 1276.62 532.667 1274.54 529.5C1274.37 529.917 1274.04 530.333 1273.54 530.75C1273.04 531.167 1272.5 531.083 1271.91 530.5C1271.66 531.333 1271.29 531.917 1270.79 532.25C1270.29 532.5 1269.7 532.625 1269.04 532.625C1268.45 532.625 1267.83 532.5 1267.16 532.25C1266.58 532 1266.04 531.667 1265.54 531.25C1262.62 533.583 1259.7 535.833 1256.79 538C1253.95 540.167 1251.37 542.708 1249.04 545.625C1248.62 545.875 1248.37 545.958 1248.29 545.875C1248.2 545.792 1247.91 545.833 1247.41 546Z" fill="white"/>
</svg>
